<svg width="441" height="148" viewBox="0 0 441 148" fill="none" xmlns="http://www.w3.org/2000/svg">
<g filter="url(#filter0_d_4668_2583)">
<mask id="path-1-outside-1_4668_2583" maskUnits="userSpaceOnUse" x="-0.753906" y="0" width="422" height="128" fill="black">
<rect fill="white" x="-0.753906" width="422" height="128"/>
<path d="M39.0415 91.5455H21.2461L61.4009 13H82.8015L96.8384 91.5455H79.043L69.4933 30.9489H68.8796L39.0415 91.5455ZM43.1069 60.6719H85.141L82.9165 73.6349H40.8825L43.1069 60.6719Z"/>
<path d="M146.863 66.4631L152.501 32.6364H168.839L159.02 91.5455H143.334L145.099 80.8452H144.485C142.67 84.2969 140.023 87.071 136.546 89.1676C133.069 91.2642 129.119 92.3125 124.695 92.3125C120.758 92.3125 117.434 91.4176 114.724 89.6278C112.039 87.8381 110.134 85.294 109.009 81.9957C107.884 78.6974 107.692 74.7472 108.434 70.1449L114.724 32.6364H131.062L125.309 67.2301C124.772 70.7074 125.258 73.456 126.766 75.4759C128.275 77.4957 130.576 78.5057 133.67 78.5057C135.638 78.5057 137.543 78.0582 139.384 77.1634C141.251 76.2429 142.861 74.8878 144.217 73.098C145.572 71.3082 146.454 69.0966 146.863 66.4631Z"/>
<path d="M193.867 114.864C188.549 114.864 184.113 114.135 180.559 112.678C177.03 111.246 174.346 109.29 172.505 106.81C170.689 104.33 169.692 101.543 169.513 98.4489L185.008 96.4162C185.289 97.6179 185.826 98.7301 186.618 99.7528C187.437 100.776 188.6 101.594 190.108 102.207C191.643 102.821 193.624 103.128 196.053 103.128C199.607 103.128 202.701 102.259 205.334 100.52C207.968 98.8068 209.591 95.9304 210.205 91.8906L211.969 81.1136H211.279C210.307 82.75 208.978 84.2969 207.29 85.7543C205.628 87.2117 203.596 88.4006 201.192 89.321C198.814 90.2415 196.066 90.7017 192.947 90.7017C188.498 90.7017 184.637 89.679 181.364 87.6335C178.117 85.5625 175.765 82.4048 174.307 78.1605C172.876 73.8906 172.697 68.4957 173.77 61.9759C174.895 55.3026 176.915 49.7287 179.83 45.2543C182.745 40.7798 186.197 37.4304 190.185 35.206C194.174 32.9815 198.329 31.8693 202.65 31.8693C205.948 31.8693 208.607 32.4318 210.627 33.5568C212.672 34.6563 214.245 36.0369 215.344 37.6989C216.444 39.3352 217.224 40.946 217.684 42.5312H218.336L219.947 32.6364H236.17L226.275 92.1207C225.482 97.1577 223.577 101.351 220.56 104.7C217.569 108.075 213.772 110.607 209.17 112.294C204.567 114.007 199.466 114.864 193.867 114.864ZM200.003 78.429C202.611 78.429 204.951 77.777 207.022 76.473C209.118 75.1435 210.87 73.2514 212.276 70.7969C213.682 68.3168 214.667 65.3509 215.229 61.8992C215.792 58.4474 215.779 55.456 215.191 52.9247C214.628 50.3679 213.529 48.3864 211.893 46.9801C210.282 45.5739 208.16 44.8707 205.526 44.8707C202.816 44.8707 200.438 45.5994 198.393 47.0568C196.347 48.4886 194.647 50.483 193.292 53.0398C191.962 55.5966 191.029 58.5497 190.492 61.8992C189.929 65.2997 189.904 68.2401 190.415 70.7202C190.952 73.1747 192.013 75.0795 193.599 76.4347C195.184 77.7642 197.319 78.429 200.003 78.429Z"/>
<path d="M280.23 66.4631L285.868 32.6364H302.206L292.388 91.5455H276.702L278.466 80.8452H277.852C276.037 84.2969 273.391 87.071 269.913 89.1676C266.436 91.2642 262.486 92.3125 258.063 92.3125C254.125 92.3125 250.801 91.4176 248.091 89.6278C245.406 87.8381 243.501 85.294 242.376 81.9957C241.251 78.6974 241.06 74.7472 241.801 70.1449L248.091 32.6364H264.429L258.676 67.2301C258.139 70.7074 258.625 73.456 260.134 75.4759C261.642 77.4957 263.943 78.5057 267.037 78.5057C269.006 78.5057 270.911 78.0582 272.751 77.1634C274.618 76.2429 276.229 74.8878 277.584 73.098C278.939 71.3082 279.821 69.0966 280.23 66.4631Z"/>
<path d="M360.332 49.4347L345.49 50.3551C345.413 49.0511 345.055 47.8878 344.416 46.8651C343.803 45.8168 342.895 44.9858 341.693 44.3722C340.517 43.7585 339.034 43.4517 337.244 43.4517C334.56 43.4517 332.169 44.0653 330.072 45.2926C327.976 46.5199 326.787 48.0923 326.506 50.0099C326.276 51.2372 326.595 52.2727 327.464 53.1165C328.334 53.9602 330.085 54.6761 332.719 55.2642L343.074 57.4119C348.597 58.5881 352.585 60.544 355.04 63.2798C357.52 66.0156 358.402 69.5952 357.686 74.0185C357.047 77.777 355.398 81.0625 352.739 83.875C350.079 86.6619 346.704 88.8352 342.614 90.3949C338.523 91.929 333.984 92.696 328.999 92.696C320.996 92.696 314.91 91.0597 310.743 87.7869C306.575 84.5142 304.568 80.0781 304.722 74.4787L320.676 73.6349C320.804 76.0384 321.648 77.8537 323.207 79.081C324.767 80.2827 326.902 80.8963 329.612 80.9219C332.655 80.973 335.237 80.3466 337.359 79.0426C339.507 77.7131 340.722 76.1023 341.003 74.2102C341.207 72.8807 340.824 71.8068 339.852 70.9886C338.906 70.1705 337.168 69.4929 334.636 68.956L324.818 66.9233C319.244 65.7727 315.243 63.7145 312.814 60.7486C310.385 57.7827 309.554 54.0114 310.321 49.4347C310.935 45.7784 312.456 42.6463 314.885 40.0384C317.339 37.4048 320.497 35.3849 324.358 33.9787C328.244 32.5724 332.629 31.8693 337.513 31.8693C345.158 31.8693 350.91 33.4418 354.771 36.5866C358.658 39.7315 360.511 44.0142 360.332 49.4347Z"/>
<path d="M405.093 32.6364L403.06 44.9091H367.546L369.617 32.6364H405.093ZM379.972 18.5227H396.31L387.182 73.4432C386.927 74.9517 386.965 76.1278 387.297 76.9716C387.63 77.7898 388.18 78.3651 388.947 78.6974C389.739 79.0298 390.685 79.196 391.785 79.196C392.552 79.196 393.332 79.1321 394.124 79.0043C394.917 78.8509 395.518 78.7358 395.927 78.6591L396.54 90.8168C395.62 91.098 394.38 91.4048 392.82 91.7372C391.286 92.0696 389.471 92.2741 387.374 92.3509C383.386 92.5043 380.011 91.9801 377.249 90.7784C374.488 89.5511 372.506 87.6719 371.305 85.1406C370.103 82.6094 369.847 79.4261 370.538 75.5909L379.972 18.5227Z"/>
</mask>
<path d="M39.0415 91.5455H21.2461L61.4009 13H82.8015L96.8384 91.5455H79.043L69.4933 30.9489H68.8796L39.0415 91.5455ZM43.1069 60.6719H85.141L82.9165 73.6349H40.8825L43.1069 60.6719Z" fill="white"/>
<path d="M146.863 66.4631L152.501 32.6364H168.839L159.02 91.5455H143.334L145.099 80.8452H144.485C142.67 84.2969 140.023 87.071 136.546 89.1676C133.069 91.2642 129.119 92.3125 124.695 92.3125C120.758 92.3125 117.434 91.4176 114.724 89.6278C112.039 87.8381 110.134 85.294 109.009 81.9957C107.884 78.6974 107.692 74.7472 108.434 70.1449L114.724 32.6364H131.062L125.309 67.2301C124.772 70.7074 125.258 73.456 126.766 75.4759C128.275 77.4957 130.576 78.5057 133.67 78.5057C135.638 78.5057 137.543 78.0582 139.384 77.1634C141.251 76.2429 142.861 74.8878 144.217 73.098C145.572 71.3082 146.454 69.0966 146.863 66.4631Z" fill="white"/>
<path d="M193.867 114.864C188.549 114.864 184.113 114.135 180.559 112.678C177.03 111.246 174.346 109.29 172.505 106.81C170.689 104.33 169.692 101.543 169.513 98.4489L185.008 96.4162C185.289 97.6179 185.826 98.7301 186.618 99.7528C187.437 100.776 188.6 101.594 190.108 102.207C191.643 102.821 193.624 103.128 196.053 103.128C199.607 103.128 202.701 102.259 205.334 100.52C207.968 98.8068 209.591 95.9304 210.205 91.8906L211.969 81.1136H211.279C210.307 82.75 208.978 84.2969 207.29 85.7543C205.628 87.2117 203.596 88.4006 201.192 89.321C198.814 90.2415 196.066 90.7017 192.947 90.7017C188.498 90.7017 184.637 89.679 181.364 87.6335C178.117 85.5625 175.765 82.4048 174.307 78.1605C172.876 73.8906 172.697 68.4957 173.77 61.9759C174.895 55.3026 176.915 49.7287 179.83 45.2543C182.745 40.7798 186.197 37.4304 190.185 35.206C194.174 32.9815 198.329 31.8693 202.65 31.8693C205.948 31.8693 208.607 32.4318 210.627 33.5568C212.672 34.6563 214.245 36.0369 215.344 37.6989C216.444 39.3352 217.224 40.946 217.684 42.5312H218.336L219.947 32.6364H236.17L226.275 92.1207C225.482 97.1577 223.577 101.351 220.56 104.7C217.569 108.075 213.772 110.607 209.17 112.294C204.567 114.007 199.466 114.864 193.867 114.864ZM200.003 78.429C202.611 78.429 204.951 77.777 207.022 76.473C209.118 75.1435 210.87 73.2514 212.276 70.7969C213.682 68.3168 214.667 65.3509 215.229 61.8992C215.792 58.4474 215.779 55.456 215.191 52.9247C214.628 50.3679 213.529 48.3864 211.893 46.9801C210.282 45.5739 208.16 44.8707 205.526 44.8707C202.816 44.8707 200.438 45.5994 198.393 47.0568C196.347 48.4886 194.647 50.483 193.292 53.0398C191.962 55.5966 191.029 58.5497 190.492 61.8992C189.929 65.2997 189.904 68.2401 190.415 70.7202C190.952 73.1747 192.013 75.0795 193.599 76.4347C195.184 77.7642 197.319 78.429 200.003 78.429Z" fill="white"/>
<path d="M280.23 66.4631L285.868 32.6364H302.206L292.388 91.5455H276.702L278.466 80.8452H277.852C276.037 84.2969 273.391 87.071 269.913 89.1676C266.436 91.2642 262.486 92.3125 258.063 92.3125C254.125 92.3125 250.801 91.4176 248.091 89.6278C245.406 87.8381 243.501 85.294 242.376 81.9957C241.251 78.6974 241.06 74.7472 241.801 70.1449L248.091 32.6364H264.429L258.676 67.2301C258.139 70.7074 258.625 73.456 260.134 75.4759C261.642 77.4957 263.943 78.5057 267.037 78.5057C269.006 78.5057 270.911 78.0582 272.751 77.1634C274.618 76.2429 276.229 74.8878 277.584 73.098C278.939 71.3082 279.821 69.0966 280.23 66.4631Z" fill="white"/>
<path d="M360.332 49.4347L345.49 50.3551C345.413 49.0511 345.055 47.8878 344.416 46.8651C343.803 45.8168 342.895 44.9858 341.693 44.3722C340.517 43.7585 339.034 43.4517 337.244 43.4517C334.56 43.4517 332.169 44.0653 330.072 45.2926C327.976 46.5199 326.787 48.0923 326.506 50.0099C326.276 51.2372 326.595 52.2727 327.464 53.1165C328.334 53.9602 330.085 54.6761 332.719 55.2642L343.074 57.4119C348.597 58.5881 352.585 60.544 355.04 63.2798C357.52 66.0156 358.402 69.5952 357.686 74.0185C357.047 77.777 355.398 81.0625 352.739 83.875C350.079 86.6619 346.704 88.8352 342.614 90.3949C338.523 91.929 333.984 92.696 328.999 92.696C320.996 92.696 314.91 91.0597 310.743 87.7869C306.575 84.5142 304.568 80.0781 304.722 74.4787L320.676 73.6349C320.804 76.0384 321.648 77.8537 323.207 79.081C324.767 80.2827 326.902 80.8963 329.612 80.9219C332.655 80.973 335.237 80.3466 337.359 79.0426C339.507 77.7131 340.722 76.1023 341.003 74.2102C341.207 72.8807 340.824 71.8068 339.852 70.9886C338.906 70.1705 337.168 69.4929 334.636 68.956L324.818 66.9233C319.244 65.7727 315.243 63.7145 312.814 60.7486C310.385 57.7827 309.554 54.0114 310.321 49.4347C310.935 45.7784 312.456 42.6463 314.885 40.0384C317.339 37.4048 320.497 35.3849 324.358 33.9787C328.244 32.5724 332.629 31.8693 337.513 31.8693C345.158 31.8693 350.91 33.4418 354.771 36.5866C358.658 39.7315 360.511 44.0142 360.332 49.4347Z" fill="white"/>
<path d="M405.093 32.6364L403.06 44.9091H367.546L369.617 32.6364H405.093ZM379.972 18.5227H396.31L387.182 73.4432C386.927 74.9517 386.965 76.1278 387.297 76.9716C387.63 77.7898 388.18 78.3651 388.947 78.6974C389.739 79.0298 390.685 79.196 391.785 79.196C392.552 79.196 393.332 79.1321 394.124 79.0043C394.917 78.8509 395.518 78.7358 395.927 78.6591L396.54 90.8168C395.62 91.098 394.38 91.4048 392.82 91.7372C391.286 92.0696 389.471 92.2741 387.374 92.3509C383.386 92.5043 380.011 91.9801 377.249 90.7784C374.488 89.5511 372.506 87.6719 371.305 85.1406C370.103 82.6094 369.847 79.4261 370.538 75.5909L379.972 18.5227Z" fill="white"/>
<path d="M39.0415 91.5455H21.2461L61.4009 13H82.8015L96.8384 91.5455H79.043L69.4933 30.9489H68.8796L39.0415 91.5455ZM43.1069 60.6719H85.141L82.9165 73.6349H40.8825L43.1069 60.6719Z" stroke="black" stroke-width="26" mask="url(#path-1-outside-1_4668_2583)"/>
<path d="M146.863 66.4631L152.501 32.6364H168.839L159.02 91.5455H143.334L145.099 80.8452H144.485C142.67 84.2969 140.023 87.071 136.546 89.1676C133.069 91.2642 129.119 92.3125 124.695 92.3125C120.758 92.3125 117.434 91.4176 114.724 89.6278C112.039 87.8381 110.134 85.294 109.009 81.9957C107.884 78.6974 107.692 74.7472 108.434 70.1449L114.724 32.6364H131.062L125.309 67.2301C124.772 70.7074 125.258 73.456 126.766 75.4759C128.275 77.4957 130.576 78.5057 133.67 78.5057C135.638 78.5057 137.543 78.0582 139.384 77.1634C141.251 76.2429 142.861 74.8878 144.217 73.098C145.572 71.3082 146.454 69.0966 146.863 66.4631Z" stroke="black" stroke-width="26" mask="url(#path-1-outside-1_4668_2583)"/>
<path d="M193.867 114.864C188.549 114.864 184.113 114.135 180.559 112.678C177.03 111.246 174.346 109.29 172.505 106.81C170.689 104.33 169.692 101.543 169.513 98.4489L185.008 96.4162C185.289 97.6179 185.826 98.7301 186.618 99.7528C187.437 100.776 188.6 101.594 190.108 102.207C191.643 102.821 193.624 103.128 196.053 103.128C199.607 103.128 202.701 102.259 205.334 100.52C207.968 98.8068 209.591 95.9304 210.205 91.8906L211.969 81.1136H211.279C210.307 82.75 208.978 84.2969 207.29 85.7543C205.628 87.2117 203.596 88.4006 201.192 89.321C198.814 90.2415 196.066 90.7017 192.947 90.7017C188.498 90.7017 184.637 89.679 181.364 87.6335C178.117 85.5625 175.765 82.4048 174.307 78.1605C172.876 73.8906 172.697 68.4957 173.77 61.9759C174.895 55.3026 176.915 49.7287 179.83 45.2543C182.745 40.7798 186.197 37.4304 190.185 35.206C194.174 32.9815 198.329 31.8693 202.65 31.8693C205.948 31.8693 208.607 32.4318 210.627 33.5568C212.672 34.6563 214.245 36.0369 215.344 37.6989C216.444 39.3352 217.224 40.946 217.684 42.5312H218.336L219.947 32.6364H236.17L226.275 92.1207C225.482 97.1577 223.577 101.351 220.56 104.7C217.569 108.075 213.772 110.607 209.17 112.294C204.567 114.007 199.466 114.864 193.867 114.864ZM200.003 78.429C202.611 78.429 204.951 77.777 207.022 76.473C209.118 75.1435 210.87 73.2514 212.276 70.7969C213.682 68.3168 214.667 65.3509 215.229 61.8992C215.792 58.4474 215.779 55.456 215.191 52.9247C214.628 50.3679 213.529 48.3864 211.893 46.9801C210.282 45.5739 208.16 44.8707 205.526 44.8707C202.816 44.8707 200.438 45.5994 198.393 47.0568C196.347 48.4886 194.647 50.483 193.292 53.0398C191.962 55.5966 191.029 58.5497 190.492 61.8992C189.929 65.2997 189.904 68.2401 190.415 70.7202C190.952 73.1747 192.013 75.0795 193.599 76.4347C195.184 77.7642 197.319 78.429 200.003 78.429Z" stroke="black" stroke-width="26" mask="url(#path-1-outside-1_4668_2583)"/>
<path d="M280.23 66.4631L285.868 32.6364H302.206L292.388 91.5455H276.702L278.466 80.8452H277.852C276.037 84.2969 273.391 87.071 269.913 89.1676C266.436 91.2642 262.486 92.3125 258.063 92.3125C254.125 92.3125 250.801 91.4176 248.091 89.6278C245.406 87.8381 243.501 85.294 242.376 81.9957C241.251 78.6974 241.06 74.7472 241.801 70.1449L248.091 32.6364H264.429L258.676 67.2301C258.139 70.7074 258.625 73.456 260.134 75.4759C261.642 77.4957 263.943 78.5057 267.037 78.5057C269.006 78.5057 270.911 78.0582 272.751 77.1634C274.618 76.2429 276.229 74.8878 277.584 73.098C278.939 71.3082 279.821 69.0966 280.23 66.4631Z" stroke="black" stroke-width="26" mask="url(#path-1-outside-1_4668_2583)"/>
<path d="M360.332 49.4347L345.49 50.3551C345.413 49.0511 345.055 47.8878 344.416 46.8651C343.803 45.8168 342.895 44.9858 341.693 44.3722C340.517 43.7585 339.034 43.4517 337.244 43.4517C334.56 43.4517 332.169 44.0653 330.072 45.2926C327.976 46.5199 326.787 48.0923 326.506 50.0099C326.276 51.2372 326.595 52.2727 327.464 53.1165C328.334 53.9602 330.085 54.6761 332.719 55.2642L343.074 57.4119C348.597 58.5881 352.585 60.544 355.04 63.2798C357.52 66.0156 358.402 69.5952 357.686 74.0185C357.047 77.777 355.398 81.0625 352.739 83.875C350.079 86.6619 346.704 88.8352 342.614 90.3949C338.523 91.929 333.984 92.696 328.999 92.696C320.996 92.696 314.91 91.0597 310.743 87.7869C306.575 84.5142 304.568 80.0781 304.722 74.4787L320.676 73.6349C320.804 76.0384 321.648 77.8537 323.207 79.081C324.767 80.2827 326.902 80.8963 329.612 80.9219C332.655 80.973 335.237 80.3466 337.359 79.0426C339.507 77.7131 340.722 76.1023 341.003 74.2102C341.207 72.8807 340.824 71.8068 339.852 70.9886C338.906 70.1705 337.168 69.4929 334.636 68.956L324.818 66.9233C319.244 65.7727 315.243 63.7145 312.814 60.7486C310.385 57.7827 309.554 54.0114 310.321 49.4347C310.935 45.7784 312.456 42.6463 314.885 40.0384C317.339 37.4048 320.497 35.3849 324.358 33.9787C328.244 32.5724 332.629 31.8693 337.513 31.8693C345.158 31.8693 350.91 33.4418 354.771 36.5866C358.658 39.7315 360.511 44.0142 360.332 49.4347Z" stroke="black" stroke-width="26" mask="url(#path-1-outside-1_4668_2583)"/>
<path d="M405.093 32.6364L403.06 44.9091H367.546L369.617 32.6364H405.093ZM379.972 18.5227H396.31L387.182 73.4432C386.927 74.9517 386.965 76.1278 387.297 76.9716C387.63 77.7898 388.18 78.3651 388.947 78.6974C389.739 79.0298 390.685 79.196 391.785 79.196C392.552 79.196 393.332 79.1321 394.124 79.0043C394.917 78.8509 395.518 78.7358 395.927 78.6591L396.54 90.8168C395.62 91.098 394.38 91.4048 392.82 91.7372C391.286 92.0696 389.471 92.2741 387.374 92.3509C383.386 92.5043 380.011 91.9801 377.249 90.7784C374.488 89.5511 372.506 87.6719 371.305 85.1406C370.103 82.6094 369.847 79.4261 370.538 75.5909L379.972 18.5227Z" stroke="black" stroke-width="26" mask="url(#path-1-outside-1_4668_2583)"/>
</g>
<defs>
<filter id="filter0_d_4668_2583" x="0" y="0" width="440.422" height="147.867" filterUnits="userSpaceOnUse" color-interpolation-filters="sRGB">
<feFlood flood-opacity="0" result="BackgroundImageFix"/>
<feColorMatrix in="SourceAlpha" type="matrix" values="0 0 0 0 0 0 0 0 0 0 0 0 0 0 0 0 0 0 127 0" result="hardAlpha"/>
<feOffset dx="16" dy="16"/>
<feGaussianBlur stdDeviation="2"/>
<feComposite in2="hardAlpha" operator="out"/>
<feColorMatrix type="matrix" values="0 0 0 0 0 0 0 0 0 0 0 0 0 0 0 0 0 0 0.25 0"/>
<feBlend mode="normal" in2="BackgroundImageFix" result="effect1_dropShadow_4668_2583"/>
<feBlend mode="normal" in="SourceGraphic" in2="effect1_dropShadow_4668_2583" result="shape"/>
</filter>
</defs>
</svg>
