<svg width="2720" height="596" viewBox="0 0 2720 596" fill="none" xmlns="http://www.w3.org/2000/svg">
<path d="M4 595L95.4636 437H418.534L510 595H4Z" fill="black"/>
<path d="M418.814 437L511 596H3L95.1831 437H418.814ZM5.34 594.653H508.66L418.037 438.347H95.96L5.34 594.653Z" fill="black"/>
<path d="M517 258C517 400.489 401.489 516 259 516C116.511 516 1 400.489 1 258C1 115.511 116.511 0 259 0C401.489 0 517 115.511 517 258Z" fill="white"/>
<path d="M499.44 258C499.44 125.209 391.791 17.5602 259 17.5602C126.209 17.5602 18.5602 125.209 18.5602 258C18.5602 390.791 126.209 498.44 259 498.44V516C116.511 516 1 400.489 1 258C1 115.511 116.511 0 259 0C401.489 0 517 115.511 517 258C517 400.489 401.489 516 259 516V498.44C391.791 498.44 499.44 390.791 499.44 258Z" fill="black"/>
<path d="M454.438 396.767C459.212 396.767 463.79 394.867 467.166 391.485C470.541 388.103 472.438 383.516 472.438 378.733C472.438 373.949 470.541 369.362 467.166 365.98C463.79 362.598 459.212 360.698 454.438 360.698V396.767ZM293.519 481.243C292.735 483.499 292.407 485.888 292.553 488.272C292.699 490.656 293.316 492.987 294.368 495.13C295.421 497.274 296.887 499.186 298.683 500.756C300.48 502.327 302.569 503.524 304.831 504.279C307.092 505.034 309.481 505.331 311.858 505.153C314.236 504.976 316.554 504.327 318.679 503.244C320.804 502.161 322.693 500.666 324.236 498.846C325.78 497.026 326.947 494.917 327.67 492.641L293.519 481.243ZM65.9517 360.698C61.1778 360.698 56.5995 362.598 53.2238 365.98C49.8482 369.362 47.9518 373.949 47.9518 378.733C47.9518 383.516 49.8482 388.103 53.2238 391.485C56.5995 394.867 61.1778 396.767 65.9517 396.767V360.698ZM192.695 492.641C194.25 497.119 197.503 500.804 201.749 502.897C205.996 504.991 210.894 505.324 215.384 503.826C219.874 502.327 223.595 499.117 225.74 494.891C227.885 490.664 228.283 485.761 226.847 481.243L192.695 492.641ZM103.344 101.236C102.109 96.6153 99.0925 92.6755 94.9584 90.2832C90.8244 87.8908 85.9112 87.2419 81.2996 88.4791C76.6881 89.7164 72.7559 92.7384 70.3682 96.8805C67.9805 101.023 67.3328 105.945 68.5677 110.566L103.344 101.236ZM9.04796 258.236C5.06655 260.876 2.29502 264.993 1.34309 269.68C0.391162 274.368 1.3368 279.243 3.97198 283.232C6.60716 287.221 10.716 289.998 15.3947 290.952C20.0733 291.905 24.9385 290.958 28.9199 288.318L9.04796 258.236ZM448.414 110.59C449.025 108.302 449.181 105.916 448.872 103.568C448.563 101.22 447.796 98.9555 446.613 96.9046C445.431 94.8536 443.857 93.0561 441.982 91.6146C440.106 90.1731 437.965 89.1158 435.682 88.5032C431.07 87.2659 426.157 87.9149 422.023 90.3072C419.976 91.4918 418.182 93.0687 416.743 94.948C415.305 96.8272 414.25 98.972 413.638 101.26L448.414 110.59ZM488.062 288.318C492.043 290.958 496.908 291.905 501.587 290.952C506.266 289.998 510.374 287.221 513.01 283.232C515.645 279.243 516.59 274.368 515.638 269.68C514.687 264.993 511.915 260.876 507.934 258.236L488.062 288.318ZM356.158 62.1843C359.987 59.4006 362.569 55.2183 363.344 50.5424C364.119 45.8664 363.026 41.0726 360.301 37.198C357.576 33.3234 353.437 30.6796 348.782 29.8384C344.126 28.9973 339.327 30.0264 335.422 32.7033L356.158 62.1843ZM176.783 27.5814C174.888 26.0969 172.716 25.0079 170.394 24.3788C168.072 23.7497 165.648 23.5932 163.265 23.9185C160.882 24.2439 158.588 25.0445 156.519 26.2731C154.45 27.5017 152.647 29.1333 151.218 31.0716C149.789 33.0098 148.762 35.2155 148.198 37.5581C147.633 39.9008 147.544 42.333 147.933 44.711C148.323 47.089 149.185 49.3647 150.467 51.4035C151.749 53.4423 153.426 55.203 155.399 56.5814L176.783 27.5814ZM479.446 258.5C479.446 381.378 380.158 480.93 257.735 480.93V517C400.078 517 515.446 401.24 515.446 258.5H479.446ZM257.735 480.93C135.287 480.93 35.9998 381.378 35.9998 258.5H0C0 401.24 115.367 517 257.735 517V480.93ZM35.9998 258.5C35.9998 135.622 135.287 36.0698 257.735 36.0698V0C115.367 0 0 115.76 0 258.5H35.9998ZM257.735 36.0698C380.134 36.0698 479.446 135.622 479.446 258.5H515.446C515.446 115.76 400.078 0 257.735 0V36.0698ZM261.335 211.85L305.423 245.611L327.286 216.972L283.199 183.186L261.335 211.85ZM307.511 252.176L290.183 308.372L324.598 319.001L341.878 262.804L307.511 252.176ZM284.471 312.605H230.951V348.674H284.471V312.605ZM225.263 308.372L207.935 252.176L173.543 262.804L190.847 319.001L225.263 308.372ZM209.999 245.611L254.087 211.826L232.223 183.186L188.135 216.972L209.999 245.611ZM454.438 360.698H415.678V396.767H454.438V360.698ZM307.631 438.801L293.519 481.243L327.67 492.641L341.758 450.199L307.631 438.801ZM415.678 360.698C399.406 360.698 385.654 360.674 374.494 361.948C362.878 363.271 352.198 366.18 342.526 373.178L363.598 402.442C366.478 400.35 370.414 398.715 378.598 397.777C387.238 396.816 398.566 396.767 415.678 396.767V360.698ZM341.758 450.199C347.182 433.943 350.758 423.171 354.454 415.259C357.91 407.757 360.718 404.51 363.598 402.442L342.526 373.178C332.83 380.199 326.711 389.409 321.791 400.062C317.039 410.282 312.767 423.339 307.631 438.801L341.758 450.199ZM65.9757 396.767H104.736V360.698H65.9517L65.9757 396.767ZM178.631 450.199L192.695 492.641L226.871 481.243L212.783 438.801L178.631 450.199ZM104.736 396.767C121.847 396.767 133.127 396.791 141.791 397.777C149.951 398.739 153.911 400.35 156.791 402.442L177.863 373.178C168.167 366.204 157.487 363.271 145.871 361.948C134.711 360.674 120.983 360.698 104.736 360.698V396.767ZM212.783 438.801C207.623 423.339 203.327 410.282 198.575 400.062C193.655 389.433 187.535 380.199 177.863 373.178L156.791 402.442C159.671 404.51 162.455 407.733 165.935 415.259C169.607 423.195 173.207 433.943 178.631 450.199L212.783 438.801ZM68.5677 110.566L78.5996 148.102L113.375 138.772L103.344 101.236L68.5677 110.566ZM46.2718 233.588L9.07196 258.211L28.9199 288.318L66.1197 263.646L46.2718 233.588ZM78.5996 148.102C83.0156 164.671 85.9196 175.636 87.2156 184.268C88.4156 192.444 87.8636 196.725 86.6156 200.043L120.287 212.836C124.511 201.63 124.535 190.569 122.807 178.954C121.151 167.821 117.575 154.523 113.375 138.772L78.5996 148.102ZM66.1197 263.646C79.7036 254.653 91.1516 247.102 99.7675 239.864C108.743 232.337 116.039 224.017 120.287 212.836L86.6156 200.043C85.3676 203.361 82.9676 206.92 76.6316 212.235C69.9597 217.837 60.5517 224.138 46.2718 233.588L66.1197 263.646ZM413.638 101.26L403.606 138.796L438.382 148.102L448.414 110.542L413.638 101.26ZM450.838 263.646L488.062 288.318L507.934 258.211L470.71 233.564L450.838 263.646ZM403.606 138.796C399.406 154.571 395.83 167.821 394.174 178.954C392.446 190.569 392.47 201.654 396.694 212.836L430.366 200.043C429.118 196.725 428.566 192.468 429.766 184.268C431.062 175.612 433.966 164.671 438.382 148.102L403.606 138.796ZM470.71 233.564C456.454 224.114 447.022 217.837 440.35 212.235C434.014 206.944 431.614 203.361 430.366 200.043L396.694 212.836C400.942 224.017 408.238 232.337 417.214 239.864C425.83 247.102 437.278 254.677 450.862 263.67L470.71 233.564ZM335.422 32.7033L303.743 55.1146L324.479 84.5716L356.158 62.1843L335.422 32.7033ZM212.663 54.1047L176.759 27.6054L155.399 56.6055L191.279 83.1288L212.663 54.1047ZM303.719 55.1146C289.751 64.9737 280.487 71.4903 272.855 75.6744C265.607 79.642 261.455 80.5799 257.927 80.5558L257.519 116.626C269.471 116.746 279.839 112.946 290.135 107.32C299.975 101.909 311.183 93.9738 324.454 84.5716L303.719 55.1146ZM191.279 83.1288C204.383 92.8195 215.399 100.995 225.119 106.622C235.271 112.466 245.591 116.481 257.519 116.626L257.927 80.5558C254.375 80.5077 250.247 79.4737 243.095 75.3618C235.535 71.0093 226.415 64.2763 212.663 54.1047L191.279 83.1288ZM305.423 245.611C306.414 246.371 307.144 247.422 307.511 248.617L341.902 237.964C339.324 229.616 334.216 222.279 327.286 216.972L305.423 245.611ZM307.511 248.617C307.869 249.776 307.869 251.017 307.511 252.176L341.902 262.804C344.397 254.713 344.397 246.056 341.902 237.964L307.511 248.617ZM406.63 189.775L317.831 226.638L331.582 259.967L420.43 223.104L406.63 189.775ZM283.199 183.186C275.88 177.578 266.924 174.536 257.711 174.53V210.599C259.026 210.589 260.305 211.031 261.335 211.85L283.199 183.186ZM257.711 174.53C248.759 174.53 239.759 177.415 232.247 183.186L254.087 211.826C255.139 211.035 256.42 210.613 257.735 210.623L257.711 174.53ZM275.711 192.564V98.5907H239.711V192.564H275.711ZM290.183 308.372C289.826 309.541 289.123 310.572 288.167 311.33L310.439 339.657C317.143 334.372 322.082 327.167 324.598 319.001L290.183 308.372ZM288.167 311.33C287.118 312.151 285.826 312.6 284.495 312.605V348.674C294.143 348.674 303.215 345.356 310.439 339.657L288.167 311.33ZM366.694 376.015L312.935 313.687L285.695 337.3L339.454 399.605L366.694 376.015ZM230.951 312.605C229.62 312.6 228.328 312.151 227.279 311.33L205.007 339.657C212.207 345.356 221.303 348.674 230.951 348.674V312.605ZM227.279 311.33C226.323 310.572 225.619 309.541 225.263 308.372L190.847 319.001C193.439 327.393 198.455 334.511 205.007 339.681L227.279 311.33ZM181.439 398.932L230.303 336.603L201.983 314.336L153.143 376.641L181.439 398.932ZM207.935 252.152C207.577 250.993 207.577 249.776 207.935 248.617L173.543 237.94C171.049 246.032 171.049 254.713 173.543 262.804L207.935 252.152ZM207.935 248.617C208.302 247.422 209.032 246.347 210.023 245.587L188.159 216.972C181.226 222.285 176.117 229.583 173.543 237.94L207.935 248.617ZM197.735 226.662L110.447 189.823L96.4556 223.055L183.743 259.919L197.735 226.662Z" fill="black"/>
<path d="M626.529 414.816L663.542 191.768H752.806C769.207 191.768 782.488 194.2 792.648 199.065C802.881 203.93 810.029 210.682 814.094 219.322C818.158 227.89 819.246 237.764 817.359 248.946C815.835 257.659 812.751 265.282 808.106 271.817C803.534 278.352 797.874 283.724 791.124 287.936C784.375 292.147 777.045 295.124 769.135 296.866L768.699 299.044C777.118 299.407 784.702 301.803 791.451 306.232C798.2 310.589 803.244 316.76 806.582 324.747C809.921 332.734 810.683 342.209 808.868 353.173C806.909 365.008 802.228 375.572 794.825 384.866C787.423 394.087 777.553 401.384 765.216 406.757C752.951 412.129 738.473 414.816 721.781 414.816H626.529ZM680.197 376.262H718.624C731.687 376.262 741.666 373.721 748.56 368.638C755.455 363.556 759.591 356.839 760.97 348.49C761.914 342.318 761.297 336.873 759.12 332.153C757.015 327.434 753.423 323.731 748.343 321.044C743.335 318.358 736.985 317.015 729.292 317.015H689.885L680.197 376.262ZM695.328 285.104H730.272C736.658 285.104 742.573 283.979 748.016 281.728C753.532 279.404 758.067 276.137 761.623 271.926C765.252 267.642 767.538 262.596 768.482 256.787C769.788 248.655 767.974 242.157 763.039 237.292C758.176 232.355 750.556 229.886 740.178 229.886H704.473L695.328 285.104Z" fill="white"/>
<path d="M901.027 418.083C883.973 418.083 869.857 414.453 858.681 407.192C847.505 399.859 839.631 389.694 835.059 376.697C830.559 363.628 829.725 348.417 832.555 331.064C835.313 313.929 841.046 298.936 849.755 286.084C858.463 273.233 869.531 263.249 882.957 256.134C896.383 248.946 911.514 245.352 928.351 245.352C945.333 245.352 959.412 249.018 970.588 256.352C981.764 263.612 989.638 273.777 994.211 286.846C998.783 299.916 999.653 315.127 996.823 332.48C993.993 349.542 988.187 364.499 979.406 377.351C970.624 390.202 959.557 400.222 946.204 407.41C932.85 414.526 917.792 418.083 901.027 418.083ZM905.599 382.143C913.437 382.143 920.368 379.928 926.391 375.499C932.487 370.998 937.531 364.899 941.523 357.202C945.587 349.434 948.417 340.648 950.014 330.846C951.61 321.189 951.719 312.622 950.34 305.143C948.961 297.592 946.059 291.639 941.632 287.282C937.277 282.926 931.29 280.748 923.67 280.748C915.832 280.748 908.865 282.998 902.769 287.5C896.673 291.929 891.629 298.028 887.638 305.797C883.646 313.566 880.852 322.388 879.255 332.262C877.731 341.846 877.623 350.414 878.929 357.965C880.235 365.443 883.102 371.361 887.529 375.717C891.956 380.001 897.979 382.143 905.599 382.143Z" fill="white"/>
<path d="M1010.2 414.816L1038.06 247.53H1083.02L1078.12 276.718H1079.87C1084.65 266.335 1091.08 258.494 1099.13 253.193C1107.26 247.82 1116.01 245.134 1125.37 245.134C1127.69 245.134 1130.12 245.279 1132.66 245.57C1135.27 245.787 1137.6 246.15 1139.63 246.659L1132.66 287.936C1130.63 287.21 1127.73 286.629 1123.95 286.193C1120.25 285.685 1116.73 285.431 1113.39 285.431C1106.64 285.431 1100.37 286.919 1094.56 289.896C1088.76 292.8 1083.86 296.866 1079.87 302.094C1075.95 307.322 1073.37 313.348 1072.14 320.173L1056.57 414.816H1010.2Z" fill="white"/>
<path d="M1200.55 418.083C1183.49 418.083 1169.38 414.453 1158.2 407.192C1147.02 399.859 1139.15 389.694 1134.58 376.697C1130.08 363.628 1129.24 348.417 1132.07 331.064C1134.83 313.929 1140.56 298.936 1149.27 286.084C1157.98 273.233 1169.05 263.249 1182.47 256.134C1195.9 248.946 1211.03 245.352 1227.87 245.352C1244.85 245.352 1258.93 249.018 1270.11 256.352C1281.28 263.612 1289.16 273.777 1293.73 286.846C1298.3 299.916 1299.17 315.127 1296.34 332.48C1293.51 349.542 1287.7 364.499 1278.92 377.351C1270.14 390.202 1259.07 400.222 1245.72 407.41C1232.37 414.526 1217.31 418.083 1200.55 418.083ZM1205.12 382.143C1212.96 382.143 1219.89 379.928 1225.91 375.499C1232.01 370.998 1237.05 364.899 1241.04 357.202C1245.1 349.434 1247.94 340.648 1249.53 330.846C1251.13 321.189 1251.24 312.622 1249.86 305.143C1248.48 297.592 1245.58 291.639 1241.15 287.282C1236.8 282.926 1230.81 280.748 1223.19 280.748C1215.35 280.748 1208.38 282.998 1202.29 287.5C1196.19 291.929 1191.15 298.028 1187.16 305.797C1183.16 313.566 1180.37 322.388 1178.77 332.262C1177.25 341.846 1177.14 350.414 1178.45 357.965C1179.75 365.443 1182.62 371.361 1187.05 375.717C1191.47 380.001 1197.5 382.143 1205.12 382.143Z" fill="white"/>
<path d="M1310.58 414.816L1347.6 191.768H1435.55C1452.39 191.768 1466.22 194.999 1477.03 201.461C1487.92 207.85 1495.54 216.745 1499.89 228.144C1504.32 239.471 1505.33 252.54 1502.94 267.352C1500.47 282.236 1495.1 295.341 1486.83 306.668C1478.63 317.922 1467.96 326.708 1454.82 333.024C1441.69 339.341 1426.52 342.5 1409.32 342.5H1353.26L1359.46 304.708H1407.9C1417.05 304.708 1424.85 303.147 1431.31 300.025C1437.84 296.83 1443.03 292.437 1446.88 286.846C1450.72 281.183 1453.23 274.685 1454.39 267.352C1455.62 259.873 1455.22 253.375 1453.19 247.857C1451.16 242.339 1447.42 238.055 1441.98 235.005C1436.61 231.883 1429.39 230.322 1420.31 230.322H1388.53L1357.72 414.816H1310.58Z" fill="white"/>
<path d="M1505.12 414.816L1532.99 247.53H1577.95L1573.05 276.718H1574.79C1579.58 266.335 1586.01 258.494 1594.06 253.193C1602.19 247.82 1610.94 245.134 1620.3 245.134C1622.62 245.134 1625.05 245.279 1627.59 245.57C1630.2 245.787 1632.53 246.15 1634.56 246.659L1627.59 287.936C1625.56 287.21 1622.66 286.629 1618.88 286.193C1615.18 285.685 1611.66 285.431 1608.32 285.431C1601.57 285.431 1595.3 286.919 1589.49 289.896C1583.68 292.8 1578.79 296.866 1574.79 302.094C1570.88 307.322 1568.3 313.348 1567.07 320.173L1551.5 414.816H1505.12Z" fill="white"/>
<path d="M1695.47 418.083C1678.35 418.083 1664.16 414.598 1652.91 407.628C1641.66 400.585 1633.75 390.638 1629.18 377.786C1624.68 364.862 1623.92 349.579 1626.89 331.935C1629.8 314.728 1635.64 299.625 1644.42 286.629C1653.27 273.632 1664.38 263.503 1677.73 256.243C1691.08 248.982 1705.96 245.352 1722.36 245.352C1733.39 245.352 1743.37 247.131 1752.3 250.688C1761.3 254.173 1768.77 259.474 1774.72 266.589C1780.67 273.632 1784.74 282.454 1786.92 293.054C1789.17 303.655 1789.13 316.071 1786.81 330.302L1784.74 343.044H1643.66L1648.12 314.292H1745.66C1746.75 307.612 1746.31 301.695 1744.35 296.54C1742.39 291.384 1739.13 287.355 1734.55 284.45C1729.98 281.474 1724.36 279.985 1717.68 279.985C1710.86 279.985 1704.47 281.655 1698.52 284.995C1692.57 288.335 1687.56 292.728 1683.5 298.173C1679.51 303.546 1676.93 309.391 1675.77 315.708L1670.65 344.242C1669.2 353.028 1669.49 360.325 1671.53 366.133C1673.63 371.942 1677.26 376.298 1682.41 379.202C1687.56 382.034 1694.1 383.45 1702.01 383.45C1707.16 383.45 1711.98 382.724 1716.48 381.272C1721.06 379.819 1725.12 377.678 1728.68 374.846C1732.23 371.942 1735.14 368.348 1737.39 364.064L1779.73 366.895C1775.81 377.206 1769.86 386.209 1761.88 393.905C1753.9 401.529 1744.28 407.483 1733.03 411.766C1721.85 415.978 1709.34 418.083 1695.47 418.083Z" fill="white"/>
<path d="M1861.55 417.539C1848.78 417.539 1837.78 414.271 1828.56 407.737C1819.42 401.13 1812.89 391.437 1808.97 378.658C1805.12 365.806 1804.76 350.051 1807.88 331.391C1811.07 312.223 1816.81 296.285 1825.08 283.579C1833.35 270.8 1843.15 261.253 1854.47 254.936C1865.79 248.546 1877.59 245.352 1889.85 245.352C1899.14 245.352 1906.65 246.949 1912.39 250.144C1918.19 253.266 1922.66 257.187 1925.78 261.906C1928.9 266.553 1931.07 271.127 1932.31 275.629H1933.72L1947.77 191.768H1994.03L1957.02 414.816H1911.3L1915.76 388.024H1913.8C1910.9 392.671 1907.05 397.281 1902.26 401.856C1897.54 406.357 1891.81 410.096 1885.06 413.073C1878.39 416.05 1870.55 417.539 1861.55 417.539ZM1882.01 380.618C1889.42 380.618 1896.09 378.585 1902.04 374.519C1908 370.381 1913 364.608 1917.07 357.202C1921.13 349.797 1923.96 341.12 1925.56 331.173C1927.23 321.226 1927.26 312.586 1925.67 305.252C1924.07 297.919 1920.95 292.256 1916.3 288.262C1911.73 284.269 1905.67 282.272 1898.13 282.272C1890.51 282.272 1883.76 284.342 1877.88 288.48C1872.07 292.619 1867.25 298.355 1863.4 305.688C1859.63 313.021 1856.94 321.516 1855.34 331.173C1853.75 340.902 1853.64 349.506 1855.02 356.985C1856.4 364.391 1859.34 370.199 1863.83 374.41C1868.33 378.549 1874.39 380.618 1882.01 380.618Z" fill="white"/>
<path d="M1991.97 414.816L2019.84 247.53H2066.21L2038.35 414.816H1991.97ZM2047.82 225.748C2040.92 225.748 2035.22 223.461 2030.73 218.887C2026.3 214.24 2024.48 208.722 2025.28 202.332C2026.08 195.798 2029.2 190.279 2034.64 185.778C2040.09 181.204 2046.26 178.917 2053.15 178.917C2060.04 178.917 2065.67 181.204 2070.02 185.778C2074.38 190.279 2076.19 195.798 2075.47 202.332C2074.74 208.722 2071.66 214.24 2066.21 218.887C2060.84 223.461 2054.71 225.748 2047.82 225.748Z" fill="white"/>
<path d="M2147.54 418.083C2130.34 418.083 2116.19 414.453 2105.09 407.192C2094.06 399.859 2086.33 389.694 2081.9 376.697C2077.54 363.701 2076.78 348.744 2079.61 331.826C2082.37 314.691 2088.14 299.662 2096.92 286.738C2105.7 273.741 2116.84 263.612 2130.34 256.352C2143.91 249.018 2159.15 245.352 2176.06 245.352C2190.65 245.352 2202.99 248.002 2213.07 253.302C2223.16 258.602 2230.56 266.045 2235.28 275.629C2240 285.213 2241.6 296.467 2240.07 309.391H2196.42C2196.49 301.114 2194.35 294.398 2190 289.243C2185.64 284.087 2179.26 281.51 2170.84 281.51C2163.58 281.51 2156.9 283.47 2150.81 287.391C2144.78 291.239 2139.67 296.866 2135.46 304.272C2131.32 311.678 2128.42 320.645 2126.75 331.173C2125.01 341.846 2124.97 350.922 2126.64 358.4C2128.31 365.879 2131.5 371.579 2136.22 375.499C2140.94 379.42 2146.89 381.381 2154.07 381.381C2159.44 381.381 2164.41 380.291 2168.99 378.113C2173.63 375.935 2177.69 372.777 2181.18 368.638C2184.66 364.427 2187.35 359.381 2189.23 353.5H2233C2230.02 366.351 2224.61 377.605 2216.78 387.262C2209.01 396.918 2199.25 404.469 2187.49 409.915C2175.74 415.36 2162.42 418.083 2147.54 418.083Z" fill="white"/>
<path d="M2366.09 247.53L2360.32 282.381H2259.51L2265.39 247.53H2366.09ZM2294.78 207.451H2341.16L2315.25 363.41C2314.52 367.694 2314.63 371.034 2315.57 373.43C2316.52 375.753 2318.08 377.387 2320.26 378.331C2322.51 379.275 2325.19 379.747 2328.31 379.747C2330.49 379.747 2332.7 379.565 2334.95 379.202C2337.2 378.767 2338.91 378.44 2340.07 378.222L2341.81 412.747C2339.2 413.545 2335.68 414.417 2331.25 415.36C2326.9 416.304 2321.74 416.885 2315.79 417.103C2304.47 417.539 2294.89 416.05 2287.05 412.638C2279.22 409.153 2273.59 403.816 2270.18 396.628C2266.77 389.44 2266.04 380.4 2268 369.509L2294.78 207.451Z" fill="white"/>
<path d="M2439.33 418.083C2422.28 418.083 2408.16 414.453 2396.98 407.192C2385.81 399.859 2377.93 389.694 2373.36 376.697C2368.86 363.628 2368.03 348.417 2370.86 331.064C2373.62 313.929 2379.35 298.936 2388.06 286.084C2396.77 273.233 2407.83 263.249 2421.26 256.134C2434.69 248.946 2449.82 245.352 2466.65 245.352C2483.64 245.352 2497.71 249.018 2508.89 256.352C2520.07 263.612 2527.94 273.777 2532.51 286.846C2537.09 299.916 2537.96 315.127 2535.13 332.48C2532.3 349.542 2526.49 364.499 2517.71 377.351C2508.93 390.202 2497.86 400.222 2484.51 407.41C2471.15 414.526 2456.09 418.083 2439.33 418.083ZM2443.9 382.143C2451.74 382.143 2458.67 379.928 2464.69 375.499C2470.79 370.998 2475.83 364.899 2479.83 357.202C2483.89 349.434 2486.72 340.648 2488.32 330.846C2489.91 321.189 2490.02 312.622 2488.64 305.143C2487.26 297.592 2484.36 291.639 2479.93 287.282C2475.58 282.926 2469.59 280.748 2461.97 280.748C2454.13 280.748 2447.17 282.998 2441.07 287.5C2434.98 291.929 2429.93 298.028 2425.94 305.797C2421.95 313.566 2419.15 322.388 2417.56 332.262C2416.03 341.846 2415.93 350.414 2417.23 357.965C2418.54 365.443 2421.4 371.361 2425.83 375.717C2430.26 380.001 2436.28 382.143 2443.9 382.143Z" fill="white"/>
<path d="M2548.5 414.816L2576.37 247.53H2621.32L2616.43 276.718H2618.17C2622.96 266.335 2629.38 258.494 2637.44 253.193C2645.56 247.82 2654.31 245.134 2663.67 245.134C2665.99 245.134 2668.42 245.279 2670.96 245.57C2673.58 245.787 2675.9 246.15 2677.93 246.659L2670.96 287.936C2668.93 287.21 2666.03 286.629 2662.26 286.193C2658.55 285.685 2655.03 285.431 2651.7 285.431C2644.95 285.431 2638.67 286.919 2632.86 289.896C2627.06 292.8 2622.16 296.866 2618.17 302.094C2614.25 307.322 2611.67 313.348 2610.44 320.173L2594.87 414.816H2548.5Z" fill="white"/>
<path d="M2054.65 142.017C2070 142.362 2084.94 148.044 2096.54 160.109L2096.54 160.106C2096.57 160.14 2096.6 160.177 2096.64 160.211C2096.67 160.248 2096.71 160.283 2096.74 160.32L2096.74 160.322C2109.02 173.14 2114 189.656 2112.14 206.41L2112.13 206.454L2112.13 206.501C2111.43 212.622 2109.87 218.336 2107.6 223.612L2107.01 227.184C2108.9 226.035 2110.84 224.93 2112.8 223.87C2132.27 213.352 2153.63 208.434 2176.06 208.434C2195 208.434 2213.57 211.869 2230.23 220.62C2230.93 220.988 2231.63 221.367 2232.32 221.751L2234.2 210.614H2256.86L2263.48 170.533H2384.69L2378.04 210.614H2409.6L2407.78 221.568C2426.04 212.61 2445.9 208.434 2466.65 208.434C2488.83 208.434 2510.39 213.237 2528.98 225.389C2533.33 228.212 2537.37 231.321 2541.09 234.688L2545.11 210.614H2643.76C2650.18 209.034 2656.83 208.218 2663.67 208.218C2667.24 208.218 2670.79 208.431 2674.31 208.806C2678.35 209.155 2682.61 209.775 2686.88 210.844L2720 219.128L2700.02 337.517L2659.64 323.088C2659.56 323.075 2659.47 323.06 2659.37 323.044C2659.03 322.992 2658.58 322.931 2658.03 322.867L2657.63 322.819L2657.24 322.767C2655.01 322.46 2653.17 322.348 2651.7 322.348C2650.59 322.348 2650.11 322.538 2649.69 322.75L2649.53 322.833L2649.36 322.916C2648.7 323.25 2648.19 323.634 2647.62 324.353C2647.36 324.712 2647.02 325.32 2646.77 326.63L2626.19 451.733H2504.94L2507.42 436.825C2505.64 437.894 2503.83 438.928 2501.99 439.919L2501.92 439.956L2501.85 439.994C2482.6 450.252 2461.48 455 2439.33 455C2418.17 455 2397.56 450.686 2379.54 439.811L2352.59 448.053C2348.52 449.298 2343.83 450.425 2338.94 451.467L2338.94 451.461C2331.94 452.968 2324.59 453.717 2317.21 453.991C2317.19 453.991 2317.16 453.995 2317.14 453.996L2317.14 453.993C2302.02 454.567 2286.6 452.704 2272.33 446.489L2272.07 446.373C2258.49 440.333 2247.06 430.643 2239.43 417.385C2229.09 428.325 2216.83 437.006 2202.99 443.416C2185.71 451.423 2166.98 455 2147.54 455C2125.27 455 2103.55 450.29 2084.9 438.095L2084.66 437.939C2080.63 435.255 2076.86 432.324 2073.36 429.165L2069.6 451.733H1885.48C1877.59 453.638 1869.54 454.456 1861.55 454.456C1842.17 454.456 1823.48 449.377 1807.23 437.856L1807.09 437.762L1806.96 437.665C1799.71 432.425 1793.6 426.27 1788.54 419.44C1788.19 419.788 1787.84 420.143 1787.48 420.488L1787.36 420.61C1775.51 431.927 1761.58 440.393 1746.16 446.267L1746.1 446.292L1746.04 446.314C1730.09 452.322 1713.08 455 1695.47 455C1673.47 455 1652.05 450.519 1633.48 439.013L1633.41 438.968L1633.34 438.921C1614.83 427.336 1601.69 410.621 1594.42 390.166L1594.38 390.047L1594.33 389.93C1594.02 389.028 1593.72 388.121 1593.43 387.212L1582.82 451.733H1461.57L1476.26 363.51C1474.47 364.476 1472.66 365.409 1470.81 366.297C1451.86 375.407 1431.06 379.417 1409.32 379.417H1401.04L1388.97 451.733H1267.05L1269.63 436.223C1267.53 437.508 1265.39 438.743 1263.2 439.919L1263.14 439.956L1263.07 439.994C1243.82 450.252 1222.69 455 1200.55 455C1178.34 455 1156.73 450.254 1138.1 438.153L1138.03 438.109L1137.96 438.061C1119.8 426.146 1106.94 409.335 1099.77 388.954L1099.69 388.721C1099.35 387.752 1099.04 386.777 1098.73 385.801L1087.89 451.733H966.638L969.119 436.825C967.339 437.894 965.529 438.928 963.686 439.919L963.62 439.956L963.55 439.994C944.3 450.252 923.176 455 901.028 455C878.819 455 857.212 450.254 838.586 438.153L838.514 438.109L838.445 438.061C829.476 432.177 821.8 425.096 815.463 416.983C805.306 426.997 793.295 434.778 780.014 440.571C762.083 448.426 742.349 451.733 721.782 451.733H583L632.264 154.851H752.805L752.806 191.768H663.542L626.529 414.816H721.781L724.884 414.783C740.273 414.469 753.718 411.793 765.216 406.757C776.782 401.72 786.178 394.991 793.407 386.572L794.825 384.866C802.228 375.572 806.909 365.008 808.868 353.173C810.683 342.209 809.921 332.734 806.582 324.747C803.244 316.76 798.2 310.589 791.451 306.232C784.702 301.803 777.118 299.407 768.699 299.044L769.135 296.866C777.045 295.124 784.375 292.147 791.124 287.936C797.874 283.724 803.534 278.352 808.106 271.817C812.751 265.282 815.835 257.659 817.359 248.946C819.128 238.463 818.281 229.129 814.82 220.944L814.094 219.322C810.029 210.682 802.881 203.93 792.648 199.065C782.488 194.2 769.207 191.768 752.806 191.768L752.805 154.851C772.362 154.851 791.634 157.68 808.484 165.725L808.486 165.722C824.925 173.537 839.13 185.849 847.481 203.603C851.539 212.192 853.842 221.08 854.727 230.026C858.229 227.704 861.862 225.538 865.628 223.54C884.936 213.221 906.125 208.434 928.35 208.434C950.531 208.434 972.089 213.237 990.681 225.389C990.729 225.42 990.779 225.45 990.826 225.481C995.117 228.279 999.102 231.357 1002.79 234.688L1006.81 210.614H1105.46C1111.88 209.034 1118.53 208.218 1125.37 208.218C1128.94 208.218 1132.49 208.431 1136 208.806C1140.05 209.155 1144.3 209.775 1148.58 210.844L1177.06 217.966C1193.05 211.487 1210.13 208.434 1227.87 208.434C1250.05 208.434 1271.61 213.237 1290.2 225.389C1290.25 225.42 1290.3 225.45 1290.34 225.481C1294.89 228.445 1299.1 231.72 1302.97 235.281L1316.32 154.851H1435.55L1435.55 191.768H1347.6L1310.58 414.816H1357.72L1369.8 342.501L1409.32 342.5L1412.52 342.462C1427.88 342.104 1441.57 339.152 1453.58 333.607L1454.82 333.024C1467.96 326.708 1478.63 317.922 1486.83 306.668C1495.1 295.341 1500.47 282.236 1502.94 267.352C1505.33 252.54 1504.32 239.471 1499.89 228.144C1495.54 216.745 1487.92 207.85 1477.03 201.461C1466.22 194.999 1452.39 191.768 1435.55 191.768L1435.55 154.851C1456.88 154.851 1477.8 158.922 1495.95 169.768L1495.95 169.773C1512.32 179.45 1524.89 193.241 1532.56 210.614H1600.39C1606.81 209.034 1613.46 208.218 1620.3 208.218C1623.86 208.218 1627.41 208.429 1630.93 208.803C1634.97 209.152 1639.23 209.774 1643.51 210.844L1672.25 218.032C1688.04 211.544 1704.87 208.434 1722.36 208.434C1737.26 208.434 1751.85 210.831 1765.62 216.263L1765.62 216.26C1780.14 221.882 1792.8 230.727 1802.9 242.755C1804.13 244.207 1805.3 245.693 1806.41 247.203C1815.01 237.44 1824.98 229.131 1836.44 222.73C1852.92 213.445 1870.89 208.434 1889.85 208.434C1895.51 208.434 1901.4 208.844 1907.31 209.893L1916.53 154.851H2014.28C2025.48 146.559 2038.76 142 2053.15 142L2054.65 142.017ZM2466.65 245.352C2449.82 245.352 2434.69 248.946 2421.26 256.134C2407.83 263.249 2396.77 273.233 2388.06 286.084C2379.35 298.936 2373.62 313.929 2370.86 331.064C2368.03 348.417 2368.86 363.628 2373.36 376.697C2377.93 389.694 2385.81 399.859 2396.98 407.192L2398.04 407.862C2409.05 414.675 2422.81 418.083 2439.33 418.083C2455.57 418.083 2470.21 414.744 2483.25 408.067L2484.51 407.41C2497.86 400.222 2508.93 390.202 2517.71 377.351C2526.49 364.499 2532.3 349.542 2535.13 332.48C2537.96 315.127 2537.09 299.916 2532.51 286.846C2528.08 274.186 2520.56 264.249 2509.93 257.04L2508.89 256.352C2497.71 249.018 2483.64 245.352 2466.65 245.352ZM2019.84 247.53L1991.97 414.816H2038.35L2066.21 247.53H2019.84ZM928.351 245.352C911.514 245.352 896.383 248.946 882.957 256.134C869.531 263.249 858.463 273.233 849.755 286.084C841.046 298.936 835.313 313.929 832.555 331.064C829.725 348.417 830.559 363.628 835.059 376.697C839.631 389.694 847.505 399.859 858.681 407.192C869.857 414.453 883.973 418.083 901.027 418.083C917.267 418.083 931.907 414.744 944.946 408.067L946.204 407.41C959.557 400.222 970.624 390.202 979.406 377.351C988.187 364.499 993.993 349.542 996.823 332.48C999.653 315.127 998.783 299.916 994.211 286.846C989.781 274.186 982.254 264.249 971.628 257.04L970.588 256.352C959.412 249.018 945.333 245.352 928.351 245.352ZM1227.87 245.352C1211.03 245.352 1195.9 248.946 1182.47 256.134L1181.22 256.809C1168.36 263.876 1157.71 273.634 1149.27 286.084C1140.56 298.936 1134.83 313.929 1132.07 331.064C1129.24 348.417 1130.08 363.628 1134.58 376.697C1139.15 389.694 1147.02 399.859 1158.2 407.192C1169.38 414.453 1183.49 418.083 1200.55 418.083C1217.31 418.083 1232.37 414.526 1245.72 407.41C1258.24 400.671 1268.75 391.444 1277.25 379.728L1278.92 377.351C1287.7 364.499 1293.51 349.542 1296.34 332.48C1299.17 315.127 1298.3 299.916 1293.73 286.846C1289.3 274.186 1281.77 264.249 1271.15 257.04L1270.11 256.352C1258.93 249.018 1244.85 245.352 1227.87 245.352ZM1722.36 245.352C1705.96 245.352 1691.08 248.982 1677.73 256.243C1664.38 263.503 1653.27 273.632 1644.42 286.629C1635.64 299.625 1629.8 314.728 1626.89 331.935C1623.92 349.579 1624.68 364.862 1629.18 377.786C1633.75 390.638 1641.66 400.585 1652.91 407.628C1664.16 414.598 1678.35 418.083 1695.47 418.083C1709.34 418.083 1721.85 415.978 1733.03 411.766C1744.28 407.483 1753.9 401.529 1761.88 393.905C1769.86 386.209 1775.81 377.206 1779.73 366.895L1737.39 364.064C1735.14 368.348 1732.23 371.942 1728.68 374.846C1725.12 377.678 1721.06 379.819 1716.48 381.272C1711.98 382.724 1707.16 383.45 1702.01 383.45C1694.1 383.45 1687.56 382.034 1682.41 379.202C1677.26 376.298 1673.63 371.942 1671.53 366.133C1669.49 360.325 1669.2 353.028 1670.65 344.242L1670.87 343.044H1784.74L1786.81 330.302C1789.13 316.071 1789.17 303.655 1786.92 293.054C1784.87 283.116 1781.18 274.741 1775.82 267.93L1774.72 266.589C1769.15 259.919 1762.23 254.843 1753.97 251.363L1752.3 250.688C1743.37 247.131 1733.39 245.352 1722.36 245.352ZM2176.06 245.352C2159.15 245.352 2143.91 249.018 2130.34 256.352L2129.08 257.04C2116.15 264.247 2105.43 274.147 2096.92 286.738C2088.14 299.662 2082.37 314.691 2079.61 331.826C2076.78 348.744 2077.54 363.701 2081.9 376.697C2086.33 389.694 2094.06 399.859 2105.09 407.192C2115.84 414.226 2129.46 417.852 2145.94 418.072L2147.54 418.083C2162.42 418.083 2175.74 415.36 2187.49 409.915C2199.25 404.469 2209.01 396.918 2216.78 387.262C2224.61 377.605 2230.02 366.351 2233 353.5H2189.23C2187.35 359.381 2184.66 364.427 2181.18 368.638C2177.69 372.777 2173.63 375.935 2168.99 378.113C2164.41 380.291 2159.44 381.381 2154.07 381.381C2146.89 381.381 2140.94 379.42 2136.22 375.499C2131.5 371.579 2128.31 365.879 2126.64 358.4C2124.97 350.922 2125.01 341.846 2126.75 331.173C2128.42 320.645 2131.32 311.678 2135.46 304.272C2139.4 297.329 2144.15 291.949 2149.69 288.132L2150.81 287.391C2156.9 283.47 2163.58 281.51 2170.84 281.51C2179.26 281.51 2185.64 284.087 2190 289.243C2194.35 294.398 2196.49 301.114 2196.42 309.391H2240.07C2241.6 296.467 2240 285.213 2235.28 275.629C2230.86 266.644 2224.08 259.542 2214.93 254.322L2213.07 253.302C2202.99 248.002 2190.65 245.352 2176.06 245.352ZM1947.77 191.768L1933.72 275.629H1932.31C1931.07 271.127 1928.9 266.553 1925.78 261.906C1922.66 257.187 1918.19 253.266 1912.39 250.144C1906.65 246.949 1899.14 245.352 1889.85 245.352C1877.59 245.352 1865.79 248.546 1854.47 254.936C1843.15 261.253 1833.35 270.8 1825.08 283.579L1824.31 284.78C1816.45 297.285 1810.97 312.821 1807.88 331.391C1804.76 350.051 1805.12 365.806 1808.97 378.658C1812.89 391.437 1819.42 401.13 1828.56 407.737C1837.21 413.863 1847.41 417.118 1859.18 417.501L1861.55 417.539C1870.55 417.539 1878.39 416.05 1885.06 413.073C1891.81 410.096 1897.54 406.357 1902.26 401.856C1907.05 397.281 1910.9 392.671 1913.8 388.024H1915.76L1911.3 414.816H1957.02L1994.03 191.768H1947.77ZM2294.78 207.451L2288.16 247.53L2265.39 247.53L2259.51 282.381L2282.4 282.381L2268 369.509C2266.04 380.4 2266.77 389.44 2270.18 396.628C2273.59 403.816 2279.22 409.153 2287.05 412.638C2294.89 416.05 2304.47 417.539 2315.79 417.103C2321.74 416.885 2326.9 416.304 2331.25 415.36C2335.68 414.417 2339.2 413.545 2341.81 412.747L2340.07 378.222C2338.91 378.44 2337.2 378.767 2334.95 379.202C2332.7 379.565 2330.49 379.747 2328.31 379.747C2325.19 379.747 2322.51 379.275 2320.26 378.331C2318.08 377.387 2316.52 375.753 2315.57 373.43C2314.75 371.333 2314.56 368.514 2315.02 364.972L2315.25 363.41L2328.71 282.381L2360.32 282.381L2366.09 247.53L2334.5 247.53L2341.16 207.451H2294.78ZM1125.37 245.134C1116.01 245.134 1107.26 247.82 1099.13 253.193C1091.08 258.494 1084.65 266.335 1079.87 276.718H1078.12L1083.02 247.53H1038.06L1010.2 414.816H1056.57L1072.14 320.173C1073.37 313.348 1075.95 307.322 1079.87 302.094C1083.86 296.866 1088.76 292.8 1094.56 289.896C1100.37 286.919 1106.64 285.431 1113.39 285.431C1116.73 285.431 1120.25 285.685 1123.95 286.193C1127.73 286.629 1130.63 287.21 1132.66 287.936L1139.63 246.659C1137.6 246.15 1135.27 245.787 1132.66 245.57C1130.12 245.279 1127.69 245.134 1125.37 245.134ZM1620.3 245.134C1610.94 245.134 1602.19 247.82 1594.06 253.193C1586.01 258.494 1579.58 266.335 1574.79 276.718H1573.05L1577.95 247.53H1532.99L1505.12 414.816H1551.5L1567.07 320.173C1568.3 313.348 1570.88 307.322 1574.79 302.094C1578.79 296.866 1583.68 292.8 1589.49 289.896C1595.3 286.919 1601.57 285.431 1608.32 285.431C1611.66 285.431 1615.18 285.685 1618.88 286.193C1622.66 286.629 1625.56 287.21 1627.59 287.936L1634.56 246.659C1632.53 246.15 1630.2 245.787 1627.59 245.57C1625.05 245.279 1622.62 245.134 1620.3 245.134ZM2663.67 245.134C2654.31 245.134 2645.56 247.82 2637.44 253.193C2629.38 258.494 2622.96 266.335 2618.17 276.718H2616.43L2621.32 247.53H2576.37L2548.5 414.816H2594.87L2610.44 320.173C2611.67 313.348 2614.25 307.322 2618.17 302.094C2622.16 296.866 2627.06 292.8 2632.86 289.896C2638.67 286.919 2644.95 285.431 2651.7 285.431C2655.03 285.431 2658.55 285.685 2662.26 286.193C2666.03 286.629 2668.93 287.21 2670.96 287.936L2677.93 246.659C2675.9 246.15 2673.58 245.787 2670.96 245.57C2668.42 245.279 2665.99 245.134 2663.67 245.134ZM923.67 280.748C931.29 280.748 937.277 282.926 941.632 287.282C946.059 291.639 948.961 297.592 950.34 305.143C951.719 312.622 951.61 321.189 950.014 330.846C948.417 340.648 945.587 349.434 941.523 357.202C937.531 364.899 932.487 370.998 926.391 375.499C920.368 379.928 913.437 382.143 905.599 382.143C897.979 382.143 891.956 380.001 887.529 375.717C883.102 371.361 880.235 365.443 878.929 357.965C877.623 350.414 877.731 341.846 879.255 332.262C880.752 323.004 883.301 314.672 886.903 307.265L887.638 305.797C891.629 298.028 896.673 291.929 902.769 287.5C908.865 282.998 915.832 280.748 923.67 280.748ZM1223.19 280.748C1230.81 280.748 1236.8 282.926 1241.15 287.282C1245.58 291.639 1248.48 297.592 1249.86 305.143C1251.24 312.622 1251.13 321.189 1249.53 330.846L1249.22 332.672C1247.58 341.742 1244.85 349.919 1241.04 357.202C1237.05 364.899 1232.01 370.998 1225.91 375.499C1219.89 379.928 1212.96 382.143 1205.12 382.143C1197.5 382.143 1191.47 380.001 1187.05 375.717C1182.9 371.633 1180.12 366.176 1178.71 359.348L1178.45 357.965C1177.14 350.414 1177.25 341.846 1178.77 332.262C1180.27 323.004 1182.82 314.672 1186.42 307.265L1187.16 305.797C1190.9 298.513 1195.56 292.697 1201.16 288.349L1202.29 287.5C1208.38 282.998 1215.35 280.748 1223.19 280.748ZM2461.97 280.748C2469.59 280.748 2475.58 282.926 2479.93 287.282C2484.36 291.639 2487.26 297.592 2488.64 305.143C2490.02 312.622 2489.91 321.189 2488.32 330.846C2486.72 340.648 2483.89 349.434 2479.83 357.202C2475.83 364.899 2470.79 370.998 2464.69 375.499C2458.67 379.928 2451.74 382.143 2443.9 382.143C2436.28 382.143 2430.26 380.001 2425.83 375.717C2421.4 371.361 2418.54 365.443 2417.23 357.965C2415.93 350.414 2416.03 341.846 2417.56 332.262C2419.05 323.004 2421.6 314.672 2425.21 307.265L2425.94 305.797C2429.93 298.028 2434.98 291.929 2441.07 287.5C2447.17 282.998 2454.13 280.748 2461.97 280.748ZM1898.13 282.272C1905.67 282.272 1911.73 284.269 1916.3 288.262C1920.95 292.256 1924.07 297.919 1925.67 305.252C1927.26 312.586 1927.23 321.226 1925.56 331.173L1925.24 333.022C1923.6 342.199 1920.88 350.259 1917.07 357.202C1913 364.608 1908 370.381 1902.04 374.519C1896.09 378.585 1889.42 380.618 1882.01 380.618C1874.87 380.618 1869.1 378.8 1864.7 375.163L1863.83 374.41C1859.62 370.462 1856.77 365.11 1855.29 358.355L1855.02 356.985C1853.64 349.506 1853.75 340.902 1855.34 331.173C1856.94 321.516 1859.63 313.021 1863.4 305.688C1867.25 298.355 1872.07 292.619 1877.88 288.48C1883.76 284.342 1890.51 282.272 1898.13 282.272ZM729.292 317.015C736.985 317.015 743.335 318.358 748.343 321.044C753.423 323.731 757.015 327.434 759.12 332.153C761.297 336.873 761.914 342.318 760.97 348.49C759.591 356.839 755.455 363.556 748.56 368.638L747.904 369.106C741.039 373.876 731.279 376.262 718.624 376.262H680.197L689.885 317.015H729.292ZM1717.68 279.985C1724.36 279.985 1729.98 281.474 1734.55 284.45C1739.13 287.355 1742.39 291.384 1744.35 296.54C1746.31 301.695 1746.75 307.612 1745.66 314.292L1676.06 314.292C1677.33 308.516 1679.81 303.142 1683.5 298.173C1687.56 292.728 1692.57 288.335 1698.52 284.995C1704.47 281.655 1710.86 279.985 1717.68 279.985ZM1420.31 230.322C1429.39 230.322 1436.61 231.883 1441.98 235.005L1442.98 235.592C1447.88 238.595 1451.28 242.683 1453.19 247.857C1455.22 253.375 1455.62 259.873 1454.39 267.352L1454.15 268.717C1452.91 275.494 1450.48 281.538 1446.88 286.846L1446.14 287.88C1442.38 292.981 1437.43 297.03 1431.31 300.025L1430.08 300.592C1423.87 303.336 1416.48 304.708 1407.9 304.708L1376.11 304.708L1388.53 230.322H1420.31ZM740.178 229.886C750.556 229.886 758.176 232.355 763.039 237.292C767.974 242.157 769.788 248.655 768.482 256.787C767.538 262.596 765.252 267.642 761.623 271.926C758.067 276.137 753.532 279.404 748.016 281.728C742.573 283.979 736.658 285.104 730.272 285.104H695.328L704.473 229.886H740.178ZM2053.15 178.917C2046.26 178.917 2040.09 181.204 2034.64 185.778C2029.2 190.279 2026.08 195.798 2025.28 202.332C2024.48 208.722 2026.3 214.24 2030.73 218.887C2035.22 223.461 2040.92 225.748 2047.82 225.748C2054.71 225.748 2060.84 223.461 2066.21 218.887C2071.32 214.53 2074.35 209.408 2075.3 203.52L2075.47 202.332C2076.19 195.798 2074.38 190.279 2070.02 185.778C2065.67 181.204 2060.04 178.917 2053.15 178.917Z" fill="black"/>
</svg>
