<svg width="1038" height="131" viewBox="0 0 1038 131" fill="none" xmlns="http://www.w3.org/2000/svg">
<g filter="url(#filter0_d_4674_2441)">
<path d="M1004.45 53.956L989.613 54.8764C989.536 53.5724 989.178 52.4091 988.539 51.3864C987.925 50.3381 987.017 49.5071 985.816 48.8935C984.64 48.2798 983.157 47.973 981.367 47.973C978.682 47.973 976.292 48.5866 974.195 49.8139C972.098 51.0412 970.909 52.6136 970.628 54.5312C970.398 55.7585 970.718 56.794 971.587 57.6378C972.456 58.4815 974.208 59.1974 976.841 59.7855L987.196 61.9332C992.719 63.1094 996.708 65.0653 999.162 67.8011C1001.64 70.5369 1002.52 74.1165 1001.81 78.5398C1001.17 82.2983 999.52 85.5838 996.861 88.3963C994.202 91.1832 990.827 93.3565 986.736 94.9162C982.645 96.4503 978.107 97.2173 973.121 97.2173C965.118 97.2173 959.033 95.581 954.865 92.3082C950.698 89.0355 948.691 84.5994 948.844 79L964.799 78.1562C964.926 80.5597 965.77 82.375 967.33 83.6023C968.89 84.804 971.025 85.4176 973.735 85.4432C976.777 85.4943 979.36 84.8679 981.482 83.5639C983.63 82.2344 984.844 80.6236 985.125 78.7315C985.33 77.402 984.946 76.3281 983.975 75.5099C983.029 74.6918 981.29 74.0142 978.759 73.4773L968.941 71.4446C963.367 70.294 959.365 68.2358 956.936 65.2699C954.507 62.304 953.676 58.5327 954.444 53.956C955.057 50.2997 956.578 47.1676 959.007 44.5597C961.462 41.9261 964.62 39.9062 968.48 38.5C972.367 37.0938 976.752 36.3906 981.635 36.3906C989.28 36.3906 995.033 37.9631 998.894 41.108C1002.78 44.2528 1004.63 48.5355 1004.45 53.956Z" fill="white"/>
<path d="M904.488 62.0099L898.811 96.0668H882.512L892.33 37.1577H907.863L906.175 47.5511H906.827C908.694 44.0994 911.327 41.3764 914.728 39.3821C918.154 37.3878 922.053 36.3906 926.425 36.3906C930.516 36.3906 933.929 37.2855 936.665 39.0753C939.427 40.8651 941.37 43.4091 942.495 46.7074C943.645 50.0057 943.837 53.956 943.07 58.5582L936.78 96.0668H920.442L926.233 61.473C926.821 57.8679 926.361 55.0554 924.853 53.0355C923.37 50.9901 920.979 49.9673 917.681 49.9673C915.482 49.9673 913.462 50.4403 911.621 51.3864C909.78 52.3324 908.233 53.7131 906.98 55.5284C905.753 57.3182 904.922 59.4787 904.488 62.0099Z" fill="white"/>
<path d="M843.935 97.2173C837.927 97.2173 832.954 95.9389 829.016 93.3821C825.079 90.7997 822.305 87.2202 820.694 82.6435C819.109 78.0412 818.815 72.6847 819.812 66.5739C820.784 60.5398 822.803 55.2599 825.872 50.7344C828.94 46.2088 832.839 42.6932 837.569 40.1875C842.299 37.6562 847.63 36.3906 853.562 36.3906C859.545 36.3906 864.505 37.6818 868.443 40.2642C872.38 42.821 875.154 46.4006 876.765 51.0028C878.376 55.6051 878.683 60.9617 877.685 67.0724C876.688 73.081 874.643 78.348 871.549 82.8736C868.455 87.3991 864.556 90.9276 859.852 93.4588C855.147 95.9645 849.842 97.2173 843.935 97.2173ZM845.546 84.5611C848.308 84.5611 850.749 83.7812 852.872 82.2216C855.019 80.6364 856.796 78.4886 858.203 75.7784C859.634 73.0426 860.632 69.9489 861.194 66.4972C861.757 63.0966 861.795 60.0795 861.309 57.446C860.823 54.7869 859.801 52.6903 858.241 51.1562C856.707 49.6222 854.597 48.8551 851.913 48.8551C849.151 48.8551 846.697 49.6477 844.549 51.233C842.401 52.7926 840.624 54.9403 839.218 57.6761C837.812 60.4119 836.828 63.5185 836.265 66.9957C835.728 70.3707 835.69 73.3878 836.15 76.0469C836.61 78.6804 837.62 80.7642 839.18 82.2983C840.739 83.8068 842.862 84.5611 845.546 84.5611Z" fill="white"/>
<path d="M788.895 96.071L798.713 37.1619H815.051L805.233 96.071H788.895ZM808.569 29.4915C806.14 29.4915 804.133 28.6861 802.548 27.0753C800.988 25.4389 800.349 23.4957 800.63 21.2457C800.912 18.9446 802.011 17.0014 803.929 15.4162C805.846 13.8054 808.02 13 810.449 13C812.878 13 814.859 13.8054 816.393 15.4162C817.927 17.0014 818.566 18.9446 818.311 21.2457C818.055 23.4957 816.968 25.4389 815.051 27.0753C813.159 28.6861 810.998 29.4915 808.569 29.4915Z" fill="white"/>
<path d="M789.152 37.1605L787.12 49.4332H751.605L753.677 37.1605H789.152ZM764.032 23.0469H780.37L771.242 77.9673C770.986 79.4759 771.025 80.652 771.357 81.4957C771.689 82.3139 772.239 82.8892 773.006 83.2216C773.799 83.554 774.745 83.7202 775.844 83.7202C776.611 83.7202 777.391 83.6563 778.184 83.5284C778.976 83.375 779.577 83.2599 779.986 83.1832L780.6 95.3409C779.679 95.6222 778.439 95.929 776.88 96.2614C775.346 96.5938 773.53 96.7983 771.434 96.875C767.445 97.0284 764.07 96.5043 761.309 95.3026C758.547 94.0753 756.566 92.196 755.364 89.6648C754.162 87.1335 753.907 83.9503 754.597 80.1151L764.032 23.0469Z" fill="white"/>
<path d="M712.154 97.2173C706.094 97.2173 701.108 95.9389 697.196 93.3821C693.31 90.7997 690.587 87.2202 689.027 82.6435C687.493 78.0668 687.225 72.7997 688.222 66.8423C689.194 60.8082 691.226 55.5156 694.32 50.9645C697.414 46.3878 701.339 42.821 706.094 40.2642C710.875 37.6818 716.245 36.3906 722.202 36.3906C727.341 36.3906 731.688 37.3239 735.242 39.1903C738.796 41.0568 741.404 43.6776 743.066 47.0526C744.728 50.4276 745.29 54.3906 744.753 58.9418H729.374C729.4 56.027 728.645 53.6619 727.111 51.8466C725.577 50.0312 723.327 49.1236 720.361 49.1236C717.804 49.1236 715.452 49.8139 713.304 51.1946C711.182 52.5497 709.38 54.5312 707.897 57.1392C706.439 59.7472 705.417 62.9048 704.829 66.6122C704.215 70.3707 704.202 73.5668 704.79 76.2003C705.378 78.8338 706.503 80.8409 708.165 82.2216C709.827 83.6023 711.924 84.2926 714.455 84.2926C716.347 84.2926 718.098 83.9091 719.709 83.142C721.346 82.375 722.777 81.2628 724.005 79.8054C725.232 78.3224 726.178 76.5454 726.843 74.4744H742.26C741.212 79 739.307 82.9631 736.546 86.3636C733.81 89.7642 730.371 92.4233 726.229 94.3409C722.087 96.2585 717.395 97.2173 712.154 97.2173Z" fill="white"/>
<path d="M657.348 96.071L667.166 37.1619H683.504L673.686 96.071H657.348ZM677.022 29.4915C674.593 29.4915 672.586 28.6861 671.001 27.0753C669.441 25.4389 668.802 23.4957 669.083 21.2457C669.365 18.9446 670.464 17.0014 672.382 15.4162C674.299 13.8054 676.473 13 678.902 13C681.331 13 683.312 13.8054 684.846 15.4162C686.38 17.0014 687.02 18.9446 686.764 21.2457C686.508 23.4957 685.422 25.4389 683.504 27.0753C681.612 28.6861 679.451 29.4915 677.022 29.4915Z" fill="white"/>
<path d="M611.396 97.0277C606.896 97.0277 603.023 95.8771 599.776 93.576C596.554 91.2493 594.253 87.8359 592.872 83.3359C591.517 78.8104 591.389 73.2621 592.489 66.691C593.614 59.941 595.634 54.3288 598.548 49.8544C601.463 45.3544 604.915 41.9922 608.903 39.7678C612.892 37.5178 617.047 36.3928 621.368 36.3928C624.641 36.3928 627.287 36.9553 629.307 38.0803C631.352 39.1797 632.925 40.5604 634.024 42.2223C635.124 43.8587 635.891 45.4695 636.325 47.0547H636.824L641.771 17.5234H658.071L645.031 96.0689H628.923L630.496 86.6342H629.805C628.783 88.2706 627.428 89.8942 625.74 91.505C624.078 93.0902 622.058 94.407 619.68 95.4553C617.328 96.5035 614.567 97.0277 611.396 97.0277ZM618.607 84.0263C621.215 84.0263 623.567 83.3104 625.663 81.8786C627.76 80.4212 629.524 78.3885 630.956 75.7805C632.388 73.1726 633.385 70.1172 633.947 66.6143C634.536 63.1115 634.548 60.0689 633.986 57.4865C633.423 54.9041 632.324 52.9098 630.688 51.5036C629.077 50.0973 626.942 49.3942 624.283 49.3942C621.598 49.3942 619.22 50.1229 617.149 51.5803C615.104 53.0376 613.403 55.0575 612.048 57.6399C610.719 60.2223 609.773 63.2138 609.21 66.6143C608.648 70.0405 608.609 73.0703 609.095 75.7038C609.581 78.3118 610.616 80.3572 612.202 81.8402C613.787 83.2976 615.922 84.0263 618.607 84.0263Z" fill="white"/>
<path d="M552.885 97.2173C546.851 97.2173 541.853 95.9901 537.89 93.5355C533.927 91.0554 531.14 87.5526 529.529 83.027C527.944 78.4759 527.675 73.0937 528.724 66.8807C529.746 60.821 531.805 55.5028 534.898 50.9261C538.018 46.3494 541.93 42.7827 546.634 40.2258C551.339 37.669 556.58 36.3906 562.359 36.3906C566.245 36.3906 569.761 37.017 572.905 38.2699C576.076 39.4972 578.709 41.3636 580.806 43.8693C582.903 46.3494 584.334 49.456 585.101 53.1889C585.894 56.9219 585.881 61.294 585.063 66.3054L584.334 70.7926H534.63L536.202 60.6676H570.566C570.949 58.3153 570.796 56.2315 570.106 54.4162C569.415 52.6009 568.265 51.1818 566.654 50.1591C565.043 49.1108 563.062 48.5866 560.709 48.5866C558.306 48.5866 556.056 49.1747 553.959 50.3508C551.863 51.527 550.099 53.0739 548.667 54.9915C547.26 56.8835 546.353 58.9418 545.944 61.1662L544.141 71.2145C543.63 74.3082 543.732 76.8778 544.448 78.9233C545.189 80.9687 546.468 82.5028 548.283 83.5256C550.099 84.5227 552.4 85.0213 555.187 85.0213C557.002 85.0213 558.702 84.7656 560.288 84.2543C561.898 83.7429 563.33 82.9886 564.583 81.9915C565.836 80.9687 566.859 79.7031 567.651 78.1946L582.57 79.1918C581.19 82.8224 579.093 85.9929 576.28 88.7031C573.468 91.3878 570.08 93.4844 566.117 94.9929C562.18 96.4759 557.769 97.2173 552.885 97.2173Z" fill="white"/>
<path d="M485.824 96.0732L495.642 37.1641H511.482L509.756 47.4425H510.37C512.057 43.7862 514.32 41.0249 517.158 39.1584C520.022 37.2663 523.103 36.3203 526.401 36.3203C527.219 36.3203 528.076 36.3714 528.971 36.4737C529.891 36.5504 530.709 36.6783 531.425 36.8572L528.971 51.3928C528.255 51.1371 527.232 50.9325 525.902 50.7791C524.598 50.6001 523.358 50.5107 522.182 50.5107C519.804 50.5107 517.593 51.0348 515.547 52.0831C513.502 53.1058 511.776 54.5376 510.37 56.3786C508.989 58.2195 508.081 60.3416 507.647 62.745L502.162 96.0732H485.824Z" fill="white"/>
<path d="M417.285 96.0689L430.325 17.5234H461.314C467.245 17.5234 472.116 18.6612 475.926 20.9368C479.761 23.1868 482.446 26.3189 483.98 30.3331C485.539 34.3217 485.897 38.924 485.054 44.1399C484.184 49.3814 482.292 53.9964 479.378 57.9851C476.488 61.9482 472.73 65.0419 468.102 67.2663C463.474 69.4908 458.13 70.603 452.071 70.603H432.319L434.505 57.2947H451.572C454.794 57.2947 457.542 56.745 459.818 55.6456C462.119 54.5206 463.947 52.9737 465.302 51.005C466.657 49.0107 467.539 46.7223 467.949 44.1399C468.383 41.5064 468.243 39.218 467.527 37.2749C466.811 35.3317 465.494 33.8232 463.576 32.7493C461.684 31.6499 459.14 31.1001 455.944 31.1001H444.745L433.892 96.0689H417.285Z" fill="white"/>
<path d="M418.011 17.5234L404.971 96.0689H388.633L401.673 17.5234H418.011Z" fill="white"/>
<path d="M389.663 17.5234L376.623 96.0689H360.285L373.325 17.5234H389.663Z" fill="white"/>
<path d="M294.424 96.0689H276.629L316.784 17.5234H338.184L352.221 96.0689H334.426L324.876 35.4723H324.262L294.424 96.0689ZM298.49 65.1953H340.524L338.299 78.1584H296.265L298.49 65.1953Z" fill="white"/>
<path d="M241.789 96.0732L251.607 37.1641H267.447L265.721 47.4425H266.335C268.022 43.7862 270.285 41.0249 273.123 39.1584C275.987 37.2663 279.067 36.3203 282.366 36.3203C283.184 36.3203 284.041 36.3714 284.935 36.4737C285.856 36.5504 286.674 36.6783 287.39 36.8572L284.935 51.3928C284.219 51.1371 283.197 50.9325 281.867 50.7791C280.563 50.6001 279.323 50.5107 278.147 50.5107C275.769 50.5107 273.558 51.0348 271.512 52.0831C269.467 53.1058 267.741 54.5376 266.335 56.3786C264.954 58.2195 264.046 60.3416 263.612 62.745L258.127 96.0732H241.789Z" fill="white"/>
<path d="M196.867 97.179C193.134 97.179 189.9 96.527 187.164 95.223C184.453 93.8935 182.459 91.9247 181.181 89.3168C179.902 86.7088 179.583 83.4744 180.222 79.6136C180.784 76.3409 181.846 73.6051 183.405 71.4062C184.99 69.1818 186.921 67.392 189.196 66.0369C191.472 64.6818 193.99 63.6463 196.752 62.9304C199.539 62.2145 202.415 61.7287 205.381 61.473C208.807 61.1151 211.594 60.7699 213.742 60.4375C215.915 60.1051 217.539 59.6321 218.613 59.0185C219.686 58.3793 220.338 57.4332 220.569 56.1804V55.9503C220.952 53.5469 220.505 51.6804 219.226 50.3508C217.973 48.9957 215.966 48.3182 213.205 48.3182C210.29 48.3182 207.81 48.9574 205.765 50.2358C203.745 51.5142 202.3 53.1378 201.431 55.1065L186.55 53.8793C187.88 50.2997 189.887 47.206 192.571 44.598C195.282 41.9645 198.542 39.9446 202.351 38.5383C206.161 37.1065 210.431 36.3906 215.161 36.3906C218.434 36.3906 221.489 36.7741 224.327 37.5412C227.191 38.3082 229.658 39.4972 231.729 41.108C233.826 42.7187 235.334 44.7898 236.255 47.321C237.201 49.8267 237.392 52.831 236.83 56.3338L230.195 96.0668H214.701L216.081 87.8977H215.621C214.368 89.7386 212.834 91.3622 211.019 92.7685C209.203 94.1491 207.12 95.2358 204.767 96.0284C202.415 96.7955 199.782 97.179 196.867 97.179ZM203.425 85.9034C205.803 85.9034 207.989 85.4304 209.983 84.4844C212.003 83.5128 213.665 82.2088 214.969 80.5724C216.299 78.9361 217.142 77.0824 217.5 75.0114L218.498 68.7599C217.986 69.0923 217.245 69.3864 216.273 69.642C215.327 69.8977 214.292 70.1406 213.167 70.3707C212.067 70.5753 210.955 70.767 209.83 70.946C208.705 71.0994 207.695 71.2528 206.8 71.4062C204.831 71.6875 203.067 72.1349 201.507 72.7486C199.948 73.3622 198.682 74.1932 197.711 75.2415C196.739 76.2642 196.138 77.5426 195.908 79.0767C195.55 81.3011 196.074 83.0014 197.48 84.1776C198.912 85.3281 200.894 85.9034 203.425 85.9034Z" fill="white"/>
<path d="M143.343 97.2173C137.308 97.2173 132.31 95.9901 128.347 93.5355C124.384 91.0554 121.597 87.5526 119.986 83.027C118.401 78.4759 118.132 73.0937 119.181 66.8807C120.203 60.821 122.262 55.5028 125.355 50.9261C128.475 46.3494 132.387 42.7827 137.091 40.2258C141.796 37.669 147.037 36.3906 152.816 36.3906C156.702 36.3906 160.218 37.017 163.362 38.2699C166.533 39.4972 169.166 41.3636 171.263 43.8693C173.36 46.3494 174.791 49.456 175.558 53.1889C176.351 56.9219 176.338 61.294 175.52 66.3054L174.791 70.7926H125.087L126.659 60.6676H161.023C161.406 58.3153 161.253 56.2315 160.563 54.4162C159.872 52.6009 158.722 51.1818 157.111 50.1591C155.5 49.1108 153.519 48.5866 151.166 48.5866C148.763 48.5866 146.513 49.1747 144.416 50.3508C142.32 51.527 140.556 53.0739 139.124 54.9915C137.718 56.8835 136.81 58.9418 136.401 61.1662L134.598 71.2145C134.087 74.3082 134.189 76.8778 134.905 78.9233C135.647 80.9687 136.925 82.5028 138.74 83.5256C140.556 84.5227 142.857 85.0213 145.644 85.0213C147.459 85.0213 149.159 84.7656 150.745 84.2543C152.355 83.7429 153.787 82.9886 155.04 81.9915C156.293 80.9687 157.316 79.7031 158.108 78.1946L173.027 79.1918C171.647 82.8224 169.55 85.9929 166.737 88.7031C163.925 91.3878 160.537 93.4844 156.574 94.9929C152.637 96.4759 148.226 97.2173 143.343 97.2173Z" fill="white"/>
<path d="M117.683 17.5234L104.643 96.0689H88.3047L101.344 17.5234H117.683Z" fill="white"/>
<path d="M86.182 45.0256H69.6139C69.665 42.8267 69.3837 40.8835 68.7701 39.196C68.1565 37.483 67.236 36.0256 66.0087 34.8239C64.807 33.6222 63.3369 32.7145 61.5982 32.1009C59.8596 31.4617 57.9036 31.142 55.7303 31.142C51.5372 31.142 47.6891 32.1903 44.1863 34.2869C40.6835 36.3835 37.7303 39.4261 35.3269 43.4148C32.9235 47.3778 31.2616 52.1719 30.3411 57.7969C29.4462 63.2173 29.4974 67.7557 30.4945 71.4119C31.4917 75.0682 33.2559 77.8296 35.7872 79.696C38.344 81.5369 41.5272 82.4574 45.3369 82.4574C47.6891 82.4574 49.9264 82.1634 52.0485 81.5753C54.1707 80.9617 56.1011 80.0923 57.8397 78.9673C59.6039 77.8168 61.138 76.4233 62.442 74.7869C63.7715 73.1506 64.807 71.2969 65.5485 69.2259H82.2318C81.1835 72.831 79.5471 76.3082 77.3227 79.6577C75.1238 83.0071 72.4008 85.9986 69.1536 88.6321C65.9065 91.2401 62.2119 93.3111 58.0698 94.8452C53.9278 96.3793 49.3894 97.1463 44.4548 97.1463C37.3212 97.1463 31.1977 95.5099 26.084 92.2372C20.996 88.9645 17.3269 84.2472 15.0769 78.0852C12.8269 71.9233 12.405 64.4957 13.8113 55.8026C15.2175 47.3906 17.9661 40.2571 22.057 34.402C26.1735 28.5213 31.1721 24.0597 37.0528 21.017C42.959 17.9744 49.2744 16.4531 55.9988 16.4531C60.6778 16.4531 64.9093 17.0923 68.6934 18.3707C72.4775 19.6492 75.6991 21.5156 78.3582 23.9702C81.0428 26.3991 83.0627 29.3778 84.4178 32.9062C85.773 36.4347 86.361 40.4744 86.182 45.0256Z" fill="white"/>
<path d="M981.637 23.3984C990.75 23.3985 999.97 25.2237 1007.11 31.0361C1014.43 36.9837 1017.75 45.3129 1017.45 54.3926L1017.06 66.207L1013.36 66.4355C1015.13 71.0008 1015.41 75.9029 1014.64 80.624L1014.63 80.6758L1014.63 80.7266C1013.55 87.06 1010.71 92.6848 1006.31 97.335L1006.27 97.3779C1002.1 101.744 997.019 104.916 991.368 107.07L991.302 107.096C985.561 109.249 979.449 110.225 973.122 110.225C963.624 110.225 954.204 108.324 946.838 102.54C942.547 99.1704 939.52 95.0101 937.742 90.3311L941.762 66.3633L942.754 66.3105C942.509 65.6423 942.295 64.9677 942.109 64.2881L943.069 58.5654C943.788 54.2509 943.665 50.5093 942.699 47.3408C944.064 43.0399 946.326 39.1093 949.495 35.707L949.499 35.7031C953.539 31.3693 958.518 28.3014 964.032 26.293L964.045 26.2881L964.059 26.2832C969.595 24.2801 975.513 23.3984 981.637 23.3984ZM981.637 36.3984C976.753 36.3984 972.368 37.1016 968.481 38.5078C964.621 39.9141 961.463 41.9339 959.009 44.5674C956.58 47.1753 955.058 50.3076 954.444 53.9639C953.677 58.5404 954.509 62.3115 956.938 65.2773C959.366 68.2432 963.368 70.3016 968.941 71.4521L978.76 73.4844C981.291 74.0213 983.03 74.6994 983.976 75.5176C984.947 76.3358 985.331 77.4097 985.126 78.7393L985.062 79.0908C984.689 80.8315 983.496 82.3249 981.482 83.5713C979.36 84.8752 976.778 85.5013 973.735 85.4502C971.025 85.4246 968.891 84.811 967.331 83.6094C965.772 82.3822 964.928 80.5673 964.8 78.1641L948.845 79.0078L948.837 79.5293C948.819 84.8831 950.829 89.1451 954.866 92.3154C959.034 95.5882 965.119 97.2246 973.122 97.2246C978.108 97.2246 982.646 96.4579 986.737 94.9238C990.573 93.4616 993.779 91.4599 996.355 88.9189L996.862 88.4033C999.355 85.7666 1000.96 82.7142 1001.68 79.2461L1001.81 78.5469C1002.53 74.1237 1001.64 70.5443 999.163 67.8086C996.709 65.0728 992.72 63.1166 987.197 61.9404L976.842 59.793C974.373 59.2417 972.68 58.5777 971.762 57.8018L971.588 57.6455C970.773 56.8545 970.441 55.8947 970.593 54.7666L970.629 54.5391C970.91 52.6215 972.1 51.0486 974.196 49.8213C976.293 48.5941 978.684 47.9805 981.368 47.9805C983.158 47.9805 984.64 48.2878 985.816 48.9014C987.018 49.515 987.926 50.3453 988.54 51.3936C989.179 52.4163 989.537 53.5799 989.613 54.8838L1004.46 53.9639C1004.64 48.5434 1002.78 44.2601 998.895 41.1152C995.034 37.9705 989.281 36.3985 981.637 36.3984Z" fill="black"/>
<path d="M926.424 23.3984C932.39 23.3984 938.418 24.712 943.733 28.1738C943.734 28.1745 943.736 28.1751 943.737 28.1758C943.752 28.1852 943.767 28.1946 943.781 28.2041C949.091 31.66 952.759 36.6022 954.767 42.4326C955.466 44.4364 955.937 46.4797 956.214 48.54C955.364 50.1979 954.773 52.0052 954.444 53.9639C954.043 56.3605 954.079 58.5363 954.554 60.4912L943.069 58.5654C943.836 53.9632 943.644 50.0131 942.493 46.7148C941.438 43.6226 939.665 41.1931 937.172 39.4268L936.664 39.083C934.099 37.4051 930.939 36.513 927.183 36.4082L926.424 36.3984C922.052 36.3984 918.153 37.3954 914.727 39.3896C911.326 41.3839 908.693 44.107 906.826 47.5586H906.174L907.861 37.165H892.328L882.511 96.0742H898.811L904.486 62.0176C904.921 59.4863 905.752 57.3259 906.979 55.5361C908.232 53.7208 909.779 52.3396 911.62 51.3936C913.461 50.4477 915.481 49.9746 917.68 49.9746C920.978 49.9747 923.369 50.9976 924.852 53.043L924.989 53.2344C926.387 55.2391 926.802 57.9878 926.232 61.4805L920.44 96.0742H936.779L943.069 58.5654L954.554 60.4912C954.773 61.3961 955.088 62.2533 955.495 63.0635L952.857 78.7949L948.845 79.0078C948.746 82.6213 949.546 85.75 951.247 88.3945L947.78 109.074H867.164L871.524 82.9131C871.532 82.9022 871.54 82.8918 871.548 82.8809C874.642 78.3554 876.687 73.0885 877.685 67.0801C878.671 61.0374 878.38 55.7326 876.815 51.165L881.316 24.165H918.682C921.208 23.6476 923.797 23.3984 926.424 23.3984Z" fill="black"/>
<path d="M853.562 23.3984C861.376 23.3984 868.971 25.0896 875.521 29.3691C881.971 33.5573 886.513 39.5099 889.035 46.7158C889.462 47.9357 889.821 49.1708 890.12 50.418L887.083 68.6387L877.685 67.0801C878.651 61.1604 878.393 55.9484 876.912 51.4443L876.765 51.0107C875.204 46.5523 872.552 43.0535 868.808 40.5146L868.442 40.2715C864.505 37.6891 859.544 36.3984 853.562 36.3984C847.63 36.3984 842.298 37.6641 837.568 40.1953L837.128 40.4326C832.596 42.9212 828.843 46.3579 825.871 50.7422L825.587 51.168C822.678 55.5978 820.753 60.7355 819.812 66.5811C818.814 72.6919 819.108 78.0491 820.693 82.6514C822.304 87.2278 825.078 90.8073 829.016 93.3896C832.953 95.9465 837.927 97.2246 843.936 97.2246C849.657 97.2245 854.814 96.0487 859.408 93.6973L859.852 93.4658C864.262 91.0928 867.964 87.8435 870.959 83.7178L871.548 82.8809C874.642 78.3554 876.687 73.0885 877.685 67.0801L887.083 68.6387L883.914 87.6553C883.397 88.5236 882.854 89.3788 882.28 90.2178C878.045 96.4131 872.595 101.371 866.011 104.914L865.986 104.928L865.963 104.94C859.181 108.553 851.738 110.225 843.936 110.225C836.111 110.225 828.499 108.554 821.937 104.293L821.911 104.276L821.887 104.26C815.489 100.064 810.957 94.144 808.431 86.9668L808.416 86.9258L808.402 86.8848C807.995 85.7031 807.651 84.5071 807.363 83.2998L813.613 45.7998C814.088 45.003 814.588 44.2182 815.111 43.4463C819.213 37.3968 824.493 32.5417 830.863 29.042L831.483 28.707C838.281 25.0805 845.739 23.3984 853.562 23.3984ZM851.912 48.8623C854.597 48.8623 856.706 49.63 858.24 51.1641C859.8 52.6981 860.823 54.7942 861.309 57.4531C861.794 60.0866 861.756 63.1043 861.193 66.5049L861.083 67.1475C860.505 70.3415 859.544 73.2213 858.202 75.7861C856.796 78.4963 855.019 80.6443 852.871 82.2295L852.47 82.5127C850.443 83.8835 848.135 84.5684 845.546 84.5684C842.861 84.5684 840.739 83.8141 839.18 82.3057C837.62 80.7716 836.61 78.6881 836.149 76.0547C835.689 73.3956 835.728 70.3779 836.265 67.0029C836.792 63.7432 837.69 60.8093 838.959 58.2012L839.218 57.6836C840.624 54.9478 842.401 52.7999 844.549 51.2402C846.696 49.6551 849.151 48.8624 851.912 48.8623Z" fill="black"/>
<path d="M810.974 0.00585938C816.382 0.12726 821.647 2.12782 825.732 6.37598C825.744 6.38786 825.756 6.40021 825.768 6.41211C825.78 6.42519 825.793 6.43805 825.806 6.45117C830.132 10.965 831.885 16.7814 831.229 22.6816L831.229 22.6973L831.227 22.7139C830.982 24.8688 830.431 26.8805 829.633 28.7383L825.997 50.5537C825.955 50.6156 825.91 50.677 825.868 50.7393C822.8 55.2647 820.78 60.5443 819.809 66.5781C818.818 72.6516 819.102 77.9802 820.662 82.5635L816.244 109.071H773.547L775.644 96.4922C776.073 96.4239 776.484 96.3477 776.876 96.2627C778.435 95.9304 779.675 95.624 780.596 95.3428L779.982 83.1846C779.573 83.2613 778.972 83.3769 778.18 83.5303C778.051 83.551 777.923 83.5666 777.795 83.584L783.487 49.4346H787.116L789.148 37.1621H785.532L787.671 24.3262C787.515 22.8048 787.53 21.2462 787.725 19.6689L787.799 19.1221C788.62 13.5418 791.466 8.87987 795.565 5.46191C799.746 1.95035 804.858 0 810.447 0L810.974 0.00585938ZM798.711 37.1621L788.894 96.0713H805.231L815.051 37.1619L798.711 37.1621ZM810.447 13C808.018 13 805.846 13.8057 803.929 15.4162C802.011 17.0014 800.91 18.945 800.629 21.2461C800.348 23.496 800.987 25.4389 802.547 27.0752C804.132 28.686 806.139 29.4922 808.568 29.4922C810.997 29.4921 813.159 28.686 815.051 27.0753C816.848 25.5412 817.915 23.7374 818.252 21.6641L818.31 21.2461C818.565 18.945 817.926 17.0012 816.392 15.416C814.858 13.8055 812.876 13 810.447 13Z" fill="black"/>
<path d="M795.707 10.0469L793.361 24.1602H800.831C801.137 25.2202 801.708 26.1914 802.549 27.0732C802.947 27.4773 803.371 27.8311 803.821 28.1338L802.327 37.1602H798.713L794.501 62.4326H787.001L785.935 68.8398L792.218 67.6631L792.546 74.1641L788.896 96.0693H793.651L794.093 104.811L784.396 107.773C782.962 108.212 781.31 108.609 779.588 108.976L779.587 108.974C777.122 109.504 774.532 109.768 771.931 109.864C771.923 109.865 771.915 109.866 771.907 109.866L771.906 109.865C766.581 110.067 761.148 109.411 756.119 107.223L756.027 107.182C750.668 104.8 746.261 100.807 743.618 95.2402C740.907 89.5293 740.815 83.4391 741.77 77.9941L744.342 62.4326H736.227L736.815 58.9443H744.755C745.292 54.3932 744.729 50.4297 743.067 47.0547C742.185 45.2638 741.034 43.6884 739.619 42.3223L742.685 24.1602H750.669L753.003 10.0469H795.707ZM764.03 23.0469L761.697 37.1602H753.675L751.604 49.4326H759.668L754.595 80.1152C753.905 83.9501 754.161 87.133 755.362 89.6641C756.564 92.1953 758.545 94.0755 761.307 95.3027C764.068 96.5044 767.443 97.0284 771.432 96.875C773.528 96.7983 775.344 96.5931 776.878 96.2607C778.437 95.9284 779.677 95.622 780.598 95.3408L779.984 83.1826C779.575 83.2593 778.974 83.3749 778.182 83.5283C777.389 83.6561 776.61 83.7197 775.843 83.7197C774.881 83.7197 774.036 83.5924 773.309 83.3379L773.004 83.2217C772.237 82.8893 771.688 82.3132 771.355 81.4951C771.065 80.7569 770.999 79.7645 771.158 78.5176L771.24 77.9668L775.982 49.4326H787.118L789.15 37.1602H778.022L780.368 23.0469H764.03Z" fill="black"/>
<path d="M722.204 23.3984C728.875 23.3984 735.42 24.607 741.288 27.6885C746.29 30.3154 750.439 34.0567 753.387 38.877L751.604 49.4375H757.396C758.06 53.0716 758.101 56.7868 757.666 60.4727L757.547 61.4814H757.678L755.332 75.6631L754.927 77.415C753.46 83.7479 750.723 89.5383 746.64 94.5664L746.639 94.5654C742.597 99.5744 737.547 103.435 731.692 106.146C725.602 108.965 719.005 110.225 712.156 110.225C704.31 110.225 696.657 108.566 690.086 104.271L690.004 104.217C683.638 99.9865 679.173 94.0299 676.725 86.8447L676.703 86.7822C676.344 85.7115 676.035 84.6303 675.773 83.54L682.011 46.1123C682.499 45.2923 683.013 44.4854 683.552 43.6914C687.791 37.4208 693.275 32.4088 699.918 28.833C706.775 25.1292 714.302 23.3985 722.204 23.3984ZM722.204 36.3984C716.247 36.3985 710.878 37.6893 706.097 40.2715L705.653 40.5146C701.097 43.0527 697.319 46.538 694.322 50.9717L694.035 51.4004C691.102 55.8542 689.166 61.0041 688.225 66.8496C687.227 72.807 687.495 78.0747 689.029 82.6514C690.589 87.2278 693.312 90.8073 697.198 93.3896C700.988 95.8665 705.786 97.1433 711.591 97.2207L712.156 97.2246C717.398 97.2246 722.089 96.2662 726.231 94.3486C730.373 92.431 733.812 89.7716 736.548 86.3711C739.309 82.9705 741.214 79.007 742.263 74.4814H726.845C726.18 76.5524 725.234 78.3296 724.007 79.8125L723.774 80.082C722.6 81.4079 721.245 82.4303 719.711 83.1494C718.1 83.9164 716.349 84.2998 714.457 84.2998C712.084 84.2998 710.093 83.6929 708.484 82.4795L708.167 82.2295C706.609 80.9351 705.523 79.0898 704.909 76.6943L704.792 76.208C704.204 73.5746 704.217 70.3785 704.831 66.6201C705.419 62.9128 706.441 59.7544 707.898 57.1465C709.381 54.5385 711.184 52.5573 713.307 51.2021C715.454 49.8215 717.807 49.1309 720.363 49.1309C723.329 49.1309 725.579 50.0392 727.113 51.8545C728.647 53.6698 729.402 56.0346 729.376 58.9492H744.756C745.293 54.3981 744.73 50.4346 743.068 47.0596C741.51 43.8956 739.12 41.3948 735.899 39.5566L735.244 39.1982C731.69 37.3318 727.343 36.3984 722.204 36.3984Z" fill="black"/>
<path d="M679.427 0.00585938C684.835 0.127316 690.1 2.1278 694.186 6.37598C694.196 6.38724 694.208 6.39888 694.219 6.41016C694.232 6.42386 694.246 6.43742 694.259 6.45117C698.585 10.9649 700.338 16.7815 699.683 22.6816L699.681 22.6973L699.679 22.7139C699.434 24.8692 698.883 26.8812 698.085 28.7393L694.398 50.8574C694.373 50.8947 694.347 50.9313 694.321 50.9688C691.228 55.5198 689.195 60.8127 688.224 66.8467C687.226 72.8041 687.494 78.0717 689.028 82.6484C689.044 82.6948 689.06 82.741 689.076 82.7871L684.697 109.071H642L644.167 96.0713H645.031L658.071 17.5254H656.548C657.638 12.6497 660.317 8.5485 664.019 5.46191C668.199 1.95041 673.311 0 678.9 0L679.427 0.00585938ZM667.164 37.1621L657.346 96.0713H673.685L683.502 37.1621H667.164ZM678.9 13C676.471 13 674.297 13.8052 672.38 15.416C670.462 17.0012 669.363 18.945 669.082 21.2461C668.801 23.4959 669.44 25.4389 670.999 27.0752C672.584 28.6859 674.592 29.4921 677.021 29.4922C679.449 29.4922 681.61 28.686 683.502 27.0752C685.3 25.541 686.368 23.7376 686.705 21.6641L686.763 21.2461C687.018 18.945 686.379 17.0012 684.845 15.416C683.311 13.8054 681.329 13.0001 678.9 13Z" fill="black"/>
<path d="M673.406 4.52344L671.455 16.2725C670.105 17.6853 669.314 19.3424 669.081 21.2441C668.879 22.8617 669.154 24.3197 669.903 25.6201L667.988 37.1602H667.163L657.345 96.0693H658.209L656.051 109.069H619.831C617.051 109.741 614.213 110.028 611.396 110.028C604.569 110.028 597.984 108.241 592.259 104.184L592.163 104.115C586.244 99.8405 582.496 93.8397 580.443 87.1494L580.418 87.0654C580.172 86.2449 579.957 85.4153 579.769 84.5781C580.903 82.9122 581.839 81.1189 582.57 79.1943L578.914 78.9492C578.691 76.2787 578.703 73.552 578.905 70.7949H584.335L585.064 66.3076C585.882 61.2964 585.894 56.9243 585.102 53.1914C584.83 51.8708 584.473 50.6296 584.035 49.4658C585.073 47.1204 586.274 44.8788 587.655 42.7588C591.515 36.8091 596.426 31.8469 602.544 28.4287C608.353 25.1576 614.685 23.3936 621.367 23.3936C623.361 23.3936 625.436 23.5379 627.52 23.9072L630.768 4.52344H673.406ZM641.771 17.5234L636.824 47.0547H636.324C635.89 45.4696 635.123 43.8585 634.024 42.2223C632.925 40.5604 631.352 39.1797 629.307 38.0803C627.413 37.0256 624.968 36.4653 621.974 36.3994L621.367 36.3936C617.046 36.3936 612.891 37.5186 608.902 39.7686L608.161 40.1982C604.485 42.4169 601.281 45.6358 598.548 49.8544L598.277 50.2773C595.508 54.6809 593.579 60.1519 592.489 66.691C591.389 73.2618 591.516 78.8105 592.871 83.3359C594.252 87.8359 596.554 91.2493 599.776 93.576C602.82 95.7333 606.414 96.8799 610.56 97.0146L611.396 97.0277C614.567 97.0277 617.328 96.5043 619.68 95.4561C622.057 94.4078 624.077 93.091 625.739 91.5059C627.427 89.8951 628.783 88.2706 629.805 86.6342H630.496L628.923 96.0689L645.03 96.0693L658.071 17.5234H641.771ZM624.283 49.3942C626.942 49.3942 629.077 50.0973 630.688 51.5036C632.324 52.9098 633.423 54.9041 633.986 57.4865C634.548 60.0689 634.536 63.1115 633.947 66.6143L633.836 67.2666C633.258 70.4979 632.297 73.3364 630.955 75.7812C629.523 78.3889 627.76 80.4212 625.663 81.8786C623.567 83.3104 621.213 84.0264 618.606 84.0264C616.089 84.0263 614.055 83.3862 612.505 82.1055L612.202 81.8402C610.716 80.4499 609.712 78.5656 609.192 76.1865L609.095 75.7038C608.609 73.0703 608.648 70.0405 609.21 66.6143C609.773 63.2138 610.719 60.2223 612.048 57.6399C613.403 55.0576 615.103 53.0384 617.148 51.5811C619.22 50.1237 621.598 49.3942 624.283 49.3942Z" fill="black"/>
<path d="M562.358 23.3984C567.607 23.3984 572.747 24.2415 577.597 26.1543C577.607 26.1581 577.617 26.1622 577.627 26.166C577.657 26.1777 577.687 26.1884 577.716 26.2002C582.801 28.1899 587.237 31.3051 590.776 35.5342C594.457 39.9084 596.687 45.0556 597.817 50.4961C597.845 50.6296 597.873 50.7636 597.9 50.8975C595.331 55.192 593.527 60.4582 592.487 66.6963C591.388 73.2671 591.515 78.8153 592.87 83.3408C593.152 84.2595 593.474 85.1329 593.832 85.9609C591.788 90.5165 588.927 94.5774 585.301 98.0713L585.256 98.1143C581.081 102.1 576.176 105.082 570.741 107.15L570.698 107.166C565.081 109.282 559.086 110.225 552.885 110.225C545.132 110.225 537.587 108.647 531.044 104.595L531.019 104.579L530.993 104.562C524.474 100.483 519.845 94.5967 517.281 87.3936L517.267 87.3525L517.252 87.3105C514.759 80.154 514.601 72.4524 515.904 64.7246C516.741 59.7664 518.154 55.0497 520.192 50.6396C520.841 50.5548 521.504 50.5117 522.181 50.5117C523.357 50.5117 524.597 50.6013 525.901 50.7803C527.23 50.9337 528.253 51.1379 528.969 51.3936L531.423 36.8584C530.98 36.7476 530.497 36.6585 529.976 36.5869C533.054 33.5273 536.542 30.9225 540.426 28.8115C547.185 25.1382 554.587 23.3985 562.358 23.3984ZM562.358 36.3984C556.579 36.3985 551.338 37.6767 546.634 40.2334C541.929 42.7902 538.017 46.3569 534.898 50.9336C531.804 55.5102 529.746 60.8282 528.723 66.8877C527.675 73.1007 527.943 78.4831 529.529 83.0342C531.139 87.5596 533.926 91.0629 537.889 93.543C541.852 95.9975 546.851 97.2246 552.885 97.2246C557.768 97.2246 562.179 96.4829 566.116 95C570.079 93.4915 573.467 91.3954 576.279 88.7109C579.092 86.0007 581.189 82.8299 582.57 79.1992L567.651 78.2021C566.858 79.7106 565.835 80.9763 564.582 81.999C563.329 82.9961 561.898 83.7504 560.287 84.2617C558.702 84.7731 557.001 85.0283 555.186 85.0283C552.399 85.0283 550.098 84.5303 548.282 83.5332C546.467 82.5105 545.189 80.976 544.447 78.9307C543.732 76.8852 543.629 74.3154 544.141 71.2217L544.217 70.7998H584.334L585.063 66.3125C585.881 61.3013 585.893 56.9292 585.101 53.1963C584.382 49.6968 583.078 46.7481 581.191 44.3496L580.806 43.877C578.709 41.3713 576.075 39.5046 572.904 38.2773C569.76 37.0246 566.244 36.3984 562.358 36.3984ZM560.709 48.5938C563.061 48.5938 565.043 49.1187 566.654 50.167C568.264 51.1897 569.415 52.6086 570.106 54.4238C570.796 56.239 570.949 58.3228 570.566 60.6748H546.045C546.493 58.6408 547.366 56.7487 548.666 54.999C550.098 53.0814 551.863 51.5345 553.959 50.3584C556.056 49.1823 558.306 48.5938 560.709 48.5938Z" fill="black"/>
<path d="M526.399 23.3203C527.663 23.3203 528.92 23.396 530.166 23.5293C531.585 23.6524 533.077 23.8703 534.576 24.2451L546.244 27.1621L543.738 42.002C540.3 44.3531 537.353 47.3307 534.898 50.9336C532.091 55.086 530.139 59.8485 529.037 65.2217L524.977 63.7705C524.95 63.7661 524.919 63.7611 524.885 63.7559C524.763 63.7374 524.606 63.7159 524.41 63.6934L524.271 63.6777L524.133 63.6582C523.347 63.5503 522.701 63.5108 522.181 63.5107C521.791 63.5107 521.621 63.5775 521.475 63.6523L521.359 63.7109C521.122 63.8297 520.941 63.9659 520.735 64.2246C520.648 64.3513 520.533 64.5647 520.447 65.0088L513.196 109.073H470.477L478.88 58.6475C479.048 58.4305 479.214 58.2117 479.376 57.9893C482.291 54.0007 484.182 49.3858 485.052 44.1445C485.895 38.9289 485.538 34.3264 483.979 30.3379C483.893 30.1135 483.802 29.8918 483.709 29.6729L484.628 24.1641H519.387C521.648 23.6079 523.991 23.3203 526.399 23.3203ZM526.399 36.3203C523.101 36.3203 520.02 37.2662 517.156 39.1582C514.318 41.0246 512.056 43.7863 510.368 47.4424H509.754L511.48 37.1641H495.641L485.822 96.0732H502.16L507.645 62.7451C508.079 60.3417 508.987 58.2198 510.368 56.3789C511.774 54.538 513.5 53.1057 515.546 52.083C517.591 51.0349 519.803 50.5117 522.181 50.5117C523.357 50.5117 524.597 50.6013 525.901 50.7803C527.23 50.9337 528.253 51.1379 528.969 51.3936L531.423 36.8584C530.707 36.6795 529.889 36.5503 528.969 36.4736C528.074 36.3714 527.218 36.3203 526.399 36.3203Z" fill="black"/>
<path d="M461.313 4.52344L461.314 17.5234H430.325L417.285 96.0689H433.892L438.146 70.6035L452.071 70.603L453.198 70.5908C458.609 70.4649 463.431 69.4246 467.666 67.4717L468.102 67.2663C472.73 65.0419 476.488 61.9482 479.378 57.9851C482.292 53.9964 484.184 49.3814 485.054 44.1399L494.226 45.6611L491.218 63.7031C490.791 64.3589 490.347 65.0059 489.882 65.6426L489.883 65.6436C485.669 71.4232 480.202 75.8743 473.734 78.9834C467.06 82.1914 459.732 83.6035 452.071 83.6035H449.154L444.9 109.069H401.949L404.107 96.0693L404.971 96.0689L418.011 17.5234H417.147L419.306 4.52344H461.313ZM455.944 31.1001C459.14 31.1001 461.684 31.6499 463.576 32.7493C465.494 33.8232 466.811 35.3317 467.527 37.2749C468.243 39.218 468.383 41.5064 467.949 44.1399L467.866 44.6211C467.427 47.0076 466.573 49.1362 465.303 51.0059L465.043 51.3691C463.717 53.1656 461.976 54.5917 459.818 55.6465L459.386 55.8457C457.197 56.812 454.592 57.2947 451.572 57.2947L440.37 57.2949L444.745 31.1001H455.944ZM461.313 4.52344C468.827 4.52344 476.199 5.95707 482.593 9.77637L482.592 9.77734C488.835 13.4646 493.508 18.8493 496.123 25.6924C497.564 29.4092 498.297 33.2603 498.461 37.1602H495.643L494.226 45.6611L485.054 44.1399C485.897 38.9242 485.54 34.3225 483.98 30.334C482.446 26.3198 479.761 23.1868 475.926 20.9368C472.116 18.6612 467.245 17.5234 461.314 17.5234L461.313 4.52344Z" fill="black"/>
<path d="M433.347 4.52344L431.188 17.5234H430.325L417.285 96.0689L418.148 96.0693L415.99 109.069H373.297L375.455 96.0693H376.625L389.665 17.5234H388.494L390.653 4.52344H433.347ZM401.673 17.5234L388.633 96.0689H404.971L418.011 17.5234H401.673Z" fill="black"/>
<path d="M405.003 4.52344L402.845 17.5234H401.675L388.635 96.0693H389.805L387.646 109.069H344.953L347.111 96.0693L352.221 96.0689L349.572 81.2441L362.309 4.52344H405.003ZM373.329 17.5234L360.289 96.0693H376.627L389.667 17.5234H373.329Z" fill="black"/>
<path d="M349.066 4.52344L362.763 81.1611L360.289 96.0693H365.427L367.75 109.069H323.313L320.491 91.1592H311.333L302.514 109.069H255.383L284.88 51.3691C284.899 51.3759 284.919 51.3818 284.938 51.3887L284.972 51.1885L308.829 4.52344H349.066ZM316.784 17.5234L276.629 96.0689H294.424L303.243 78.1592H331.604L334.426 96.0689H352.221L338.184 17.5234H316.784ZM324.876 35.4723L329.561 65.1953H309.626L324.262 35.4723H324.876Z" fill="black"/>
<path d="M282.368 23.3203C283.632 23.3203 284.89 23.396 286.136 23.5293C287.554 23.6524 289.047 23.8703 290.546 24.2451L302.214 27.1621L297.457 55.3301L291.259 67.4541L280.944 63.7705C280.918 63.7661 280.887 63.761 280.854 63.7559C280.732 63.7374 280.575 63.7159 280.38 63.6934L280.241 63.6777L280.103 63.6582C279.316 63.5503 278.669 63.5107 278.149 63.5107C277.76 63.5108 277.59 63.5776 277.444 63.6523L277.387 63.6816L277.328 63.7109C277.091 63.8297 276.911 63.9662 276.705 64.2246C276.617 64.3518 276.501 64.5663 276.415 65.0146L269.165 109.073H226.445L228.612 96.0732H230.196L236.831 56.3398C237.323 53.2757 237.239 50.5931 236.576 48.292L240.598 24.1641H275.355C277.617 23.6078 279.96 23.3203 282.368 23.3203ZM282.368 36.3203C279.07 36.3204 275.989 37.2664 273.126 39.1582C270.288 41.0247 268.024 43.7861 266.337 47.4424H265.724L267.449 37.1641H251.61L241.792 96.0732H258.13L263.614 62.7451C264.049 60.3418 264.956 58.2197 266.337 56.3789C267.743 54.538 269.469 53.1057 271.515 52.083C273.56 51.0348 275.772 50.5108 278.149 50.5107C279.326 50.5107 280.566 50.6003 281.87 50.7793C283.2 50.9327 284.223 51.1369 284.938 51.3926L287.393 36.8574C286.677 36.6785 285.859 36.5503 284.938 36.4736C284.044 36.3714 283.186 36.3203 282.368 36.3203Z" fill="black"/>
<path d="M215.161 23.3984C219.442 23.3984 223.639 23.8991 227.69 24.9912C231.989 26.1427 236.055 28.0263 239.648 30.8066C239.669 30.8223 239.691 30.8378 239.711 30.8535C243.776 33.9947 246.732 38.0999 248.473 42.8857C249.102 44.5846 249.531 46.3057 249.798 48.0283L241.791 96.0742H243.375L241.204 109.074H206.42C203.297 109.848 200.089 110.187 196.867 110.187C191.638 110.187 186.41 109.273 181.57 106.966L181.505 106.934L181.438 106.901C176.251 104.356 172.107 100.349 169.508 95.0459C168.403 92.7912 167.698 90.472 167.304 88.1475C169.833 85.5639 171.742 82.5818 173.028 79.1992L167.203 78.8096C167.261 78.3694 167.325 77.932 167.396 77.498L167.403 77.458L167.41 77.4189C167.796 75.1759 168.372 72.9539 169.176 70.7998H174.792L175.521 66.3125C176.339 61.3013 176.352 56.9292 175.56 53.1963C175.271 51.7897 174.887 50.4719 174.409 49.2432C176.399 43.9376 179.444 39.2347 183.514 35.2812C187.613 31.2981 192.449 28.3484 197.82 26.3613C203.296 24.3098 209.134 23.3985 215.161 23.3984ZM215.161 36.3984C210.431 36.3985 206.161 37.1141 202.352 38.5459C198.542 39.9521 195.282 41.9721 192.572 44.6055C189.888 47.2134 187.88 50.3072 186.551 53.8867L201.432 55.1143C202.301 53.1456 203.745 51.5216 205.765 50.2432C207.81 48.9648 210.29 48.3252 213.205 48.3252C215.966 48.3252 217.974 49.0033 219.227 50.3584C220.505 51.6879 220.953 53.5546 220.569 55.958V56.1875C220.339 57.4403 219.687 58.3872 218.613 59.0264C217.539 59.64 215.915 60.1129 213.742 60.4453C211.595 60.7777 208.808 61.1225 205.382 61.4805C202.416 61.7361 199.539 62.2216 196.752 62.9375C193.991 63.6534 191.473 64.689 189.197 66.0439C186.922 67.3991 184.991 69.1896 183.405 71.4141C181.846 73.6128 180.785 76.3486 180.223 79.6211L180.113 80.3379C179.626 83.8838 179.983 86.8793 181.182 89.3242C182.46 91.9321 184.454 93.901 187.164 95.2305C189.9 96.5344 193.134 97.1865 196.867 97.1865C199.782 97.1865 202.415 96.8031 204.768 96.0361C207.12 95.2435 209.204 94.157 211.02 92.7764C212.835 91.3702 214.368 89.7461 215.621 87.9053H216.082L214.701 96.0742H230.195L236.83 56.3408C237.393 52.8381 237.201 49.8337 236.255 47.3281C235.392 44.9551 234.012 42.9869 232.115 41.4229L231.729 41.1152C229.788 39.6051 227.498 38.4658 224.859 37.6973L224.327 37.5488C221.489 36.7818 218.434 36.3984 215.161 36.3984ZM217.501 75.0186C217.143 77.0896 216.299 78.9437 214.97 80.5801C213.666 82.2164 212.003 83.5206 209.983 84.4922C207.989 85.438 205.803 85.9111 203.426 85.9111C200.895 85.9111 198.912 85.3351 197.48 84.1846C196.075 83.0084 195.55 81.3082 195.908 79.084C196.138 77.55 196.739 76.2717 197.711 75.249C198.683 74.2007 199.948 73.3695 201.508 72.7559C203.067 72.1422 204.832 71.6953 206.801 71.4141C207.696 71.2607 208.705 71.1065 209.83 70.9531C210.955 70.7741 212.068 70.5825 213.167 70.3779C214.292 70.1478 215.327 69.9051 216.273 69.6494C217.245 69.3937 217.987 69.1 218.498 68.7676L217.501 75.0186Z" fill="black"/>
<path d="M152.816 23.3984C158.066 23.3985 163.205 24.2417 168.055 26.1543C168.064 26.1581 168.075 26.1622 168.085 26.166C168.114 26.1777 168.144 26.1884 168.174 26.2002C173.259 28.1899 177.695 31.3051 181.233 35.5342C184.862 39.8451 187.078 44.9073 188.223 50.2607C187.58 51.4084 187.022 52.6167 186.551 53.8867L188.855 54.0762C189.32 58.0841 189.195 62.2178 188.646 66.3857C186.609 67.6954 184.861 69.3713 183.405 71.4141C181.846 73.6128 180.785 76.3486 180.223 79.6211C179.583 83.4819 179.903 86.7163 181.182 89.3242C181.388 89.7459 181.615 90.1498 181.859 90.5381C180.16 93.2763 178.122 95.7943 175.759 98.0713L175.714 98.1143C171.539 102.099 166.633 105.082 161.199 107.15L161.156 107.166C155.539 109.281 149.544 110.225 143.343 110.225C135.59 110.225 128.044 108.647 121.502 104.595L121.477 104.579L121.451 104.562C114.932 100.483 110.303 94.5966 107.739 87.3936L107.725 87.3525L107.71 87.3105C107.307 86.1528 106.964 84.9809 106.68 83.7969L112.899 46.3301C113.431 45.4222 113.993 44.5298 114.586 43.6533L114.613 43.6123C118.855 37.3886 124.3 32.3898 130.884 28.8115C137.643 25.1382 145.046 23.3984 152.816 23.3984ZM152.816 36.3984C147.038 36.3984 141.796 37.6766 137.092 40.2334C132.387 42.7902 128.476 46.357 125.356 50.9336C122.263 55.5102 120.204 60.8282 119.182 66.8877C118.133 73.1006 118.401 78.4831 119.986 83.0342C121.597 87.5597 124.385 91.0629 128.348 93.543C132.311 95.9974 137.309 97.2246 143.343 97.2246C148.226 97.2246 152.638 96.483 156.575 95C160.538 93.4915 163.926 91.3954 166.738 88.7109C169.551 86.0007 171.648 82.8299 173.028 79.1992L158.108 78.2021C157.316 79.7105 156.294 80.9764 155.041 81.999C153.788 82.9962 152.356 83.7504 150.745 84.2617C149.16 84.7731 147.46 85.0283 145.645 85.0283C142.858 85.0283 140.557 84.5303 138.741 83.5332C136.926 82.5105 135.647 80.9761 134.905 78.9307C134.189 76.8852 134.087 74.3153 134.599 71.2217L134.675 70.7998H174.792L175.521 66.3125C176.339 61.3013 176.352 56.9292 175.56 53.1963C174.841 49.6969 173.537 46.748 171.649 44.3496L171.264 43.877C169.298 41.5278 166.861 39.7401 163.951 38.5146L163.363 38.2773C160.218 37.0245 156.703 36.3985 152.816 36.3984ZM151.167 48.5938C153.519 48.5938 155.501 49.1187 157.111 50.167C158.722 51.1897 159.873 52.6085 160.563 54.4238C161.254 56.2391 161.407 58.3227 161.023 60.6748H136.504C136.952 58.6409 137.824 56.7487 139.124 54.999C140.556 53.0814 142.32 51.5345 144.417 50.3584C146.514 49.1823 148.764 48.5938 151.167 48.5938Z" fill="black"/>
<path d="M133.02 4.52344L125.301 51.0137C122.239 55.5712 120.199 60.8606 119.183 66.8828C118.135 73.0944 118.402 78.4765 119.986 83.027L115.663 109.069H72.9688L78.0371 78.54C79.9006 75.5352 81.2998 72.4299 82.2324 69.2227H79.584L83.6016 45.0225H86.1826C86.3217 41.487 85.9947 38.261 85.208 35.3428L90.3252 4.52344H133.02ZM101.344 17.5234L88.3057 96.0693L104.643 96.0689L117.683 17.5234H101.344Z" fill="black"/>
<path d="M55.9992 3.45312C61.856 3.45317 67.5228 4.25338 72.8546 6.05469C78.1458 7.84229 82.9658 10.5615 87.0783 14.3311L87.0802 14.3301C91.3449 18.1886 94.5005 22.8986 96.5539 28.2451C97.3947 30.4345 98.0147 32.6846 98.4464 34.9766L96.7101 45.4385L86.182 45.0256C86.361 40.4744 85.773 36.4347 84.4178 32.9062C83.0627 29.3778 81.0428 26.3991 78.3582 23.9702C75.8654 21.6691 72.8782 19.8846 69.3966 18.6172L68.6934 18.3707C65.1459 17.1723 61.2052 16.5349 56.8712 16.46L55.9988 16.4531C49.2744 16.4531 42.959 17.9744 37.0528 21.017C31.1721 24.0597 26.1735 28.5213 22.057 34.402C17.9661 40.2571 15.2175 47.3906 13.8113 55.8026L13.6847 56.6133C12.433 64.9583 12.8972 72.1158 15.0769 78.0852C17.3269 84.2472 20.996 88.9645 26.084 92.2372C31.0379 95.4076 36.9397 97.0426 43.7892 97.1416L44.4548 97.1463C49.3894 97.1463 53.9278 96.3793 58.0698 94.8452C62.2119 93.3111 65.9065 91.2401 69.1536 88.6321C72.4008 85.9986 75.1238 83.0071 77.3227 79.6577C79.5471 76.3082 81.1835 72.831 82.2318 69.2259H65.5485C64.807 71.2969 63.7715 73.1506 62.442 74.7869L62.1945 75.0908C60.9452 76.5962 59.4934 77.8888 57.8397 78.9673L57.1789 79.377C55.6156 80.3055 53.9055 81.0383 52.0485 81.5753L51.2472 81.7822C49.3653 82.2324 47.395 82.4574 45.3369 82.4574L45.3371 69.457C46.5681 69.457 47.6124 69.3068 48.5158 69.0625C49.4498 68.7851 50.1749 68.4391 50.758 68.0645C51.3566 67.6712 51.8484 67.2216 52.2755 66.6855L52.3136 66.6367L52.3527 66.5889C52.7152 66.1427 53.0412 65.5908 53.3087 64.8438L56.3459 56.3594L56.6173 44.7227C56.6222 44.5152 56.6183 44.34 56.6115 44.1943C56.3964 44.1655 56.107 44.1416 55.7306 44.1416C53.8219 44.1416 52.2909 44.5864 50.8625 45.4414C49.4307 46.2984 47.9221 47.701 46.4621 50.124L46.4425 50.1553C45.0757 52.4091 43.8816 55.5483 43.1701 59.8965L43.1691 59.9053L43.1671 59.9141C42.4505 64.2546 42.7009 66.7615 43.0363 67.9912C43.2351 68.7201 43.4319 69.0818 43.5128 69.2119C43.5598 69.2313 43.6216 69.2547 43.7033 69.2783C43.9611 69.3529 44.4753 69.457 45.3371 69.457L45.3369 82.4574L44.63 82.4463C41.3649 82.3456 38.5794 81.5405 36.2736 80.0303L35.7872 79.696C33.4141 77.9462 31.7153 75.4097 30.6906 72.0869L30.4945 71.4119C29.5597 67.9842 29.4566 63.781 30.1847 58.8027L30.3411 57.7969C31.2041 52.5233 32.7185 47.9798 34.8849 44.167L35.3269 43.4148C37.5801 39.6754 40.3168 36.7678 43.5363 34.6914L44.1863 34.2869C47.6891 32.1903 51.5372 31.142 55.7303 31.142L56.1349 31.1455C58.1469 31.1829 59.9683 31.5017 61.5982 32.1009C63.3369 32.7145 64.807 33.6222 66.0087 34.8239L66.2355 35.0518C67.3501 36.2083 68.1948 37.59 68.7701 39.196C69.3837 40.8835 69.665 42.8267 69.6139 45.0256H86.182L96.7101 45.4385L90.4709 83.0234C89.7653 84.3028 89.0046 85.5591 88.1886 86.791L88.1896 86.792C88.1833 86.8016 88.1764 86.8107 88.1701 86.8203C88.1637 86.8299 88.1579 86.8401 88.1515 86.8496L88.1505 86.8486C85.1921 91.3418 81.5656 95.303 77.3419 98.7285L77.3185 98.748L77.2941 98.7676C72.8925 102.303 67.9585 105.046 62.5851 107.036C56.8386 109.164 50.7505 110.146 44.4543 110.146C35.2792 110.146 26.6254 108.018 19.0763 103.187L19.0509 103.171C11.3712 98.2311 6.00159 91.1329 2.86538 82.5439C-0.36454 73.6983 -0.666691 63.892 0.977689 53.7266L0.983548 53.6924L0.989408 53.6592C2.65326 43.7063 6.00837 34.6736 11.4005 26.9561L11.4074 26.9473C16.6252 19.4932 23.1778 13.5589 31.0793 9.4707L31.089 9.46582L31.0998 9.45996C38.8701 5.45714 47.2299 3.45312 55.9992 3.45312Z" fill="black"/>
</g>
<defs>
<filter id="filter0_d_4674_2441" x="0" y="0" width="1037.47" height="130.227" filterUnits="userSpaceOnUse" color-interpolation-filters="sRGB">
<feFlood flood-opacity="0" result="BackgroundImageFix"/>
<feColorMatrix in="SourceAlpha" type="matrix" values="0 0 0 0 0 0 0 0 0 0 0 0 0 0 0 0 0 0 127 0" result="hardAlpha"/>
<feOffset dx="16" dy="16"/>
<feGaussianBlur stdDeviation="2"/>
<feComposite in2="hardAlpha" operator="out"/>
<feColorMatrix type="matrix" values="0 0 0 0 0 0 0 0 0 0 0 0 0 0 0 0 0 0 0.25 0"/>
<feBlend mode="normal" in2="BackgroundImageFix" result="effect1_dropShadow_4674_2441"/>
<feBlend mode="normal" in="SourceGraphic" in2="effect1_dropShadow_4674_2441" result="shape"/>
</filter>
</defs>
</svg>
