<svg width="1157" height="131" viewBox="0 0 1157 131" fill="none" xmlns="http://www.w3.org/2000/svg">
<g filter="url(#filter0_d_4674_2515)">
<path d="M1123.21 53.956L1108.37 54.8764C1108.29 53.5724 1107.94 52.4091 1107.3 51.3864C1106.68 50.3381 1105.78 49.5071 1104.57 48.8935C1103.4 48.2798 1101.91 47.973 1100.12 47.973C1097.44 47.973 1095.05 48.5866 1092.95 49.8139C1090.86 51.0412 1089.67 52.6136 1089.39 54.5312C1089.16 55.7585 1089.48 56.794 1090.34 57.6378C1091.21 58.4815 1092.97 59.1974 1095.6 59.7855L1105.95 61.9332C1111.48 63.1094 1115.47 65.0653 1117.92 67.8011C1120.4 70.5369 1121.28 74.1165 1120.57 78.5398C1119.93 82.2983 1118.28 85.5838 1115.62 88.3963C1112.96 91.1832 1109.58 93.3565 1105.49 94.9162C1101.4 96.4503 1096.86 97.2173 1091.88 97.2173C1083.88 97.2173 1077.79 95.581 1073.62 92.3082C1069.46 89.0355 1067.45 84.5994 1067.6 79L1083.56 78.1562C1083.68 80.5597 1084.53 82.375 1086.09 83.6023C1087.65 84.804 1089.78 85.4176 1092.49 85.4432C1095.54 85.4943 1098.12 84.8679 1100.24 83.5639C1102.39 82.2344 1103.6 80.6236 1103.88 78.7315C1104.09 77.402 1103.7 76.3281 1102.73 75.5099C1101.79 74.6918 1100.05 74.0142 1097.52 73.4773L1087.7 71.4446C1082.12 70.294 1078.12 68.2358 1075.69 65.2699C1073.27 62.304 1072.43 58.5327 1073.2 53.956C1073.82 50.2997 1075.34 47.1676 1077.77 44.5597C1080.22 41.9261 1083.38 39.9062 1087.24 38.5C1091.12 37.0938 1095.51 36.3906 1100.39 36.3906C1108.04 36.3906 1113.79 37.9631 1117.65 41.108C1121.54 44.2528 1123.39 48.5355 1123.21 53.956Z" fill="white"/>
<path d="M1023.25 62.0099L1017.57 96.0668H1001.27L1011.09 37.1577H1026.62L1024.93 47.5511H1025.58C1027.45 44.0994 1030.08 41.3764 1033.49 39.3821C1036.91 37.3878 1040.81 36.3906 1045.18 36.3906C1049.27 36.3906 1052.69 37.2855 1055.42 39.0753C1058.18 40.8651 1060.13 43.4091 1061.25 46.7074C1062.4 50.0057 1062.59 53.956 1061.83 58.5582L1055.54 96.0668H1039.2L1044.99 61.473C1045.58 57.8679 1045.12 55.0554 1043.61 53.0355C1042.13 50.9901 1039.74 49.9673 1036.44 49.9673C1034.24 49.9673 1032.22 50.4403 1030.38 51.3864C1028.54 52.3324 1026.99 53.7131 1025.74 55.5284C1024.51 57.3182 1023.68 59.4787 1023.25 62.0099Z" fill="white"/>
<path d="M962.693 97.2173C956.685 97.2173 951.712 95.9389 947.774 93.3821C943.837 90.7997 941.063 87.2202 939.452 82.6435C937.867 78.0412 937.573 72.6847 938.57 66.5739C939.541 60.5398 941.561 55.2599 944.629 50.7344C947.698 46.2088 951.597 42.6932 956.327 40.1875C961.057 37.6562 966.388 36.3906 972.32 36.3906C978.303 36.3906 983.263 37.6818 987.2 40.2642C991.138 42.821 993.912 46.4006 995.523 51.0028C997.134 55.6051 997.44 60.9617 996.443 67.0724C995.446 73.081 993.401 78.348 990.307 82.8736C987.213 87.3991 983.314 90.9276 978.609 93.4588C973.905 95.9645 968.6 97.2173 962.693 97.2173ZM964.304 84.5611C967.066 84.5611 969.507 83.7812 971.629 82.2216C973.777 80.6364 975.554 78.4886 976.96 75.7784C978.392 73.0426 979.389 69.9489 979.952 66.4972C980.514 63.0966 980.553 60.0795 980.067 57.446C979.581 54.7869 978.558 52.6903 976.999 51.1562C975.465 49.6222 973.355 48.8551 970.671 48.8551C967.909 48.8551 965.455 49.6477 963.307 51.233C961.159 52.7926 959.382 54.9403 957.976 57.6761C956.57 60.4119 955.585 63.5185 955.023 66.9957C954.486 70.3707 954.448 73.3878 954.908 76.0469C955.368 78.6804 956.378 80.7642 957.938 82.2983C959.497 83.8068 961.619 84.5611 964.304 84.5611Z" fill="white"/>
<path d="M907.652 96.071L917.471 37.1619H933.809L923.99 96.071H907.652ZM927.327 29.4915C924.898 29.4915 922.891 28.6861 921.306 27.0753C919.746 25.4389 919.107 23.4957 919.388 21.2457C919.669 18.9446 920.769 17.0014 922.686 15.4162C924.604 13.8054 926.777 13 929.206 13C931.635 13 933.617 13.8054 935.151 15.4162C936.685 17.0014 937.324 18.9446 937.069 21.2457C936.813 23.4957 935.726 25.4389 933.809 27.0753C931.917 28.6861 929.756 29.4915 927.327 29.4915Z" fill="white"/>
<path d="M907.91 37.1605L905.878 49.4332H870.363L872.434 37.1605H907.91ZM882.789 23.0469H899.128L890 77.9673C889.744 79.4759 889.782 80.652 890.115 81.4957C890.447 82.3139 890.997 82.8892 891.764 83.2216C892.556 83.554 893.502 83.7202 894.602 83.7202C895.369 83.7202 896.149 83.6563 896.941 83.5284C897.734 83.375 898.335 83.2599 898.744 83.1832L899.358 95.3409C898.437 95.6222 897.197 95.929 895.637 96.2614C894.103 96.5938 892.288 96.7983 890.191 96.875C886.203 97.0284 882.828 96.5043 880.066 95.3026C877.305 94.0753 875.324 92.196 874.122 89.6648C872.92 87.1335 872.664 83.9503 873.355 80.1151L882.789 23.0469Z" fill="white"/>
<path d="M830.912 97.2173C824.852 97.2173 819.866 95.9389 815.954 93.3821C812.068 90.7997 809.345 87.2202 807.785 82.6435C806.251 78.0668 805.983 72.7997 806.98 66.8423C807.951 60.8082 809.984 55.5156 813.078 50.9645C816.172 46.3878 820.096 42.821 824.852 40.2642C829.633 37.6818 835.003 36.3906 840.96 36.3906C846.099 36.3906 850.446 37.3239 854 39.1903C857.554 41.0568 860.162 43.6776 861.824 47.0526C863.486 50.4276 864.048 54.3906 863.511 58.9418H848.132C848.157 56.027 847.403 53.6619 845.869 51.8466C844.335 50.0312 842.085 49.1236 839.119 49.1236C836.562 49.1236 834.21 49.8139 832.062 51.1946C829.94 52.5497 828.138 54.5312 826.655 57.1392C825.197 59.7472 824.174 62.9048 823.586 66.6122C822.973 70.3707 822.96 73.5668 823.548 76.2003C824.136 78.8338 825.261 80.8409 826.923 82.2216C828.585 83.6023 830.682 84.2926 833.213 84.2926C835.105 84.2926 836.856 83.9091 838.467 83.142C840.103 82.375 841.535 81.2628 842.763 79.8054C843.99 78.3224 844.936 76.5454 845.601 74.4744H861.018C859.97 79 858.065 82.9631 855.304 86.3636C852.568 89.7642 849.129 92.4233 844.987 94.3409C840.845 96.2585 836.153 97.2173 830.912 97.2173Z" fill="white"/>
<path d="M776.105 96.071L785.924 37.1619H802.262L792.444 96.071H776.105ZM795.78 29.4915C793.351 29.4915 791.344 28.6861 789.759 27.0753C788.199 25.4389 787.56 23.4957 787.841 21.2457C788.123 18.9446 789.222 17.0014 791.14 15.4162C793.057 13.8054 795.231 13 797.659 13C800.088 13 802.07 13.8054 803.604 15.4162C805.138 17.0014 805.777 18.9446 805.522 21.2457C805.266 23.4957 804.179 25.4389 802.262 27.0753C800.37 28.6861 798.209 29.4915 795.78 29.4915Z" fill="white"/>
<path d="M730.154 97.0277C725.654 97.0277 721.781 95.8771 718.533 93.576C715.312 91.2493 713.011 87.8359 711.63 83.3359C710.275 78.8104 710.147 73.2621 711.246 66.691C712.371 59.941 714.391 54.3288 717.306 49.8544C720.221 45.3544 723.673 41.9922 727.661 39.7678C731.65 37.5178 735.805 36.3928 740.126 36.3928C743.398 36.3928 746.045 36.9553 748.065 38.0803C750.11 39.1797 751.683 40.5604 752.782 42.2223C753.881 43.8587 754.648 45.4695 755.083 47.0547H755.582L760.529 17.5234H776.829L763.789 96.0689H747.681L749.254 86.6342H748.563C747.541 88.2706 746.185 89.8942 744.498 91.505C742.836 93.0902 740.816 94.407 738.438 95.4553C736.086 96.5035 733.325 97.0277 730.154 97.0277ZM737.364 84.0263C739.972 84.0263 742.325 83.3104 744.421 81.8786C746.518 80.4212 748.282 78.3885 749.714 75.7805C751.146 73.1726 752.143 70.1172 752.705 66.6143C753.293 63.1115 753.306 60.0689 752.744 57.4865C752.181 54.9041 751.082 52.9098 749.445 51.5036C747.835 50.0973 745.7 49.3942 743.041 49.3942C740.356 49.3942 737.978 50.1229 735.907 51.5803C733.862 53.0376 732.161 55.0575 730.806 57.6399C729.477 60.2223 728.531 63.2138 727.968 66.6143C727.406 70.0405 727.367 73.0703 727.853 75.7038C728.339 78.3118 729.374 80.3572 730.96 81.8402C732.545 83.2976 734.68 84.0263 737.364 84.0263Z" fill="white"/>
<path d="M671.643 97.2173C665.609 97.2173 660.611 95.9901 656.648 93.5355C652.685 91.0554 649.898 87.5526 648.287 83.027C646.702 78.4759 646.433 73.0937 647.481 66.8807C648.504 60.821 650.562 55.5028 653.656 50.9261C656.775 46.3494 660.687 42.7827 665.392 40.2258C670.096 37.669 675.338 36.3906 681.116 36.3906C685.003 36.3906 688.518 37.017 691.663 38.2699C694.834 39.4972 697.467 41.3636 699.564 43.8693C701.66 46.3494 703.092 49.456 703.859 53.1889C704.652 56.9219 704.639 61.294 703.821 66.3054L703.092 70.7926H653.388L654.96 60.6676H689.324C689.707 58.3153 689.554 56.2315 688.864 54.4162C688.173 52.6009 687.023 51.1818 685.412 50.1591C683.801 49.1108 681.819 48.5866 679.467 48.5866C677.064 48.5866 674.814 49.1747 672.717 50.3508C670.621 51.527 668.856 53.0739 667.425 54.9915C666.018 56.8835 665.111 58.9418 664.702 61.1662L662.899 71.2145C662.388 74.3082 662.49 76.8778 663.206 78.9233C663.947 80.9687 665.226 82.5028 667.041 83.5256C668.856 84.5227 671.158 85.0213 673.944 85.0213C675.76 85.0213 677.46 84.7656 679.045 84.2543C680.656 83.7429 682.088 82.9886 683.341 81.9915C684.594 80.9687 685.616 79.7031 686.409 78.1946L701.328 79.1918C699.947 82.8224 697.851 85.9929 695.038 88.7031C692.226 91.3878 688.838 93.4844 684.875 94.9929C680.937 96.4759 676.527 97.2173 671.643 97.2173Z" fill="white"/>
<path d="M604.582 96.0732L614.4 37.1641H630.24L628.514 47.4425H629.128C630.815 43.7862 633.078 41.0249 635.916 39.1584C638.779 37.2663 641.86 36.3203 645.159 36.3203C645.977 36.3203 646.833 36.3714 647.728 36.4737C648.649 36.5504 649.467 36.6783 650.183 36.8572L647.728 51.3928C647.012 51.1371 645.99 50.9325 644.66 50.7791C643.356 50.6001 642.116 50.5107 640.94 50.5107C638.562 50.5107 636.351 51.0348 634.305 52.0831C632.26 53.1058 630.534 54.5376 629.128 56.3786C627.747 58.2195 626.839 60.3416 626.404 62.745L620.92 96.0732H604.582Z" fill="white"/>
<path d="M536.043 96.0689L549.083 17.5234H580.071C586.003 17.5234 590.874 18.6612 594.684 20.9368C598.519 23.1868 601.204 26.3189 602.738 30.3331C604.297 34.3217 604.655 38.924 603.811 44.1399C602.942 49.3814 601.05 53.9964 598.135 57.9851C595.246 61.9482 591.488 65.0419 586.86 67.2663C582.232 69.4908 576.888 70.603 570.828 70.603H551.077L553.263 57.2947H570.33C573.551 57.2947 576.3 56.745 578.576 55.6456C580.877 54.5206 582.705 52.9737 584.06 51.005C585.415 49.0107 586.297 46.7223 586.706 44.1399C587.141 41.5064 587 39.218 586.284 37.2749C585.569 35.3317 584.252 33.8232 582.334 32.7493C580.442 31.6499 577.898 31.1001 574.702 31.1001H563.503L552.65 96.0689H536.043Z" fill="white"/>
<path d="M489.787 97.0277C485.287 97.0277 481.413 95.8771 478.166 93.576C474.945 91.2493 472.643 87.8359 471.263 83.3359C469.908 78.8104 469.78 73.2621 470.879 66.691C472.004 59.941 474.024 54.3288 476.939 49.8544C479.854 45.3544 483.305 41.9922 487.294 39.7678C491.283 37.5178 495.438 36.3928 499.759 36.3928C503.031 36.3928 505.678 36.9553 507.697 38.0803C509.743 39.1797 511.315 40.5604 512.415 42.2223C513.514 43.8587 514.281 45.4695 514.716 47.0547H515.215L520.162 17.5234H536.462L523.422 96.0689H507.314L508.886 86.6342H508.196C507.173 88.2706 505.818 89.8942 504.131 91.505C502.469 93.0902 500.449 94.407 498.071 95.4553C495.719 96.5035 492.957 97.0277 489.787 97.0277ZM496.997 84.0263C499.605 84.0263 501.957 83.3104 504.054 81.8786C506.151 80.4212 507.915 78.3885 509.347 75.7805C510.778 73.1726 511.776 70.1172 512.338 66.6143C512.926 63.1115 512.939 60.0689 512.376 57.4865C511.814 54.9041 510.715 52.9098 509.078 51.5036C507.467 50.0973 505.332 49.3942 502.673 49.3942C499.989 49.3942 497.611 50.1229 495.54 51.5803C493.494 53.0376 491.794 55.0575 490.439 57.6399C489.109 60.2223 488.163 63.2138 487.601 66.6143C487.038 70.0405 487 73.0703 487.486 75.7038C487.972 78.3118 489.007 80.3572 490.592 81.8402C492.178 83.2976 494.313 84.0263 496.997 84.0263Z" fill="white"/>
<path d="M423.234 97.179C419.501 97.179 416.267 96.527 413.531 95.223C410.821 93.8935 408.826 91.9247 407.548 89.3168C406.27 86.7088 405.95 83.4744 406.589 79.6136C407.152 76.3409 408.213 73.6051 409.772 71.4062C411.358 69.1818 413.288 67.392 415.564 66.0369C417.839 64.6818 420.358 63.6463 423.119 62.9304C425.906 62.2145 428.782 61.7287 431.748 61.473C435.174 61.1151 437.961 60.7699 440.109 60.4375C442.282 60.1051 443.906 59.6321 444.98 59.0185C446.054 58.3793 446.706 57.4332 446.936 56.1804V55.9503C447.319 53.5469 446.872 51.6804 445.593 50.3508C444.341 48.9957 442.333 48.3182 439.572 48.3182C436.657 48.3182 434.177 48.9574 432.132 50.2358C430.112 51.5142 428.667 53.1378 427.798 55.1065L412.917 53.8793C414.247 50.2997 416.254 47.206 418.939 44.598C421.649 41.9645 424.909 39.9446 428.718 38.5383C432.528 37.1065 436.798 36.3906 441.528 36.3906C444.801 36.3906 447.856 36.7741 450.694 37.5412C453.558 38.3082 456.025 39.4972 458.096 41.108C460.193 42.7187 461.701 44.7898 462.622 47.321C463.568 49.8267 463.76 52.831 463.197 56.3338L456.562 96.0668H441.068L442.449 87.8977H441.988C440.735 89.7386 439.201 91.3622 437.386 92.7685C435.571 94.1491 433.487 95.2358 431.135 96.0284C428.782 96.7955 426.149 97.179 423.234 97.179ZM429.792 85.9034C432.17 85.9034 434.356 85.4304 436.35 84.4844C438.37 83.5128 440.032 82.2088 441.336 80.5724C442.666 78.9361 443.51 77.0824 443.868 75.0114L444.865 68.7599C444.353 69.0923 443.612 69.3864 442.64 69.642C441.694 69.8977 440.659 70.1406 439.534 70.3707C438.434 70.5753 437.322 70.767 436.197 70.946C435.072 71.0994 434.062 71.2528 433.167 71.4062C431.199 71.6875 429.434 72.1349 427.875 72.7486C426.315 73.3622 425.049 74.1932 424.078 75.2415C423.106 76.2642 422.505 77.5426 422.275 79.0767C421.917 81.3011 422.441 83.0014 423.848 84.1776C425.279 85.3281 427.261 85.9034 429.792 85.9034Z" fill="white"/>
<path d="M368.127 97.2173C362.118 97.2173 357.145 95.9389 353.208 93.3821C349.27 90.7997 346.496 87.2202 344.885 82.6435C343.3 78.0412 343.006 72.6847 344.003 66.5739C344.975 60.5398 346.995 55.2599 350.063 50.7344C353.131 46.2088 357.03 42.6932 361.76 40.1875C366.491 37.6562 371.822 36.3906 377.753 36.3906C383.736 36.3906 388.697 37.6818 392.634 40.2642C396.572 42.821 399.346 46.4006 400.956 51.0028C402.567 55.6051 402.874 60.9617 401.877 67.0724C400.88 73.081 398.834 78.348 395.741 82.8736C392.647 87.3991 388.748 90.9276 384.043 93.4588C379.339 95.9645 374.033 97.2173 368.127 97.2173ZM369.738 84.5611C372.499 84.5611 374.941 83.7812 377.063 82.2216C379.211 80.6364 380.988 78.4886 382.394 75.7784C383.826 73.0426 384.823 69.9489 385.385 66.4972C385.948 63.0966 385.986 60.0795 385.5 57.446C385.015 54.7869 383.992 52.6903 382.432 51.1562C380.898 49.6222 378.789 48.8551 376.104 48.8551C373.343 48.8551 370.888 49.6477 368.741 51.233C366.593 52.7926 364.816 54.9403 363.41 57.6761C362.003 60.4119 361.019 63.5185 360.456 66.9957C359.92 70.3707 359.881 73.3878 360.341 76.0469C360.802 78.6804 361.812 80.7642 363.371 82.2983C364.931 83.8068 367.053 84.5611 369.738 84.5611Z" fill="white"/>
<path d="M342.464 17.5234L329.424 96.0689H313.086L326.126 17.5234H342.464Z" fill="white"/>
<path d="M269.074 62.0099L263.397 96.0668H247.098L256.916 37.1577H272.449L270.761 47.5511H271.413C273.279 44.0994 275.913 41.3764 279.314 39.3821C282.74 37.3878 286.639 36.3906 291.011 36.3906C295.102 36.3906 298.515 37.2855 301.251 39.0753C304.012 40.8651 305.956 43.4091 307.081 46.7074C308.231 50.0057 308.423 53.956 307.656 58.5582L301.366 96.0668H285.028L290.819 61.473C291.407 57.8679 290.947 55.0554 289.439 53.0355C287.956 50.9901 285.565 49.9673 282.267 49.9673C280.068 49.9673 278.048 50.4403 276.207 51.3864C274.366 52.3324 272.819 53.7131 271.566 55.5284C270.339 57.3182 269.508 59.4787 269.074 62.0099Z" fill="white"/>
<path d="M167.822 96.0732L161.609 37.1641H178.139L180.67 76.7436H181.207L197.315 37.1641H213.538L216.607 76.5135H217.105L232.676 37.1641H249.168L223.357 96.0732H206.06L202.071 59.0249H201.342L185.081 96.0732H167.822Z" fill="white"/>
<path d="M119.217 97.2173C113.208 97.2173 108.235 95.9389 104.298 93.3821C100.36 90.7997 97.5861 87.2202 95.9753 82.6435C94.3901 78.0412 94.096 72.6847 95.0932 66.5739C96.0648 60.5398 98.0847 55.2599 101.153 50.7344C104.221 46.2088 108.12 42.6932 112.85 40.1875C117.58 37.6562 122.911 36.3906 128.843 36.3906C134.826 36.3906 139.786 37.6818 143.724 40.2642C147.661 42.821 150.436 46.4006 152.046 51.0028C153.657 55.6051 153.964 60.9617 152.967 67.0724C151.97 73.081 149.924 78.348 146.83 82.8736C143.737 87.3991 139.838 90.9276 135.133 93.4588C130.428 95.9645 125.123 97.2173 119.217 97.2173ZM120.828 84.5611C123.589 84.5611 126.031 83.7812 128.153 82.2216C130.301 80.6364 132.078 78.4886 133.484 75.7784C134.916 73.0426 135.913 69.9489 136.475 66.4972C137.038 63.0966 137.076 60.0795 136.59 57.446C136.105 54.7869 135.082 52.6903 133.522 51.1562C131.988 49.6222 129.879 48.8551 127.194 48.8551C124.433 48.8551 121.978 49.6477 119.83 51.233C117.683 52.7926 115.906 54.9403 114.499 57.6761C113.093 60.4119 112.109 63.5185 111.546 66.9957C111.009 70.3707 110.971 73.3878 111.431 76.0469C111.891 78.6804 112.901 80.7642 114.461 82.2983C116.021 83.8068 118.143 84.5611 120.828 84.5611Z" fill="white"/>
<path d="M43.5632 96.0689H15.3359L28.3757 17.5234H56.0661C63.9666 17.5234 70.5249 19.1342 75.7408 22.3558C80.9822 25.5774 84.6769 30.1925 86.8246 36.201C88.9723 42.1839 89.3558 49.3303 87.9752 57.6399C86.6456 65.6683 83.9993 72.5589 80.0362 78.3118C76.0732 84.0391 70.9979 88.4368 64.8104 91.505C58.6229 94.5476 51.5405 96.0689 43.5632 96.0689ZM34.3203 81.8402H44.522C49.4567 81.8402 53.7777 80.9197 57.4851 79.0788C61.218 77.2379 64.2734 74.3999 66.6513 70.5646C69.0547 66.7294 70.755 61.8203 71.7521 55.8374C72.6982 50.1612 72.6342 45.5589 71.5604 42.0305C70.5121 38.4766 68.4794 35.8814 65.4624 34.245C62.4453 32.5831 58.4822 31.7521 53.5732 31.7521H42.6428L34.3203 81.8402Z" fill="white"/>
<path d="M1100.39 23.3984C1109.51 23.3985 1118.73 25.2237 1125.86 31.0361C1133.19 36.9837 1136.51 45.3129 1136.21 54.3926L1135.82 66.207L1132.12 66.4355C1133.89 71.0008 1134.16 75.9029 1133.4 80.624L1133.39 80.6758L1133.38 80.7266C1132.31 87.06 1129.46 92.6848 1125.07 97.335L1125.03 97.3779C1120.86 101.744 1115.78 104.916 1110.13 107.07L1110.06 107.096C1104.32 109.249 1098.21 110.225 1091.88 110.225C1082.38 110.225 1072.96 108.324 1065.6 102.54C1061.3 99.1704 1058.28 95.0101 1056.5 90.3311L1060.52 66.3633L1061.51 66.3105C1061.27 65.6423 1061.05 64.9677 1060.87 64.2881L1061.83 58.5654C1062.55 54.2509 1062.42 50.5093 1061.46 47.3408C1062.82 43.0399 1065.08 39.1093 1068.25 35.707L1068.26 35.7031C1072.3 31.3693 1077.28 28.3014 1082.79 26.293L1082.8 26.2881L1082.82 26.2832C1088.35 24.2801 1094.27 23.3984 1100.39 23.3984ZM1100.39 36.3984C1095.51 36.3984 1091.13 37.1016 1087.24 38.5078C1083.38 39.9141 1080.22 41.9339 1077.77 44.5674C1075.34 47.1753 1073.82 50.3076 1073.2 53.9639C1072.44 58.5404 1073.27 62.3115 1075.7 65.2773C1078.12 68.2432 1082.13 70.3016 1087.7 71.4521L1097.52 73.4844C1100.05 74.0213 1101.79 74.6994 1102.73 75.5176C1103.7 76.3358 1104.09 77.4097 1103.88 78.7393L1103.82 79.0908C1103.45 80.8314 1102.25 82.325 1100.24 83.5713C1098.12 84.8753 1095.54 85.5013 1092.49 85.4502C1089.78 85.4246 1087.65 84.811 1086.09 83.6094C1084.53 82.3822 1083.69 80.5672 1083.56 78.1641L1067.6 79.0078L1067.59 79.5293C1067.58 84.883 1069.59 89.1451 1073.62 92.3154C1077.79 95.5882 1083.88 97.2246 1091.88 97.2246C1096.87 97.2246 1101.4 96.4579 1105.5 94.9238C1109.33 93.4616 1112.54 91.4599 1115.11 88.9189L1115.62 88.4033C1118.28 85.5909 1119.93 82.3053 1120.57 78.5469C1121.28 74.1237 1120.4 70.5443 1117.92 67.8086C1115.47 65.0729 1111.48 63.1166 1105.96 61.9404L1095.6 59.793C1093.13 59.2417 1091.44 58.5777 1090.52 57.8018L1090.35 57.6455C1089.53 56.8545 1089.2 55.8947 1089.35 54.7666L1089.39 54.5391C1089.67 52.6215 1090.86 51.0486 1092.95 49.8213C1095.05 48.5941 1097.44 47.9805 1100.13 47.9805C1101.92 47.9805 1103.4 48.2878 1104.57 48.9014C1105.78 49.515 1106.68 50.3453 1107.3 51.3936C1107.94 52.4163 1108.29 53.5799 1108.37 54.8838L1123.21 53.9639C1123.39 48.5434 1121.54 44.2601 1117.65 41.1152C1113.79 37.9706 1108.04 36.3985 1100.39 36.3984Z" fill="black"/>
<path d="M1045.18 23.3984C1051.15 23.3984 1057.18 24.712 1062.49 28.1738C1062.49 28.1745 1062.49 28.1751 1062.5 28.1758C1062.51 28.1852 1062.52 28.1946 1062.54 28.2041C1067.85 31.66 1071.52 36.6022 1073.52 42.4326C1074.22 44.4364 1074.69 46.4797 1074.97 48.54C1074.12 50.1979 1073.53 52.0052 1073.2 53.9639C1072.8 56.3605 1072.84 58.5363 1073.31 60.4912L1061.83 58.5654C1062.59 53.9632 1062.4 50.0131 1061.25 46.7148C1060.2 43.6226 1058.42 41.1931 1055.93 39.4268L1055.42 39.083C1052.86 37.4051 1049.7 36.513 1045.94 36.4082L1045.18 36.3984C1040.81 36.3984 1036.91 37.3954 1033.48 39.3896C1030.08 41.3839 1027.45 44.107 1025.58 47.5586H1024.93L1026.62 37.165H1011.09L1001.27 96.0742H1017.57L1023.24 62.0176C1023.68 59.4863 1024.51 57.3259 1025.74 55.5361C1026.99 53.7208 1028.54 52.3396 1030.38 51.3936C1032.22 50.4477 1034.24 49.9746 1036.44 49.9746C1039.74 49.9747 1042.13 50.9976 1043.61 53.043L1043.75 53.2344C1045.15 55.2391 1045.56 57.9878 1044.99 61.4805L1039.2 96.0742H1055.54L1061.83 58.5654L1073.31 60.4912C1073.53 61.3961 1073.85 62.2533 1074.25 63.0635L1071.62 78.7949L1067.6 79.0078C1067.5 82.6213 1068.3 85.75 1070 88.3945L1066.54 109.074H985.922L990.282 82.9131C990.29 82.9022 990.298 82.8918 990.306 82.8809C993.399 78.3554 995.445 73.0885 996.442 67.0801C997.428 61.0374 997.137 55.7326 995.573 51.165L1000.07 24.165H1037.44C1039.97 23.6476 1042.55 23.3984 1045.18 23.3984Z" fill="black"/>
<path d="M972.319 23.3984C980.134 23.3984 987.729 25.0896 994.279 29.3691C1000.73 33.5573 1005.27 39.5099 1007.79 46.7158C1008.22 47.9357 1008.58 49.1708 1008.88 50.418L1005.84 68.6387L996.442 67.0801C997.408 61.1604 997.151 55.9484 995.67 51.4443L995.522 51.0107C993.962 46.5523 991.309 43.0535 987.565 40.5146L987.2 40.2715C983.263 37.6891 978.302 36.3984 972.319 36.3984C966.388 36.3984 961.056 37.6641 956.326 40.1953L955.886 40.4326C951.354 42.9212 947.601 46.3579 944.629 50.7422L944.345 51.168C941.436 55.5978 939.511 60.7355 938.569 66.5811C937.572 72.6919 937.866 78.0491 939.451 82.6514C941.062 87.2278 943.836 90.8073 947.773 93.3896C951.711 95.9465 956.685 97.2246 962.693 97.2246C968.415 97.2245 973.572 96.0487 978.166 93.6973L978.609 93.4658C983.02 91.0928 986.722 87.8435 989.717 83.7178L990.306 82.8809C993.399 78.3554 995.445 73.0885 996.442 67.0801L1005.84 68.6387L1002.67 87.6553C1002.16 88.5236 1001.61 89.3788 1001.04 90.2178C996.803 96.4131 991.353 101.371 984.769 104.914L984.744 104.928L984.721 104.94C977.938 108.553 970.496 110.225 962.693 110.225C954.869 110.225 947.256 108.554 940.694 104.293L940.669 104.276L940.645 104.26C934.247 100.064 929.715 94.144 927.188 86.9668L927.174 86.9258L927.16 86.8848C926.753 85.7031 926.409 84.5071 926.121 83.2998L932.371 45.7998C932.846 45.003 933.346 44.2182 933.869 43.4463C937.971 37.3968 943.25 32.5417 949.621 29.042L950.241 28.707C957.038 25.0805 964.497 23.3984 972.319 23.3984ZM970.67 48.8623C973.355 48.8623 975.464 49.63 976.998 51.1641C978.558 52.6981 979.581 54.7942 980.066 57.4531C980.552 60.0866 980.514 63.1043 979.951 66.5049L979.841 67.1475C979.263 70.3415 978.302 73.2213 976.96 75.7861C975.554 78.4963 973.777 80.6443 971.629 82.2295L971.228 82.5127C969.201 83.8835 966.892 84.5684 964.304 84.5684C961.619 84.5684 959.497 83.8141 957.938 82.3057C956.378 80.7716 955.367 78.6881 954.907 76.0547C954.447 73.3956 954.486 70.3779 955.022 67.0029C955.55 63.7432 956.448 60.8093 957.717 58.2012L957.976 57.6836C959.382 54.9478 961.159 52.7999 963.307 51.2402C965.454 49.6551 967.909 48.8624 970.67 48.8623Z" fill="black"/>
<path d="M929.735 0.00585938C935.143 0.12726 940.409 2.12782 944.494 6.37598C944.506 6.38786 944.518 6.40021 944.529 6.41211C944.542 6.42519 944.555 6.43805 944.567 6.45117C948.893 10.965 950.647 16.7814 949.991 22.6816L949.99 22.6973L949.988 22.7139C949.743 24.8688 949.193 26.8805 948.395 28.7383L944.759 50.5537C944.716 50.6156 944.672 50.677 944.63 50.7393C941.562 55.2647 939.542 60.5443 938.57 66.5781C937.579 72.6516 937.864 77.9802 939.424 82.5635L935.006 109.071H892.309L894.405 96.4922C894.834 96.4239 895.245 96.3477 895.638 96.2627C897.197 95.9304 898.437 95.624 899.357 95.3428L898.744 83.1846C898.335 83.2613 897.734 83.3769 896.941 83.5303C896.813 83.551 896.684 83.5666 896.557 83.584L902.249 49.4346H905.878L907.91 37.1621H904.294L906.433 24.3262C906.276 22.8048 906.292 21.2462 906.486 19.6689L906.561 19.1221C907.382 13.5418 910.228 8.87987 914.327 5.46191C918.508 1.95035 923.619 0 929.209 0L929.735 0.00585938ZM917.473 37.1621L907.655 96.0713H923.993L933.812 37.1621H917.473ZM929.209 13C926.78 13 924.607 13.8055 922.689 15.416C920.772 17.0012 919.672 18.945 919.391 21.2461C919.109 23.496 919.749 25.4389 921.309 27.0752C922.894 28.686 924.901 29.4922 927.33 29.4922C929.759 29.4921 931.92 28.6859 933.812 27.0752C935.609 25.5411 936.677 23.7374 937.014 21.6641L937.071 21.2461C937.327 18.945 936.687 17.0012 935.153 15.416C933.619 13.8055 931.638 13 929.209 13Z" fill="black"/>
<path d="M914.465 10.0469L912.119 24.1602H919.589C919.895 25.2202 920.466 26.1914 921.307 27.0732C921.704 27.4773 922.128 27.8311 922.579 28.1338L921.085 37.1602H917.471L913.259 62.4326H905.759L904.692 68.8398L910.976 67.6631L911.304 74.1641L907.653 96.0693H912.409L912.851 104.811L903.154 107.773C901.72 108.212 900.068 108.609 898.346 108.976L898.345 108.974C895.88 109.504 893.29 109.768 890.688 109.864C890.681 109.865 890.673 109.866 890.665 109.866L890.664 109.865C885.338 110.067 879.906 109.411 874.877 107.223L874.785 107.182C869.426 104.8 865.019 100.807 862.376 95.2402C859.665 89.5293 859.573 83.4391 860.527 77.9941L863.1 62.4326H854.984L855.573 58.9443H863.513C864.05 54.3932 863.487 50.4297 861.825 47.0547C860.943 45.2638 859.792 43.6884 858.377 42.3223L861.442 24.1602H869.427L871.761 10.0469H914.465ZM882.788 23.0469L880.455 37.1602H872.433L870.361 49.4326H878.426L873.353 80.1152C872.662 83.9501 872.919 87.133 874.12 89.6641C875.322 92.1953 877.303 94.0755 880.064 95.3027C882.826 96.5044 886.201 97.0284 890.189 96.875C892.286 96.7983 894.102 96.5931 895.636 96.2607C897.195 95.9284 898.435 95.622 899.355 95.3408L898.742 83.1826C898.333 83.2593 897.732 83.3749 896.939 83.5283C896.147 83.6561 895.367 83.7197 894.601 83.7197C893.638 83.7197 892.794 83.5924 892.066 83.3379L891.762 83.2217C890.995 82.8893 890.446 82.3132 890.113 81.4951C889.823 80.7569 889.757 79.7645 889.916 78.5176L889.998 77.9668L894.74 49.4326H905.876L907.908 37.1602H896.78L899.126 23.0469H882.788Z" fill="black"/>
<path d="M840.962 23.3984C847.633 23.3984 854.178 24.607 860.046 27.6885C865.048 30.3154 869.197 34.0567 872.145 38.877L870.362 49.4375H876.154C876.817 53.0716 876.859 56.7868 876.424 60.4727L876.305 61.4814H876.436L874.09 75.6631L873.685 77.415C872.218 83.7479 869.48 89.5383 865.397 94.5664L865.396 94.5654C861.355 99.5744 856.304 103.435 850.45 106.146C844.36 108.965 837.762 110.225 830.914 110.225C823.068 110.225 815.415 108.566 808.844 104.271L808.762 104.217C802.395 99.9865 797.931 94.0299 795.482 86.8447L795.461 86.7822C795.102 85.7115 794.793 84.6303 794.531 83.54L800.769 46.1123C801.257 45.2923 801.771 44.4854 802.31 43.6914C806.548 37.4208 812.033 32.4088 818.676 28.833C825.533 25.1292 833.06 23.3985 840.962 23.3984ZM840.962 36.3984C835.005 36.3985 829.636 37.6893 824.854 40.2715L824.411 40.5146C819.854 43.0527 816.077 46.538 813.08 50.9717L812.793 51.4004C809.86 55.8542 807.924 61.0041 806.982 66.8496C805.985 72.807 806.253 78.0747 807.787 82.6514C809.347 87.2278 812.07 90.8073 815.956 93.3896C819.746 95.8665 824.543 97.1433 830.349 97.2207L830.914 97.2246C836.155 97.2246 840.847 96.2662 844.989 94.3486C849.131 92.431 852.57 89.7716 855.306 86.3711C858.067 82.9705 859.972 79.007 861.021 74.4814H845.603C844.938 76.5524 843.992 78.3296 842.765 79.8125L842.532 80.082C841.358 81.4079 840.003 82.4303 838.469 83.1494C836.858 83.9164 835.107 84.2998 833.215 84.2998C830.842 84.2998 828.851 83.6929 827.242 82.4795L826.925 82.2295C825.367 80.9351 824.281 79.0898 823.667 76.6943L823.55 76.208C822.962 73.5746 822.975 70.3785 823.589 66.6201C824.177 62.9128 825.199 59.7544 826.656 57.1465C828.139 54.5385 829.942 52.5573 832.064 51.2021C834.212 49.8215 836.564 49.1309 839.121 49.1309C842.087 49.1309 844.337 50.0392 845.871 51.8545C847.405 53.6698 848.159 56.0346 848.134 58.9492H863.514C864.051 54.3981 863.488 50.4346 861.826 47.0596C860.268 43.8956 857.878 41.3948 854.657 39.5566L854.002 39.1982C850.448 37.3318 846.101 36.3984 840.962 36.3984Z" fill="black"/>
<path d="M798.185 0.00585938C803.593 0.127316 808.858 2.1278 812.943 6.37598C812.954 6.38724 812.966 6.39888 812.977 6.41016C812.99 6.42386 813.004 6.43742 813.017 6.45117C817.342 10.9649 819.096 16.7815 818.44 22.6816L818.438 22.6973L818.437 22.7139C818.192 24.8692 817.641 26.8812 816.843 28.7393L813.156 50.8574C813.131 50.8947 813.104 50.9313 813.079 50.9688C809.985 55.5198 807.953 60.8127 806.981 66.8467C805.984 72.8041 806.252 78.0717 807.786 82.6484C807.802 82.6948 807.818 82.741 807.834 82.7871L803.455 109.071H760.758L762.925 96.0713H763.789L776.829 17.5254H775.306C776.396 12.6497 779.074 8.5485 782.776 5.46191C786.957 1.95041 792.069 0 797.658 0L798.185 0.00585938ZM785.922 37.1621L776.104 96.0713H792.442L802.26 37.1621H785.922ZM797.658 13C795.229 13 793.055 13.8052 791.138 15.416C789.22 17.0012 788.121 18.945 787.84 21.2461C787.559 23.4959 788.197 25.4389 789.757 27.0752C791.342 28.6859 793.349 29.4921 795.778 29.4922C798.207 29.4922 800.368 28.686 802.26 27.0752C804.058 25.541 805.126 23.7376 805.463 21.6641L805.521 21.2461C805.776 18.945 805.137 17.0012 803.603 15.416C802.069 13.8054 800.087 13.0001 797.658 13Z" fill="black"/>
<path d="M792.164 4.52344L790.213 16.2725C788.863 17.6853 788.071 19.3424 787.839 21.2441C787.637 22.8617 787.912 24.3197 788.661 25.6201L786.746 37.1602H785.921L776.103 96.0693H776.967L774.809 109.069H738.589C735.809 109.741 732.971 110.028 730.153 110.028C723.327 110.028 716.742 108.241 711.017 104.184L710.921 104.115C705.002 99.8405 701.254 93.8397 699.201 87.1494L699.176 87.0654C698.93 86.2449 698.715 85.4153 698.526 84.5781C699.661 82.9122 700.596 81.1189 701.328 79.1943L697.672 78.9492C697.448 76.2787 697.461 73.552 697.663 70.7949H703.093L703.821 66.3076C704.639 61.2964 704.652 56.9243 703.859 53.1914C703.588 51.8708 703.231 50.6296 702.793 49.4658C703.831 47.1204 705.032 44.8788 706.413 42.7588C710.272 36.8091 715.184 31.8469 721.302 28.4287C727.111 25.1576 733.442 23.3936 740.125 23.3936C742.119 23.3936 744.194 23.5379 746.277 23.9072L749.525 4.52344H792.164ZM760.529 17.5234L755.582 47.0547H755.082C754.647 45.4696 753.881 43.8585 752.782 42.2223C751.683 40.5604 750.11 39.1797 748.065 38.0803C746.171 37.0256 743.726 36.4653 740.732 36.3994L740.125 36.3936C735.804 36.3936 731.649 37.5186 727.66 39.7686L726.919 40.1982C723.243 42.4169 720.039 45.6358 717.306 49.8544L717.035 50.2773C714.266 54.6809 712.336 60.1519 711.246 66.691C710.147 73.2618 710.274 78.8105 711.629 83.3359C713.01 87.8359 715.312 91.2493 718.533 93.576C721.578 95.7333 725.172 96.8799 729.317 97.0146L730.154 97.0277C733.324 97.0277 736.085 96.5043 738.438 95.4561C740.815 94.4078 742.835 93.091 744.497 91.5059C746.185 89.8951 747.541 88.2706 748.563 86.6342H749.254L747.681 96.0689L763.788 96.0693L776.829 17.5234H760.529ZM743.041 49.3942C745.7 49.3942 747.835 50.0973 749.445 51.5036C751.082 52.9098 752.181 54.9041 752.744 57.4865C753.306 60.0689 753.293 63.1115 752.705 66.6143L752.594 67.2666C752.016 70.4979 751.055 73.3364 749.713 75.7812C748.281 78.3889 746.518 80.4212 744.421 81.8786C742.325 83.3104 739.971 84.0264 737.363 84.0264C734.847 84.0263 732.813 83.3862 731.263 82.1055L730.96 81.8402C729.473 80.4499 728.47 78.5656 727.95 76.1865L727.853 75.7038C727.367 73.0703 727.406 70.0405 727.968 66.6143C728.531 63.2138 729.477 60.2223 730.806 57.6399C732.161 55.0576 733.861 53.0384 735.906 51.5811C737.977 50.1237 740.356 49.3942 743.041 49.3942Z" fill="black"/>
<path d="M681.115 23.3984C686.365 23.3984 691.505 24.2415 696.355 26.1543C696.364 26.1581 696.375 26.1622 696.385 26.166C696.414 26.1777 696.444 26.1884 696.474 26.2002C701.559 28.1899 705.995 31.3051 709.533 35.5342C713.215 39.9084 715.445 45.0556 716.574 50.4961C716.603 50.6296 716.631 50.7636 716.657 50.8975C714.089 55.192 712.285 60.4582 711.245 66.6963C710.146 73.2671 710.273 78.8153 711.628 83.3408C711.91 84.2595 712.231 85.1329 712.59 85.9609C710.546 90.5165 707.684 94.5774 704.059 98.0713L704.014 98.1143C699.839 102.1 694.933 105.082 689.499 107.15L689.456 107.166C683.839 109.282 677.844 110.225 671.643 110.225C663.89 110.225 656.344 108.647 649.802 104.595L649.777 104.579L649.751 104.562C643.232 100.483 638.603 94.5967 636.039 87.3936L636.025 87.3525L636.01 87.3105C633.517 80.154 633.358 72.4524 634.662 64.7246C635.499 59.7664 636.912 55.0497 638.949 50.6396C639.599 50.5548 640.262 50.5117 640.939 50.5117C642.115 50.5117 643.355 50.6013 644.658 50.7803C645.988 50.9337 647.011 51.1379 647.727 51.3936L650.181 36.8584C649.738 36.7476 649.255 36.6585 648.734 36.5869C651.812 33.5273 655.3 30.9225 659.184 28.8115C665.943 25.1382 673.345 23.3985 681.115 23.3984ZM681.115 36.3984C675.337 36.3985 670.096 37.6767 665.392 40.2334C660.687 42.7902 656.775 46.3569 653.655 50.9336C650.562 55.5102 648.503 60.8282 647.481 66.8877C646.432 73.1007 646.701 78.4831 648.286 83.0342C649.897 87.5596 652.684 91.0629 656.647 93.543C660.61 95.9975 665.609 97.2246 671.643 97.2246C676.526 97.2246 680.937 96.4829 684.874 95C688.837 93.4915 692.225 91.3954 695.037 88.7109C697.85 86.0007 699.947 82.8299 701.327 79.1992L686.408 78.2021C685.616 79.7106 684.593 80.9763 683.34 81.999C682.087 82.9961 680.656 83.7504 679.045 84.2617C677.46 84.7731 675.759 85.0283 673.944 85.0283C671.157 85.0283 668.855 84.5303 667.04 83.5332C665.225 82.5105 663.947 80.976 663.205 78.9307C662.489 76.8852 662.387 74.3154 662.899 71.2217L662.975 70.7998H703.092L703.82 66.3125C704.639 61.3013 704.651 56.9292 703.859 53.1963C703.139 49.6968 701.836 46.7481 699.948 44.3496L699.564 43.877C697.467 41.3713 694.833 39.5046 691.662 38.2773C688.518 37.0246 685.002 36.3984 681.115 36.3984ZM679.467 48.5938C681.819 48.5938 683.801 49.1187 685.411 50.167C687.022 51.1897 688.173 52.6086 688.863 54.4238C689.554 56.239 689.707 58.3228 689.323 60.6748H664.803C665.251 58.6408 666.124 56.7487 667.424 54.999C668.856 53.0814 670.62 51.5345 672.717 50.3584C674.814 49.1823 677.064 48.5938 679.467 48.5938Z" fill="black"/>
<path d="M645.161 23.3203C646.425 23.3203 647.682 23.396 648.928 23.5293C650.346 23.6524 651.838 23.8703 653.338 24.2451L665.006 27.1621L662.5 42.002C659.062 44.3531 656.115 47.3297 653.659 50.9326C650.852 55.085 648.901 59.8485 647.799 65.2217L643.738 63.7705C643.711 63.7661 643.681 63.7611 643.646 63.7559C643.525 63.7374 643.368 63.7159 643.172 63.6934L643.033 63.6777L642.895 63.6582C642.109 63.5503 641.462 63.5108 640.942 63.5107C640.553 63.5107 640.382 63.5775 640.236 63.6523L640.121 63.7109C639.883 63.8297 639.703 63.9659 639.497 64.2246C639.409 64.3513 639.295 64.5647 639.209 65.0088L631.958 109.073H589.238L597.642 58.6475C597.809 58.4305 597.976 58.2117 598.138 57.9893C601.052 54.0007 602.944 49.3858 603.813 44.1445C604.657 38.9289 604.3 34.3264 602.74 30.3379C602.654 30.1135 602.564 29.8918 602.471 29.6729L603.39 24.1641H638.148C640.409 23.6079 642.753 23.3203 645.161 23.3203ZM645.161 36.3203C641.863 36.3203 638.782 37.2662 635.918 39.1582C633.08 41.0246 630.817 43.7862 629.13 47.4424H628.516L630.242 37.1641H614.402L604.584 96.0732H620.922L626.406 62.7451C626.841 60.3417 627.749 58.2198 629.13 56.3789C630.536 54.538 632.262 53.1057 634.308 52.083C636.353 51.0349 638.565 50.5107 640.942 50.5107C642.118 50.5108 643.358 50.6003 644.662 50.7793C645.992 50.9327 647.015 51.1369 647.73 51.3926L650.185 36.8574C649.469 36.6785 648.651 36.5503 647.73 36.4736C646.836 36.3714 645.979 36.3203 645.161 36.3203Z" fill="black"/>
<path d="M580.071 4.52344L580.071 17.5234H549.083L536.043 96.0689H552.65L556.904 70.6035L570.828 70.603L571.956 70.5908C577.367 70.4649 582.189 69.4246 586.424 67.4717L586.86 67.2663C591.488 65.0419 595.246 61.9482 598.135 57.9851C601.05 53.9964 602.942 49.3814 603.811 44.1399L612.983 45.6611L609.976 63.7031C609.549 64.3589 609.105 65.0059 608.64 65.6426L608.641 65.6436C604.427 71.4232 598.96 75.8743 592.492 78.9834C585.818 82.1914 578.49 83.6035 570.829 83.6035H567.912L563.658 109.069H520.707L522.865 96.0693L523.422 96.0689L536.462 17.5234H535.905L538.063 4.52344H580.071ZM574.702 31.1001C577.898 31.1001 580.442 31.6499 582.334 32.7493C584.252 33.8232 585.569 35.3317 586.284 37.2749C587 39.218 587.141 41.5064 586.706 44.1399L586.624 44.6211C586.185 47.0076 585.331 49.1362 584.061 51.0059L583.801 51.3691C582.475 53.1656 580.734 54.5917 578.576 55.6465L578.144 55.8457C575.955 56.812 573.35 57.2947 570.33 57.2947L559.128 57.2949L563.503 31.1001H574.702ZM580.071 4.52344C587.585 4.52344 594.956 5.95707 601.351 9.77637L601.35 9.77734C607.593 13.4646 612.266 18.8493 614.881 25.6924C616.322 29.4092 617.055 33.2603 617.219 37.1602H614.4L612.983 45.6611L603.811 44.1399C604.655 38.9242 604.298 34.3225 602.738 30.334C601.204 26.3198 598.519 23.1868 594.684 20.9368C590.874 18.6612 586.003 17.5234 580.071 17.5234L580.071 4.52344Z" fill="black"/>
<path d="M551.799 4.52344L549.641 17.5234H549.084L536.044 96.0693H536.601L534.442 109.069H498.223C495.443 109.741 492.605 110.028 489.788 110.028C482.961 110.028 476.376 108.241 470.65 104.184L470.604 104.149L470.556 104.115C464.637 99.8405 460.889 93.8398 458.836 87.1494L458.822 87.1074L458.811 87.0654C458.642 86.5038 458.489 85.9377 458.348 85.3682L463.196 56.3359C463.686 53.2868 463.604 50.6158 462.95 48.3223C463.863 46.3898 464.892 44.5317 466.047 42.7588C469.912 36.8004 474.833 31.8328 480.963 28.4141C486.765 25.1525 493.087 23.3936 499.76 23.3936C501.754 23.3936 503.828 23.5378 505.912 23.9072L509.16 4.52344H551.799ZM520.163 17.5234L515.216 47.0547H514.716C514.281 45.4696 513.515 43.8589 512.416 42.2227C511.317 40.5607 509.744 39.1805 507.698 38.0811C505.805 37.0264 503.361 36.4654 500.366 36.3994L499.76 36.3936C495.439 36.3936 491.284 37.5186 487.295 39.7686L486.554 40.1982C482.877 42.417 479.672 45.6355 476.939 49.8544C474.024 54.3288 472.004 59.941 470.879 66.691C469.78 73.2621 469.908 78.8104 471.263 83.3359C472.643 87.8359 474.945 91.2493 478.166 93.576C481.21 95.7333 484.806 96.8798 488.951 97.0146L489.788 97.0283C492.958 97.0283 495.72 96.5043 498.072 95.4561C500.45 94.4078 502.47 93.091 504.132 91.5059C505.819 89.8951 507.175 88.2711 508.197 86.6348H508.888L507.314 96.0689L523.423 96.0693L536.463 17.5234H520.163ZM502.673 49.3942C505.332 49.3942 507.467 50.0973 509.078 51.5036C510.715 52.9098 511.814 54.9041 512.376 57.4865C512.939 60.0688 512.927 63.1125 512.339 66.6152L512.229 67.2666C511.65 70.498 510.69 73.3364 509.348 75.7812C507.916 78.3891 506.151 80.4212 504.054 81.8786C501.957 83.3104 499.605 84.0263 496.997 84.0263C494.481 84.0263 492.448 83.3862 490.897 82.1055L490.594 81.8408C489.009 80.3579 487.972 78.3118 487.486 75.7038C487 73.0705 487.039 70.0411 487.602 66.6152C488.164 63.2148 489.11 60.2222 490.439 57.6399C491.794 55.0575 493.496 53.0384 495.541 51.5811C497.612 50.1238 499.989 49.3943 502.673 49.3942Z" fill="black"/>
<path d="M441.526 23.3984C445.807 23.3984 450.004 23.8992 454.056 24.9912C458.354 26.1427 462.42 28.0263 466.014 30.8066C466.034 30.8223 466.056 30.8378 466.076 30.8535C470.141 33.9947 473.098 38.0999 474.838 42.8857C475.785 45.4436 476.283 48.0516 476.447 50.6396C473.796 54.9807 471.939 60.3328 470.879 66.6963C469.78 73.2671 469.908 78.8153 471.263 83.3408C471.388 83.7505 471.525 84.1504 471.666 84.542L467.57 109.074H432.785C429.662 109.848 426.455 110.187 423.232 110.187C418.003 110.186 412.776 109.273 407.937 106.966L407.804 106.901C402.616 104.356 398.473 100.349 395.874 95.0459C394.42 92.0796 393.658 89.0025 393.387 85.9473C394.216 84.9813 395.002 83.9603 395.74 82.8809C398.834 78.3553 400.88 73.0885 401.877 67.0801C402.874 60.9694 402.567 55.6129 400.956 51.0107C400.823 50.6304 400.681 50.257 400.532 49.8906L400.729 49.3604C402.718 44.0067 405.779 39.2639 409.879 35.2812C413.978 31.2981 418.814 28.3484 424.186 26.3613C429.662 24.3098 435.499 23.3985 441.526 23.3984ZM441.526 36.3984C436.796 36.3985 432.526 37.1141 428.717 38.5459C424.907 39.9521 421.648 41.9721 418.938 44.6055C416.253 47.2134 414.246 50.3072 412.916 53.8867L427.797 55.1143C428.666 53.1455 430.111 51.5216 432.131 50.2432C434.176 48.965 436.656 48.3253 439.57 48.3252C442.332 48.3252 444.339 49.0033 445.592 50.3584L445.822 50.6143C446.923 51.9236 447.294 53.705 446.935 55.958V56.1875C446.704 57.4403 446.052 58.3872 444.979 59.0264C443.905 59.64 442.281 60.1129 440.107 60.4453C437.96 60.7777 435.173 61.1225 431.747 61.4805C428.781 61.7361 425.904 62.2216 423.117 62.9375C420.356 63.6534 417.838 64.689 415.562 66.0439C413.287 67.3991 411.357 69.1896 409.771 71.4141C408.212 73.6129 407.15 76.3484 406.588 79.6211L406.479 80.3379C405.993 83.8839 406.348 86.8793 407.547 89.3242C408.825 91.9321 410.819 93.9009 413.529 95.2305C416.265 96.5344 419.5 97.1865 423.232 97.1865C426.147 97.1865 428.781 96.8031 431.133 96.0361C433.485 95.2435 435.569 94.157 437.385 92.7764C439.2 91.3701 440.734 89.7462 441.987 87.9053H442.447L441.066 96.0742H456.561L463.195 56.3408C463.758 52.8381 463.566 49.8337 462.62 47.3281C461.7 44.7971 460.191 42.7259 458.095 41.1152C456.153 39.6053 453.864 38.4658 451.226 37.6973L450.693 37.5488C447.855 36.7818 444.799 36.3984 441.526 36.3984ZM443.866 75.0186C443.508 77.0896 442.665 78.9437 441.335 80.5801C440.031 82.2163 438.369 83.5206 436.35 84.4922C434.355 85.4382 432.169 85.9111 429.791 85.9111C427.26 85.9111 425.278 85.3351 423.847 84.1846C422.44 83.0084 421.915 81.3084 422.273 79.084C422.504 77.55 423.105 76.2717 424.076 75.249C425.048 74.2008 426.313 73.3695 427.873 72.7559C429.433 72.1422 431.197 71.6953 433.166 71.4141C434.061 71.2607 435.07 71.1065 436.195 70.9531C437.32 70.7742 438.433 70.5825 439.532 70.3779C440.657 70.1478 441.693 69.9051 442.639 69.6494C443.61 69.3938 444.352 69.0999 444.863 68.7676L443.866 75.0186Z" fill="black"/>
<path d="M377.754 23.3984C385.568 23.3984 393.163 25.0897 399.714 29.3691C399.718 29.3721 399.724 29.375 399.729 29.3779C399.74 29.3857 399.753 29.3936 399.765 29.4014C406.188 33.5879 410.712 39.5282 413.228 46.7158C413.682 48.014 414.061 49.3292 414.37 50.6582C413.819 51.6865 413.334 52.7626 412.916 53.8867L415.006 54.0586C415.582 58.0695 415.574 62.183 415.102 66.3281C413.025 67.646 411.248 69.3416 409.771 71.4141C408.212 73.6129 407.15 76.3484 406.588 79.6211C405.984 83.2705 406.238 86.3596 407.348 88.8896C407.064 89.3361 406.773 89.7794 406.474 90.2178C402.238 96.4132 396.788 101.371 390.203 104.914L390.18 104.928L390.155 104.94C383.373 108.553 375.931 110.225 368.128 110.225C360.304 110.225 352.691 108.554 346.129 104.293L346.104 104.276L346.079 104.26C339.682 100.064 335.149 94.144 332.623 86.9668L332.609 86.9258L332.595 86.8848C332.185 85.6961 331.839 84.4929 331.551 83.2783L337.76 45.8789C338.249 45.0551 338.763 44.2436 339.304 43.4463C343.405 37.3968 348.685 32.5417 355.056 29.042L355.676 28.707C362.473 25.0805 369.931 23.3985 377.754 23.3984ZM377.754 36.3984C371.822 36.3985 366.491 37.6641 361.761 40.1953L361.32 40.4326C356.788 42.9212 353.036 46.358 350.063 50.7422L349.779 51.168C346.87 55.5978 344.945 60.7355 344.004 66.5811C343.007 72.6919 343.301 78.0491 344.886 82.6514C346.497 87.2279 349.272 90.8073 353.209 93.3896C357.146 95.9463 362.12 97.2246 368.128 97.2246C373.849 97.2246 379.007 96.0487 383.601 93.6973L384.044 93.4658C388.748 90.9346 392.647 87.4063 395.74 82.8809C398.641 78.6383 400.621 73.7442 401.679 68.1982L401.877 67.0801C402.843 61.1604 402.586 55.9484 401.104 51.4443L400.956 51.0107C399.396 46.5522 396.744 43.0535 393 40.5146L392.635 40.2715C388.697 37.6891 383.737 36.3984 377.754 36.3984ZM376.104 48.8623C378.789 48.8623 380.899 49.63 382.433 51.1641C383.992 52.6981 385.015 54.7942 385.501 57.4531C385.987 60.0866 385.948 63.1043 385.386 66.5049L385.275 67.1475C384.697 70.3415 383.737 73.2213 382.395 75.7861C380.988 78.4962 379.211 80.6443 377.063 82.2295L376.662 82.5127C374.635 83.8834 372.327 84.5684 369.738 84.5684C367.054 84.5683 364.932 83.8141 363.372 82.3057C361.812 80.7716 360.802 78.6881 360.342 76.0547C359.882 73.3956 359.92 70.3779 360.457 67.0029C361.02 63.5258 362.004 60.4193 363.41 57.6836C364.816 54.9478 366.593 52.7999 368.741 51.2402C370.889 49.6551 373.343 48.8624 376.104 48.8623Z" fill="black"/>
<path d="M357.804 4.52344L350.151 50.6113C350.123 50.6533 350.093 50.6952 350.064 50.7373C346.996 55.2627 344.976 60.5423 344.005 66.5762C343.015 72.6401 343.297 77.9616 344.851 82.54L340.447 109.069H297.754L299.912 96.0693H301.369L307.659 58.5605C308.252 55.0027 308.269 51.8352 307.716 49.0566L315.109 4.52344H357.804ZM326.129 17.5234L313.09 96.0693H329.428L342.468 17.5234H326.129Z" fill="black"/>
<path d="M291.014 23.3984C296.98 23.3985 303.008 24.712 308.323 28.1738C313.657 31.6311 317.343 36.5853 319.356 42.4326C320.123 44.6313 320.616 46.8773 320.88 49.1416L318.999 60.4668L307.658 58.5654C308.425 53.9633 308.234 50.0131 307.083 46.7148C306.028 43.6226 304.255 41.1931 301.762 39.4268L301.254 39.083C298.689 37.4051 295.528 36.5131 291.772 36.4082L291.014 36.3984C286.642 36.3984 282.742 37.3954 279.316 39.3896C275.916 41.384 273.282 44.1069 271.415 47.5586H270.764L272.451 37.165H256.918L247.101 96.0742H263.399L269.076 62.0176C269.511 59.4863 270.342 57.3259 271.569 55.5361C272.822 53.7208 274.369 52.3396 276.21 51.3936C278.051 50.4477 280.071 49.9746 282.27 49.9746C285.568 49.9747 287.959 50.9976 289.441 53.043L289.579 53.2344C290.977 55.2392 291.391 57.9878 290.821 61.4805L285.03 96.0742H301.368L307.658 58.5654L318.999 60.4668L313.089 96.0742H314.55L312.37 109.074H231.754L240.405 57.1621L249.168 37.165H243.738L245.905 24.165H283.271C285.798 23.6476 288.387 23.3984 291.014 23.3984Z" fill="black"/>
<path d="M269.055 24.1641L263.359 37.1641H256.916L252.961 60.8945L231.852 109.073H194.382L194.222 107.588L193.57 109.073H156.119L152.112 71.085C152.45 69.7881 152.737 68.4535 152.965 67.0791C153.962 60.9685 153.656 55.6119 152.045 51.0098C151.379 49.106 150.513 47.377 149.448 45.8232L147.164 24.1641H269.055ZM161.607 37.1641L167.82 96.0732H185.079L201.341 59.0254H202.069L206.058 96.0732H223.354L249.166 37.1641H232.674L217.104 76.5137H216.604L213.536 37.1641H197.313L181.205 76.7441H180.669L178.138 37.1641H161.607Z" fill="black"/>
<path d="M128.844 23.3984C136.678 23.3985 144.292 25.0979 150.854 29.4014C155.685 32.5503 159.441 36.6913 162.077 41.6094L164.971 69.0381L152.967 67.0801C153.933 61.1604 153.676 55.9483 152.194 51.4443L152.047 51.0107C150.486 46.5523 147.834 43.0535 144.09 40.5146L143.725 40.2715C139.787 37.6891 134.827 36.3985 128.844 36.3984C122.912 36.3984 117.581 37.6641 112.851 40.1953L112.409 40.4326C107.877 42.9211 104.126 46.3581 101.153 50.7422L100.868 51.168C97.9594 55.5977 96.035 60.7356 95.0938 66.5811C94.0966 72.6919 94.3904 78.0491 95.9756 82.6514C97.5864 87.2278 100.361 90.8073 104.298 93.3896C108.235 95.9464 113.208 97.2246 119.217 97.2246C124.938 97.2246 130.097 96.0488 134.69 93.6973L135.134 93.4658C139.544 91.0928 143.247 87.8435 146.241 83.7178L146.831 82.8809C149.925 78.3554 151.97 73.0884 152.967 67.0801L164.971 69.0381L165.275 71.9248C163.857 78.5532 161.328 84.7089 157.562 90.2178C153.327 96.4131 147.877 101.371 141.293 104.914L141.269 104.928L141.244 104.94C134.462 108.553 127.02 110.225 119.217 110.225C111.392 110.225 103.78 108.554 97.2178 104.293L97.1689 104.26C90.7713 100.064 86.239 94.1441 83.7129 86.9668L83.6982 86.9258L83.6846 86.8848C82.4595 83.3282 81.7914 79.646 81.5859 75.8945C84.6969 70.6593 86.8277 64.5769 87.9756 57.6455C88.6636 53.5048 88.9127 49.6528 88.7246 46.0898C89.2506 45.1934 89.806 44.3116 90.3926 43.4463C94.4941 37.3966 99.7746 32.5417 106.146 29.042L106.766 28.707C113.563 25.0806 121.021 23.3984 128.844 23.3984ZM127.194 48.8623C129.879 48.8623 131.988 49.63 133.522 51.1641C135.082 52.6981 136.105 54.7943 136.591 57.4531C137.077 60.0866 137.038 63.1043 136.476 66.5049L136.365 67.1475C135.787 70.3416 134.827 73.2213 133.484 75.7861C132.078 78.4963 130.301 80.6443 128.153 82.2295L127.752 82.5127C125.725 83.8835 123.417 84.5683 120.828 84.5684C118.144 84.5684 116.022 83.8141 114.462 82.3057C112.902 80.7716 111.892 78.688 111.432 76.0547C110.971 73.3956 111.01 70.3779 111.547 67.0029C112.074 63.7432 112.972 60.8093 114.241 58.2012L114.5 57.6836C115.906 54.9478 117.683 52.7999 119.831 51.2402C121.979 49.6552 124.433 48.8623 127.194 48.8623Z" fill="black"/>
<path d="M56.0664 4.52344L56.0661 17.5234H28.3757L15.3369 96.0693L43.5632 96.0689C51.2913 96.0689 58.1801 94.6416 64.2285 91.7861L64.8104 91.505C70.8044 88.5327 75.7556 84.3134 79.6621 78.8457L80.0371 78.3125C84.0001 72.5597 86.6456 65.6682 87.9752 57.6399C89.3558 49.3303 88.9723 42.1839 86.8246 36.201C84.744 30.3804 81.2124 25.8673 76.2285 22.6621L75.7408 22.3558C70.5249 19.1342 63.9666 17.5234 56.0661 17.5234L56.0664 4.52344C65.6944 4.52344 74.7902 6.48874 82.5732 11.2959C90.4178 16.1247 95.9588 23.1426 99.0605 31.8096L99.3438 32.6221C101.18 38.0797 101.91 43.8721 101.768 49.8594C101.559 50.1475 101.355 50.4405 101.153 50.7373C98.0853 55.2628 96.0653 60.5423 95.0938 66.5762C94.3813 70.9422 94.3278 74.9235 94.9336 78.5195C93.7087 81.0105 92.3154 83.4038 90.7422 85.6875L90.7344 85.6982L90.7275 85.71C85.5233 93.2309 78.7624 99.0979 70.5859 103.152L70.5664 103.162L70.5479 103.171C62.315 107.219 53.2177 109.069 43.5635 109.069H0L17.3564 4.52344H56.0664ZM53.5742 31.7529C58.483 31.753 62.4454 32.5832 65.4624 34.245L59.2734 45.6543L71.5604 42.0305C72.6342 45.5589 72.6982 50.1612 71.7521 55.8374L71.5576 56.9473C70.5404 62.4303 68.9055 66.97 66.6523 70.5654C64.2745 74.4006 61.218 77.2379 57.4851 79.0788C53.7777 80.9197 49.4567 81.8402 44.522 81.8402L34.3213 81.8408L42.6436 31.7529H53.5742ZM49.7686 68.1797C50.5062 67.9653 51.1466 67.7124 51.7041 67.4355L51.7197 67.4277L51.7363 67.4199C53.1046 66.7451 54.3954 65.6635 55.6035 63.7148L55.6191 63.6885L55.6357 63.6621C56.8753 61.6842 58.1241 58.534 58.9297 53.7002C59.7123 49.0041 59.3776 46.6499 59.124 45.8164L59.1084 45.7627L59.0918 45.709C59.0747 45.651 59.0558 45.6021 59.041 45.5596C58.4463 45.2808 56.8739 44.7621 53.6611 44.7529L49.7686 68.1797ZM65.4624 34.245C68.4794 35.8814 70.5121 38.4766 71.5604 42.0305L59.2734 45.6543L65.4624 34.245Z" fill="black"/>
</g>
<defs>
<filter id="filter0_d_4674_2515" x="0" y="0" width="1156.23" height="130.227" filterUnits="userSpaceOnUse" color-interpolation-filters="sRGB">
<feFlood flood-opacity="0" result="BackgroundImageFix"/>
<feColorMatrix in="SourceAlpha" type="matrix" values="0 0 0 0 0 0 0 0 0 0 0 0 0 0 0 0 0 0 127 0" result="hardAlpha"/>
<feOffset dx="16" dy="16"/>
<feGaussianBlur stdDeviation="2"/>
<feComposite in2="hardAlpha" operator="out"/>
<feColorMatrix type="matrix" values="0 0 0 0 0 0 0 0 0 0 0 0 0 0 0 0 0 0 0.25 0"/>
<feBlend mode="normal" in2="BackgroundImageFix" result="effect1_dropShadow_4674_2515"/>
<feBlend mode="normal" in="SourceGraphic" in2="effect1_dropShadow_4674_2515" result="shape"/>
</filter>
</defs>
</svg>
