<svg width="100" height="100" viewBox="0 0 100 100" fill="none" xmlns="http://www.w3.org/2000/svg">
<path d="M100 50C100 77.6142 77.6142 100 50 100C22.3858 100 0 77.6142 0 50C0 22.3858 22.3858 0 50 0C77.6142 0 100 22.3858 100 50Z" fill="#DE1B22"/>
<path d="M20.3579 84.34L30.9527 66.443H68.3758L78.9709 84.34H20.3579Z" fill="black"/>
<path d="M79.6421 45.5257C79.6421 62.0201 66.3208 75.3915 49.8881 75.3915C33.4555 75.3915 20.1342 62.0201 20.1342 45.5257C20.1342 29.0313 33.4555 15.66 49.8881 15.66C66.3208 15.66 79.6421 29.0313 79.6421 45.5257Z" fill="white"/>
<path d="M72.5424 61.5004C73.0929 61.5004 73.6209 61.2809 74.0102 60.8902C74.3995 60.4994 74.6182 59.9694 74.6182 59.4168C74.6182 58.8642 74.3995 58.3342 74.0102 57.9434C73.6209 57.5527 73.0929 57.3331 72.5424 57.3331V61.5004ZM53.9843 71.2603C53.894 71.5209 53.8562 71.797 53.873 72.0724C53.8898 72.3478 53.961 72.6172 54.0823 72.8648C54.2037 73.1124 54.3728 73.3333 54.58 73.5148C54.7871 73.6962 55.0281 73.8346 55.2889 73.9218C55.5497 74.009 55.8252 74.0433 56.0994 74.0228C56.3735 74.0023 56.6409 73.9273 56.886 73.8022C57.131 73.6771 57.3488 73.5044 57.5269 73.2941C57.7049 73.0838 57.8395 72.8401 57.9229 72.5772L53.9843 71.2603ZM27.7401 57.3331C27.1896 57.3331 26.6616 57.5527 26.2723 57.9434C25.883 58.3342 25.6643 58.8642 25.6643 59.4168C25.6643 59.9694 25.883 60.4994 26.2723 60.8902C26.6616 61.2809 27.1896 61.5004 27.7401 61.5004V57.3331ZM42.3568 72.5772C42.5362 73.0946 42.9113 73.5203 43.401 73.7622C43.8907 74.004 44.4556 74.0425 44.9735 73.8694C45.4913 73.6963 45.9203 73.3254 46.1677 72.8371C46.4151 72.3488 46.461 71.7823 46.2954 71.2603L42.3568 72.5772ZM32.0523 27.3562C31.9099 26.8224 31.5621 26.3672 31.0853 26.0908C30.6086 25.8144 30.042 25.7394 29.5101 25.8824C28.9783 26.0253 28.5248 26.3745 28.2495 26.853C27.9741 27.3316 27.8994 27.9003 28.0418 28.4342L32.0523 27.3562ZM21.1777 45.4952C20.7185 45.8002 20.3989 46.2759 20.2891 46.8174C20.1793 47.359 20.2884 47.9222 20.5923 48.3831C20.8962 48.844 21.3701 49.1648 21.9096 49.275C22.4492 49.3852 23.0103 49.2758 23.4694 48.9707L21.1777 45.4952ZM71.8477 28.4369C71.9182 28.1726 71.9361 27.8969 71.9005 27.6257C71.8649 27.3544 71.7764 27.0928 71.64 26.8558C71.5037 26.6189 71.3222 26.4112 71.1059 26.2446C70.8896 26.0781 70.6427 25.9559 70.3794 25.8852C69.8475 25.7422 69.2809 25.8172 68.8042 26.0936C68.5681 26.2304 68.3612 26.4126 68.1953 26.6298C68.0294 26.8469 67.9077 27.0947 67.8371 27.359L71.8477 28.4369ZM76.4201 48.9707C76.8792 49.2758 77.4403 49.3852 77.9799 49.275C78.5194 49.1648 78.9933 48.844 79.2972 48.3831C79.6011 47.9222 79.7101 47.359 79.6004 46.8174C79.4906 46.2759 79.171 45.8002 78.7118 45.4952L76.4201 48.9707ZM61.2083 22.8444C61.6499 22.5228 61.9476 22.0396 62.037 21.4994C62.1264 20.9591 62.0003 20.4053 61.686 19.9576C61.3717 19.51 60.8945 19.2045 60.3576 19.1073C59.8206 19.0102 59.2672 19.1291 58.8169 19.4383L61.2083 22.8444ZM40.5218 18.8466C40.3033 18.6751 40.0527 18.5492 39.785 18.4766C39.5172 18.4039 39.2377 18.3858 38.9628 18.4234C38.688 18.461 38.4234 18.5535 38.1848 18.6954C37.9462 18.8374 37.7383 19.0259 37.5735 19.2498C37.4086 19.4737 37.2902 19.7286 37.2251 19.9992C37.1601 20.2699 37.1497 20.5509 37.1947 20.8256C37.2396 21.1004 37.339 21.3633 37.4869 21.5989C37.6348 21.8344 37.8282 22.0378 38.0557 22.1971L40.5218 18.8466ZM75.4264 45.5257C75.4264 59.7224 63.9761 71.2242 49.8576 71.2242V75.3915C66.2733 75.3915 79.5781 62.0172 79.5781 45.5257H75.4264ZM49.8576 71.2242C35.7363 71.2242 24.2859 59.7224 24.2859 45.5257H20.1342C20.1342 62.0172 33.439 75.3915 49.8576 75.3915V71.2242ZM24.2859 45.5257C24.2859 31.3291 35.7363 19.8273 49.8576 19.8273V15.66C33.439 15.66 20.1342 29.0343 20.1342 45.5257H24.2859ZM49.8576 19.8273C63.9733 19.8273 75.4264 31.3291 75.4264 45.5257H79.5781C79.5781 29.0343 66.2733 15.66 49.8576 15.66V19.8273ZM50.2727 40.136L55.3572 44.0366L57.8786 40.7278L52.7942 36.8244L50.2727 40.136ZM55.598 44.7951L53.5996 51.2877L57.5686 52.5157L59.5614 46.023L55.598 44.7951ZM52.9409 51.7767H46.7687V55.944H52.9409V51.7767ZM46.1127 51.2877L44.1144 44.7951L40.1481 46.023L42.1437 52.5157L46.1127 51.2877ZM44.3524 44.0366L49.4369 40.1332L46.9154 36.8244L41.831 40.7278L44.3524 44.0366ZM72.5424 57.3331H68.0724V61.5004H72.5424V57.3331ZM55.6118 66.3568L53.9843 71.2603L57.9229 72.5772L59.5476 67.6736L55.6118 66.3568ZM68.0724 57.3331C66.1958 57.3331 64.6099 57.3303 63.3229 57.4776C61.9833 57.6304 60.7516 57.9666 59.6362 58.775L62.0663 62.1561C62.3984 61.9144 62.8523 61.7255 63.7962 61.6171C64.7926 61.506 66.099 61.5004 68.0724 61.5004V57.3331ZM59.5476 67.6736C60.1731 65.7956 60.5855 64.5509 61.0118 63.6369C61.4103 62.7701 61.7342 62.395 62.0663 62.1561L59.6362 58.775C58.518 59.5863 57.8122 60.6503 57.2448 61.8811C56.6968 63.0618 56.2041 64.5704 55.6118 66.3568L59.5476 67.6736ZM27.7429 61.5004H32.2129V57.3331H27.7401L27.7429 61.5004ZM40.7349 67.6736L42.3568 72.5772L46.2982 71.2603L44.6735 66.3568L40.7349 67.6736ZM32.2129 61.5004C34.1863 61.5004 35.4872 61.5032 36.4863 61.6171C37.4274 61.7283 37.8841 61.9144 38.2162 62.1561L40.6463 58.775C39.5282 57.9693 38.2965 57.6304 36.9569 57.4776C35.6699 57.3303 34.0867 57.3331 32.2129 57.3331V61.5004ZM44.6735 66.3568C44.0784 64.5704 43.583 63.0618 43.035 61.8811C42.4676 60.6531 41.7618 59.5863 40.6463 58.775L38.2162 62.1561C38.5484 62.395 38.8694 62.7673 39.2708 63.6369C39.6942 64.5537 40.1094 65.7956 40.7349 67.6736L44.6735 66.3568ZM28.0418 28.4342L29.1988 32.771L33.2093 31.693L32.0523 27.3562L28.0418 28.4342ZM25.4705 42.6475L21.1805 45.4924L23.4694 48.9707L27.7595 46.1203L25.4705 42.6475ZM29.1988 32.771C29.708 34.6851 30.0429 35.952 30.1924 36.9494C30.3308 37.894 30.2671 38.3885 30.1232 38.7719L34.0064 40.2499C34.4935 38.9553 34.4963 37.6773 34.297 36.3354C34.106 35.0491 33.6936 33.5127 33.2093 31.693L29.1988 32.771ZM27.7595 46.1203C29.3261 45.0812 30.6463 44.2089 31.6399 43.3726C32.6751 42.503 33.5165 41.5418 34.0064 40.2499L30.1232 38.7719C29.9793 39.1553 29.7025 39.5665 28.9718 40.1804C28.2023 40.8278 27.1174 41.5557 25.4705 42.6475L27.7595 46.1203ZM67.8371 27.359L66.6802 31.6958L70.6907 32.771L71.8477 28.4314L67.8371 27.359ZM72.1272 46.1203L76.4201 48.9707L78.7118 45.4924L74.419 42.6447L72.1272 46.1203ZM66.6802 31.6958C66.1958 33.5183 65.7834 35.0491 65.5925 36.3354C65.3932 37.6773 65.396 38.958 65.8831 40.2499L69.7663 38.7719C69.6224 38.3885 69.5587 37.8968 69.6971 36.9494C69.8466 35.9492 70.1815 34.6851 70.6907 32.771L66.6802 31.6958ZM74.419 42.6447C72.7749 41.5529 71.6871 40.8278 70.9177 40.1804C70.187 39.5692 69.9102 39.1553 69.7663 38.7719L65.8831 40.2499C66.373 41.5418 67.2144 42.503 68.2495 43.3726C69.2432 44.2089 70.5634 45.084 72.13 46.123L74.419 42.6447ZM58.8169 19.4383L55.1634 22.0276L57.5548 25.4309L61.2083 22.8444L58.8169 19.4383ZM44.6596 21.9109L40.519 18.8493L38.0557 22.1999L42.1935 25.2642L44.6596 21.9109ZM55.1606 22.0276C53.5498 23.1667 52.4814 23.9196 51.6013 24.403C50.7654 24.8614 50.2866 24.9697 49.8797 24.967L49.8326 29.1343C51.211 29.1482 52.4067 28.7092 53.5941 28.0591C54.7289 27.434 56.0214 26.5172 57.552 25.4309L55.1606 22.0276ZM42.1935 25.2642C43.7048 26.3839 44.9752 27.3284 46.0961 27.9785C47.2669 28.6537 48.4571 29.1176 49.8326 29.1343L49.8797 24.967C49.4701 24.9614 48.994 24.8419 48.1692 24.3669C47.2974 23.864 46.2456 23.0861 44.6596 21.9109L42.1935 25.2642ZM55.3572 44.0366C55.4715 44.1244 55.5556 44.2458 55.598 44.3839L59.5642 43.1531C59.2669 42.1886 58.6777 41.3409 57.8786 40.7278L55.3572 44.0366ZM55.598 44.3839C55.6393 44.5178 55.6393 44.6611 55.598 44.7951L59.5642 46.023C59.8519 45.0882 59.8519 44.088 59.5642 43.1531L55.598 44.3839ZM67.029 37.5856L56.7881 41.8446L58.3741 45.6952L68.6204 41.4362L67.029 37.5856ZM52.7942 36.8244C51.9502 36.1764 50.9174 35.825 49.8548 35.8242V39.9915C50.0065 39.9904 50.1539 40.0414 50.2727 40.136L52.7942 36.8244ZM49.8548 35.8242C48.8224 35.8242 47.7845 36.1576 46.9182 36.8244L49.4369 40.1332C49.5581 40.0419 49.706 39.9931 49.8576 39.9943L49.8548 35.8242ZM51.9306 37.9079V27.0506H47.7789V37.9079H51.9306ZM53.5996 51.2877C53.5585 51.4227 53.4774 51.5419 53.3671 51.6295L55.9356 54.9022C56.7088 54.2916 57.2784 53.4592 57.5686 52.5157L53.5996 51.2877ZM53.3671 51.6295C53.2461 51.7243 53.0972 51.7761 52.9437 51.7767V55.944C54.0563 55.944 55.1025 55.5606 55.9356 54.9022L53.3671 51.6295ZM62.4233 59.1028L56.2235 51.9017L53.082 54.6299L59.2819 61.8283L62.4233 59.1028ZM46.7687 51.7767C46.6152 51.7761 46.4662 51.7243 46.3452 51.6295L43.7767 54.9022C44.6071 55.5606 45.656 55.944 46.7687 55.944V51.7767ZM46.3452 51.6295C46.2349 51.5419 46.1538 51.4227 46.1127 51.2877L42.1437 52.5157C42.4426 53.4853 43.0211 54.3077 43.7767 54.905L46.3452 51.6295ZM41.0587 61.7505L46.694 54.5494L43.428 51.9767L37.7955 59.1751L41.0587 61.7505ZM44.1144 44.7923C44.073 44.6584 44.073 44.5178 44.1144 44.3839L40.1481 43.1504C39.8604 44.0852 39.8604 45.0882 40.1481 46.023L44.1144 44.7923ZM44.1144 44.3839C44.1567 44.2458 44.2409 44.1216 44.3552 44.0338L41.8337 40.7278C41.0341 41.3417 40.445 42.1848 40.1481 43.1504L44.1144 44.3839ZM42.9381 41.8474L32.8716 37.5912L31.258 41.4306L41.3245 45.6896L42.9381 41.8474Z" fill="black"/>
</svg>
