<svg width="101" height="127" viewBox="0 0 101 127" fill="none" xmlns="http://www.w3.org/2000/svg">
<g filter="url(#filter0_d_4668_2582)">
<path d="M26.4787 69.071L26.7472 67.5753C27.5142 63.152 28.5114 59.6236 29.7386 56.9901C30.9915 54.3565 32.5 52.2344 34.2642 50.6236C36.0284 48.9872 38.0739 47.5043 40.4006 46.1747C42.1136 45.152 43.6989 44.0909 45.1562 42.9915C46.6136 41.892 47.8153 40.6776 48.7614 39.348C49.733 37.9929 50.3466 36.4844 50.6023 34.8224C50.8835 33.0582 50.7173 31.5114 50.1037 30.1818C49.4901 28.8523 48.544 27.8295 47.2656 27.1136C45.9872 26.3977 44.4787 26.0398 42.7401 26.0398C41.0781 26.0398 39.4418 26.4105 37.831 27.152C36.2202 27.8679 34.8139 28.9418 33.6122 30.3736C32.4361 31.7798 31.6563 33.5313 31.2727 35.6278H15.625C16.571 30.5142 18.4759 26.2955 21.3395 22.9716C24.2287 19.6222 27.7188 17.1293 31.8097 15.4929C35.9261 13.831 40.3239 13 45.0028 13C50.0398 13 54.3736 13.8438 58.0043 15.5312C61.6349 17.1932 64.294 19.6094 65.9815 22.7798C67.6946 25.9503 68.1804 29.7727 67.4389 34.2472C66.9531 37.2642 66.0327 39.9361 64.6776 42.2628C63.348 44.5639 61.6477 46.6094 59.5767 48.3992C57.5057 50.1634 55.1534 51.7358 52.5199 53.1165C50.321 54.3182 48.4673 55.571 46.9588 56.875C45.4503 58.1534 44.2358 59.6491 43.3153 61.3622C42.3949 63.0497 41.7173 65.1207 41.2827 67.5753L41.0142 69.071H26.4787ZM30.7358 93.6165C28.1534 93.6165 26.0312 92.7216 24.3693 90.9318C22.733 89.1421 21.9915 86.9688 22.1449 84.4119C22.3239 81.8807 23.3849 79.7457 25.3281 78.0071C27.2969 76.2429 29.5597 75.3608 32.1165 75.3608C34.571 75.3608 36.642 76.2429 38.3295 78.0071C40.017 79.7713 40.7585 81.9063 40.554 84.4119C40.4261 86.0994 39.8764 87.6463 38.9048 89.0526C37.9588 90.4332 36.7571 91.5455 35.2997 92.3892C33.8423 93.2074 32.321 93.6165 30.7358 93.6165Z" fill="white"/>
<path d="M45.0029 6.5C50.7493 6.50001 56.0636 7.46125 60.7441 9.63672L60.7432 9.6377C65.5018 11.8236 69.293 15.1663 71.7197 19.7256H71.7188C74.2569 24.445 74.7616 29.7806 73.8555 35.2793L73.8564 35.2803C73.2619 38.9728 72.1059 42.4149 70.3047 45.5137L70.3057 45.5146C68.6022 48.463 66.4306 51.0675 63.8271 53.3174L63.8096 53.332L63.792 53.3477C61.3481 55.4295 58.62 57.2478 55.6367 58.8203L54.9482 59.2061C53.3881 60.1032 52.1586 60.972 51.21 61.792L51.1855 61.8135L51.1611 61.834C50.2633 62.5949 49.5694 63.4551 49.041 64.4385L49.0312 64.457L49.0215 64.4746C48.5211 65.392 48.029 66.7529 47.6826 68.709L47.6816 68.7158L47.6807 68.7236L47.4121 70.2197L46.4512 75.5713H44.6807C46.5157 78.3155 47.3033 81.51 47.0342 84.9023L47.0352 84.9033C46.8193 87.7521 45.8727 90.4025 44.2529 92.7471L44.252 92.7461C42.7569 94.9218 40.84 96.6927 38.5566 98.0146L38.5195 98.0361L38.4814 98.0566C36.107 99.3897 33.4962 100.116 30.7354 100.116C26.4622 100.116 22.5752 98.5516 19.6064 95.3545L19.5889 95.3359L19.5723 95.3174C16.6772 92.1508 15.4042 88.224 15.6562 84.0225L15.6582 83.9883L15.6943 83.5547C15.9762 80.5685 17.0343 77.8746 18.7725 75.5713H18.708L20.0811 67.9229L20.3496 66.4268C21.167 61.7254 22.2874 57.5901 23.8467 54.2441L23.8574 54.2207L23.8691 54.1973C25.3978 50.9841 27.3563 48.1402 29.8438 45.8584L30.2539 45.4844C31.5959 44.2783 33.0446 43.161 34.5918 42.1279H7.8125L9.2334 34.4453C10.3498 28.4107 12.6714 23.0738 16.415 18.7285L16.418 18.7256C19.9801 14.5962 24.3226 11.4918 29.376 9.4668V9.46582C29.3797 9.46433 29.384 9.46341 29.3877 9.46191C29.3904 9.46084 29.3928 9.45909 29.3955 9.45801V9.45898C34.321 7.47332 39.5426 6.5 45.0029 6.5ZM42.7402 32.54C42.0786 32.54 41.3654 32.6808 40.5488 33.0566L40.4707 33.0918C39.8203 33.3809 39.2008 33.8267 38.5977 34.543C38.2519 34.9564 37.8815 35.6249 37.667 36.7979L36.96 40.6553C36.9981 40.6332 37.036 40.6108 37.0742 40.5889C38.602 39.6765 39.9898 38.7475 41.2422 37.8027C42.2311 37.0567 42.9468 36.308 43.4648 35.5801L43.4785 35.5605C43.8496 35.043 44.076 34.495 44.1777 33.834L44.1836 33.7988C44.2467 33.4028 44.2389 33.1574 44.2256 33.0332C44.2171 32.9548 44.2062 32.9165 44.2021 32.9053C44.1827 32.8631 44.1689 32.8413 44.1641 32.834C44.1596 32.8272 44.1589 32.8275 44.1621 32.8311C44.1656 32.8348 44.166 32.8345 44.1592 32.8291C44.1518 32.8234 44.1306 32.808 44.0898 32.7852C43.9483 32.7059 43.5746 32.5401 42.7402 32.54Z" stroke="black" stroke-width="13"/>
</g>
<defs>
<filter id="filter0_d_4668_2582" x="0" y="0" width="100.773" height="126.617" filterUnits="userSpaceOnUse" color-interpolation-filters="sRGB">
<feFlood flood-opacity="0" result="BackgroundImageFix"/>
<feColorMatrix in="SourceAlpha" type="matrix" values="0 0 0 0 0 0 0 0 0 0 0 0 0 0 0 0 0 0 127 0" result="hardAlpha"/>
<feOffset dx="16" dy="16"/>
<feGaussianBlur stdDeviation="2"/>
<feComposite in2="hardAlpha" operator="out"/>
<feColorMatrix type="matrix" values="0 0 0 0 0 0 0 0 0 0 0 0 0 0 0 0 0 0 0.25 0"/>
<feBlend mode="normal" in2="BackgroundImageFix" result="effect1_dropShadow_4668_2582"/>
<feBlend mode="normal" in="SourceGraphic" in2="effect1_dropShadow_4668_2582" result="shape"/>
</filter>
</defs>
</svg>
