<svg width="883" height="152" viewBox="0 0 883 152" fill="none" xmlns="http://www.w3.org/2000/svg">
<g filter="url(#filter0_d_4674_2474)">
<path d="M847.371 37.1605L845.338 49.4332H809.824L811.895 37.1605H847.371ZM822.25 23.0469H838.588L829.461 77.9673C829.205 79.4759 829.243 80.652 829.576 81.4957C829.908 82.3139 830.458 82.8892 831.225 83.2216C832.017 83.554 832.963 83.7202 834.063 83.7202C834.83 83.7202 835.61 83.6563 836.402 83.5284C837.195 83.375 837.796 83.2599 838.205 83.1832L838.819 95.3409C837.898 95.6222 836.658 95.929 835.098 96.2614C833.564 96.5938 831.749 96.7983 829.652 96.875C825.664 97.0284 822.289 96.5043 819.527 95.3026C816.766 94.0753 814.784 92.196 813.583 89.6648C812.381 87.1335 812.125 83.9503 812.816 80.1151L822.25 23.0469Z" fill="white"/>
<path d="M760.152 96.0732L769.971 37.1641H785.81L784.084 47.4425H784.698C786.385 43.7862 788.648 41.0249 791.486 39.1584C794.35 37.2663 797.431 36.3203 800.729 36.3203C801.547 36.3203 802.404 36.3714 803.299 36.4737C804.219 36.5504 805.037 36.6783 805.753 36.8572L803.299 51.3928C802.583 51.1371 801.56 50.9325 800.23 50.7791C798.926 50.6001 797.686 50.5107 796.51 50.5107C794.132 50.5107 791.921 51.0348 789.875 52.0831C787.83 53.1058 786.104 54.5376 784.698 56.3786C783.317 58.2195 782.409 60.3416 781.975 62.745L776.49 96.0732H760.152Z" fill="white"/>
<path d="M721.693 97.2173C715.685 97.2173 710.712 95.9389 706.774 93.3821C702.837 90.7997 700.063 87.2202 698.452 82.6435C696.867 78.0412 696.573 72.6847 697.57 66.5739C698.541 60.5398 700.561 55.2599 703.629 50.7344C706.698 46.2088 710.597 42.6932 715.327 40.1875C720.057 37.6562 725.388 36.3906 731.32 36.3906C737.303 36.3906 742.263 37.6818 746.2 40.2642C750.138 42.821 752.912 46.4006 754.523 51.0028C756.134 55.6051 756.44 60.9617 755.443 67.0724C754.446 73.081 752.401 78.348 749.307 82.8736C746.213 87.3991 742.314 90.9276 737.609 93.4588C732.905 95.9645 727.6 97.2173 721.693 97.2173ZM723.304 84.5611C726.066 84.5611 728.507 83.7812 730.629 82.2216C732.777 80.6364 734.554 78.4886 735.96 75.7784C737.392 73.0426 738.389 69.9489 738.952 66.4972C739.514 63.0966 739.553 60.0795 739.067 57.446C738.581 54.7869 737.558 52.6903 735.999 51.1562C734.465 49.6222 732.355 48.8551 729.671 48.8551C726.909 48.8551 724.455 49.6477 722.307 51.233C720.159 52.7926 718.382 54.9403 716.976 57.6761C715.57 60.4119 714.585 63.5185 714.023 66.9957C713.486 70.3707 713.448 73.3878 713.908 76.0469C714.368 78.6804 715.378 80.7642 716.938 82.2983C718.497 83.8068 720.619 84.5611 723.304 84.5611Z" fill="white"/>
<path d="M624.062 118.158L637.639 37.1577H653.747L652.098 47.0526H652.827C653.798 45.4673 655.09 43.8565 656.7 42.2202C658.337 40.5582 660.369 39.1776 662.798 38.0781C665.227 36.9531 668.078 36.3906 671.351 36.3906C675.672 36.3906 679.443 37.5156 682.665 39.7656C685.886 41.9901 688.213 45.3523 689.645 49.8523C691.102 54.3267 691.268 59.9389 690.143 66.6889C689.07 73.2599 687.088 78.8082 684.199 83.3338C681.335 87.8338 677.896 91.2472 673.882 93.5739C669.894 95.875 665.662 97.0256 661.188 97.0256C658.017 97.0256 655.409 96.5014 653.364 95.4531C651.344 94.4048 649.771 93.0881 648.646 91.5028C647.521 89.892 646.729 88.2685 646.268 86.6321H645.655L640.439 118.158H624.062ZM648.723 66.6122C648.161 70.1151 648.135 73.1705 648.646 75.7784C649.183 78.3864 650.257 80.419 651.868 81.8764C653.479 83.3082 655.601 84.0241 658.234 84.0241C660.893 84.0241 663.259 83.2955 665.33 81.8381C667.401 80.3551 669.126 78.3097 670.507 75.7017C671.888 73.0682 672.872 70.0384 673.46 66.6122C673.997 63.2116 674.01 60.2202 673.499 57.6378C672.987 55.0554 671.939 53.0355 670.354 51.5781C668.768 50.1207 666.621 49.392 663.911 49.392C661.277 49.392 658.912 50.0952 656.815 51.5014C654.744 52.9077 653.018 54.902 651.638 57.4844C650.257 60.0668 649.286 63.1094 648.723 66.6122Z" fill="white"/>
<path d="M590.749 97.2173C584.715 97.2173 579.716 95.9901 575.753 93.5355C571.79 91.0554 569.003 87.5526 567.392 83.027C565.807 78.4759 565.539 73.0937 566.587 66.8807C567.61 60.821 569.668 55.5028 572.762 50.9261C575.881 46.3494 579.793 42.7827 584.497 40.2258C589.202 37.669 594.443 36.3906 600.222 36.3906C604.108 36.3906 607.624 37.017 610.769 38.2699C613.939 39.4972 616.573 41.3636 618.669 43.8693C620.766 46.3494 622.198 49.456 622.965 53.1889C623.757 56.9219 623.745 61.294 622.926 66.3054L622.198 70.7926H572.493L574.066 60.6676H608.429C608.813 58.3153 608.659 56.2315 607.969 54.4162C607.279 52.6009 606.128 51.1818 604.517 50.1591C602.906 49.1108 600.925 48.5866 598.573 48.5866C596.169 48.5866 593.919 49.1747 591.823 50.3508C589.726 51.527 587.962 53.0739 586.53 54.9915C585.124 56.8835 584.216 58.9418 583.807 61.1662L582.004 71.2145C581.493 74.3082 581.595 76.8778 582.311 78.9233C583.053 80.9687 584.331 82.5028 586.147 83.5256C587.962 84.5227 590.263 85.0213 593.05 85.0213C594.865 85.0213 596.566 84.7656 598.151 84.2543C599.762 83.7429 601.193 82.9886 602.446 81.9915C603.699 80.9687 604.722 79.7031 605.514 78.1946L620.433 79.1918C619.053 82.8224 616.956 85.9929 614.144 88.7031C611.331 91.3878 607.943 93.4844 603.98 94.9929C600.043 96.4759 595.632 97.2173 590.749 97.2173Z" fill="white"/>
<path d="M494.887 96.0689L507.927 17.5234H538.915C544.847 17.5234 549.73 18.5717 553.566 20.6683C557.426 22.7649 560.137 25.7436 561.696 29.6044C563.282 33.4396 563.652 37.9652 562.809 43.1811C561.939 48.397 560.06 52.8714 557.171 56.6044C554.307 60.3374 550.574 63.2138 545.972 65.2337C541.395 67.228 536.09 68.2251 530.056 68.2251H509.307L511.608 54.8786H529.634C532.804 54.8786 535.515 54.4439 537.765 53.5746C540.015 52.7053 541.792 51.4013 543.096 49.6626C544.425 47.924 545.294 45.7635 545.703 43.1811C546.138 40.5476 545.985 38.3487 545.243 36.5845C544.502 34.7947 543.159 33.4396 541.216 32.5192C539.273 31.5732 536.716 31.1001 533.546 31.1001H522.347L511.493 96.0689H494.887ZM543.211 60.3246L556.826 96.0689H538.493L525.3 60.3246H543.211Z" fill="white"/>
<path d="M451.469 96.0732L461.287 37.1641H477.126L475.401 47.4425H476.014C477.702 43.7862 479.964 41.0249 482.803 39.1584C485.666 37.2663 488.747 36.3203 492.045 36.3203C492.864 36.3203 493.72 36.3714 494.615 36.4737C495.536 36.5504 496.354 36.6783 497.07 36.8572L494.615 51.3928C493.899 51.1371 492.876 50.9325 491.547 50.7791C490.243 50.6001 489.003 50.5107 487.827 50.5107C485.449 50.5107 483.237 51.0348 481.192 52.0831C479.146 53.1058 477.42 54.5376 476.014 56.3786C474.634 58.2195 473.726 60.3416 473.291 62.745L467.807 96.0732H451.469Z" fill="white"/>
<path d="M413.006 97.2173C406.997 97.2173 402.024 95.9389 398.087 93.3821C394.149 90.7997 391.375 87.2202 389.764 82.6435C388.179 78.0412 387.885 72.6847 388.882 66.5739C389.854 60.5398 391.874 55.2599 394.942 50.7344C398.01 46.2088 401.909 42.6932 406.639 40.1875C411.369 37.6562 416.7 36.3906 422.632 36.3906C428.615 36.3906 433.575 37.6818 437.513 40.2642C441.45 42.821 444.225 46.4006 445.835 51.0028C447.446 55.6051 447.753 60.9617 446.756 67.0724C445.759 73.081 443.713 78.348 440.619 82.8736C437.526 87.3991 433.627 90.9276 428.922 93.4588C424.218 95.9645 418.912 97.2173 413.006 97.2173ZM414.617 84.5611C417.378 84.5611 419.82 83.7812 421.942 82.2216C424.09 80.6364 425.867 78.4886 427.273 75.7784C428.705 73.0426 429.702 69.9489 430.264 66.4972C430.827 63.0966 430.865 60.0795 430.379 57.446C429.894 54.7869 428.871 52.6903 427.311 51.1562C425.777 49.6222 423.668 48.8551 420.983 48.8551C418.222 48.8551 415.767 49.6477 413.619 51.233C411.472 52.7926 409.695 54.9403 408.289 57.6761C406.882 60.4119 405.898 63.5185 405.335 66.9957C404.798 70.3707 404.76 73.3878 405.22 76.0469C405.681 78.6804 406.691 80.7642 408.25 82.2983C409.81 83.8068 411.932 84.5611 414.617 84.5611Z" fill="white"/>
<path d="M387.199 37.1605L385.167 49.4332H349.652L351.723 37.1605H387.199ZM362.078 23.0469H378.417L369.289 77.9673C369.033 79.4759 369.071 80.652 369.404 81.4957C369.736 82.3139 370.286 82.8892 371.053 83.2216C371.846 83.554 372.792 83.7202 373.891 83.7202C374.658 83.7202 375.438 83.6563 376.23 83.5284C377.023 83.375 377.624 83.2599 378.033 83.1832L378.647 95.3409C377.726 95.6222 376.486 95.929 374.926 96.2614C373.392 96.5938 371.577 96.7983 369.48 96.875C365.492 97.0284 362.117 96.5043 359.355 95.3026C356.594 94.0753 354.613 92.196 353.411 89.6648C352.209 87.1335 351.953 83.9503 352.644 80.1151L362.078 23.0469Z" fill="white"/>
<path d="M310.205 97.2173C304.145 97.2173 299.159 95.9389 295.247 93.3821C291.361 90.7997 288.638 87.2202 287.078 82.6435C285.544 78.0668 285.276 72.7997 286.273 66.8423C287.244 60.8082 289.277 55.5156 292.371 50.9645C295.465 46.3878 299.389 42.821 304.145 40.2642C308.926 37.6818 314.296 36.3906 320.253 36.3906C325.392 36.3906 329.739 37.3239 333.293 39.1903C336.847 41.0568 339.455 43.6776 341.117 47.0526C342.779 50.4276 343.341 54.3906 342.804 58.9418H327.425C327.45 56.027 326.696 53.6619 325.162 51.8466C323.628 50.0312 321.378 49.1236 318.412 49.1236C315.855 49.1236 313.503 49.8139 311.355 51.1946C309.233 52.5497 307.43 54.5312 305.948 57.1392C304.49 59.7472 303.467 62.9048 302.879 66.6122C302.266 70.3707 302.253 73.5668 302.841 76.2003C303.429 78.8338 304.554 80.8409 306.216 82.2216C307.878 83.6023 309.975 84.2926 312.506 84.2926C314.398 84.2926 316.149 83.9091 317.76 83.142C319.396 82.375 320.828 81.2628 322.055 79.8054C323.283 78.3224 324.229 76.5454 324.894 74.4744H340.311C339.263 79 337.358 82.9631 334.597 86.3636C331.861 89.7642 328.422 92.4233 324.28 94.3409C320.138 96.2585 315.446 97.2173 310.205 97.2173Z" fill="white"/>
<path d="M255.395 96.071L265.213 37.1619H281.551L271.733 96.071H255.395ZM275.069 29.4915C272.64 29.4915 270.633 28.6861 269.048 27.0753C267.488 25.4389 266.849 23.4957 267.13 21.2457C267.412 18.9446 268.511 17.0014 270.429 15.4162C272.346 13.8054 274.52 13 276.948 13C279.377 13 281.359 13.8054 282.893 15.4162C284.427 17.0014 285.066 18.9446 284.811 21.2457C284.555 23.4957 283.468 25.4389 281.551 27.0753C279.659 28.6861 277.498 29.4915 275.069 29.4915Z" fill="white"/>
<path d="M209.447 97.0277C204.947 97.0277 201.074 95.8771 197.826 93.576C194.605 91.2493 192.304 87.8359 190.923 83.3359C189.568 78.8104 189.44 73.2621 190.539 66.691C191.664 59.941 193.684 54.3288 196.599 49.8544C199.514 45.3544 202.966 41.9922 206.954 39.7678C210.943 37.5178 215.098 36.3928 219.419 36.3928C222.691 36.3928 225.338 36.9553 227.358 38.0803C229.403 39.1797 230.976 40.5604 232.075 42.2223C233.174 43.8587 233.941 45.4695 234.376 47.0547H234.875L239.822 17.5234H256.122L243.082 96.0689H226.974L228.547 86.6342H227.856C226.834 88.2706 225.478 89.8942 223.791 91.505C222.129 93.0902 220.109 94.407 217.731 95.4553C215.379 96.5035 212.618 97.0277 209.447 97.0277ZM216.657 84.0263C219.265 84.0263 221.618 83.3104 223.714 81.8786C225.811 80.4212 227.575 78.3885 229.007 75.7805C230.439 73.1726 231.436 70.1172 231.998 66.6143C232.586 63.1115 232.599 60.0689 232.037 57.4865C231.474 54.9041 230.375 52.9098 228.738 51.5036C227.128 50.0973 224.993 49.3942 222.333 49.3942C219.649 49.3942 217.271 50.1229 215.2 51.5803C213.155 53.0376 211.454 55.0575 210.099 57.6399C208.77 60.2223 207.824 63.2138 207.261 66.6143C206.699 70.0405 206.66 73.0703 207.146 75.7038C207.632 78.3118 208.667 80.3572 210.253 81.8402C211.838 83.2976 213.973 84.0263 216.657 84.0263Z" fill="white"/>
<path d="M150.936 97.2173C144.902 97.2173 139.904 95.9901 135.941 93.5355C131.977 91.0554 129.191 87.5526 127.58 83.027C125.995 78.4759 125.726 73.0937 126.774 66.8807C127.797 60.821 129.855 55.5028 132.949 50.9261C136.068 46.3494 139.98 42.7827 144.685 40.2258C149.389 37.669 154.631 36.3906 160.409 36.3906C164.296 36.3906 167.811 37.017 170.956 38.2699C174.127 39.4972 176.76 41.3636 178.857 43.8693C180.953 46.3494 182.385 49.456 183.152 53.1889C183.945 56.9219 183.932 61.294 183.114 66.3054L182.385 70.7926H132.681L134.253 60.6676H168.617C169 58.3153 168.847 56.2315 168.156 54.4162C167.466 52.6009 166.316 51.1818 164.705 50.1591C163.094 49.1108 161.112 48.5866 158.76 48.5866C156.357 48.5866 154.107 49.1747 152.01 50.3508C149.914 51.527 148.149 53.0739 146.718 54.9915C145.311 56.8835 144.404 58.9418 143.995 61.1662L142.192 71.2145C141.681 74.3082 141.783 76.8778 142.499 78.9233C143.24 80.9687 144.519 82.5028 146.334 83.5256C148.149 84.5227 150.451 85.0213 153.237 85.0213C155.053 85.0213 156.753 84.7656 158.338 84.2543C159.949 83.7429 161.381 82.9886 162.634 81.9915C163.887 80.9687 164.909 79.7031 165.702 78.1946L180.621 79.1918C179.24 82.8224 177.144 85.9929 174.331 88.7031C171.519 91.3878 168.131 93.4844 164.168 94.9929C160.23 96.4759 155.82 97.2173 150.936 97.2173Z" fill="white"/>
<path d="M83.875 96.0732L93.6932 37.1641H109.533L107.807 47.4425H108.42C110.108 43.7862 112.371 41.0249 115.209 39.1584C118.072 37.2663 121.153 36.3203 124.452 36.3203C125.27 36.3203 126.126 36.3714 127.021 36.4737C127.942 36.5504 128.76 36.6783 129.476 36.8572L127.021 51.3928C126.305 51.1371 125.283 50.9325 123.953 50.7791C122.649 50.6001 121.409 50.5107 120.233 50.5107C117.855 50.5107 115.643 51.0348 113.598 52.0831C111.553 53.1058 109.827 54.5376 108.42 56.3786C107.04 58.2195 106.132 60.3416 105.697 62.745L100.213 96.0732H83.875Z" fill="white"/>
<path d="M15.3359 96.0689L28.3757 17.5234H59.3643C65.2962 17.5234 70.1669 18.6612 73.9766 20.9368C77.8118 23.1868 80.4965 26.3189 82.0305 30.3331C83.5902 34.3217 83.9482 38.924 83.1044 44.1399C82.2351 49.3814 80.343 53.9964 77.4283 57.9851C74.5391 61.9482 70.7805 65.0419 66.1527 67.2663C61.5249 69.4908 56.1811 70.603 50.1214 70.603H30.37L32.5561 57.2947H49.6229C52.8445 57.2947 55.593 56.745 57.8686 55.6456C60.1697 54.5206 61.9979 52.9737 63.353 51.005C64.7081 49.0107 65.5902 46.7223 65.9993 44.1399C66.4339 41.5064 66.2933 39.218 65.5774 37.2749C64.8615 35.3317 63.5447 33.8232 61.6271 32.7493C59.7351 31.6499 57.1911 31.1001 53.995 31.1001H42.7962L31.9425 96.0689H15.3359Z" fill="white"/>
<path d="M853.926 10.0469L851.58 24.1602H862.699L856.36 62.4326H845.22L844.153 68.8398L850.437 67.6631L852.312 104.811L842.615 107.773C841.18 108.212 839.529 108.609 837.807 108.976L837.806 108.974C835.341 109.504 832.751 109.768 830.149 109.864C830.142 109.865 830.134 109.866 830.126 109.866L830.125 109.865C824.799 110.067 819.367 109.411 814.338 107.223L814.246 107.182C808.887 104.8 804.48 100.807 801.837 95.2402C799.126 89.5293 799.034 83.4391 799.988 77.9941L802.561 62.4326H794.445L796.457 50.5068C796.475 50.5068 796.493 50.5068 796.511 50.5068C797.687 50.5068 798.927 50.5964 800.231 50.7754C801.561 50.9288 802.583 51.1331 803.299 51.3887L805.754 36.8535C805.038 36.6745 804.219 36.5464 803.299 36.4697C802.404 36.3675 801.548 36.3164 800.729 36.3164C800.089 36.3164 799.458 36.3526 798.834 36.4238L800.903 24.1602H808.888L811.222 10.0469H853.926ZM822.249 23.0469L819.916 37.1602H811.894L809.822 49.4326H817.887L812.813 80.1152C812.123 83.9501 812.38 87.133 813.581 89.6641C814.783 92.1953 816.764 94.0755 819.525 95.3027C822.287 96.5044 825.662 97.0284 829.65 96.875C831.747 96.7983 833.563 96.5931 835.097 96.2607C836.656 95.9284 837.896 95.622 838.816 95.3408L838.203 83.1826C837.794 83.2593 837.193 83.3749 836.4 83.5283C835.608 83.6561 834.828 83.7197 834.062 83.7197C833.099 83.7197 832.254 83.5924 831.527 83.3379L831.223 83.2217C830.456 82.8893 829.907 82.3132 829.574 81.4951C829.283 80.7569 829.218 79.7645 829.377 78.5176L829.459 77.9668L834.201 49.4326H845.337L847.369 37.1602H836.241L838.587 23.0469H822.249Z" fill="black"/>
<path d="M800.731 23.3203C801.995 23.3203 803.253 23.396 804.499 23.5293C805.917 23.6524 807.409 23.8704 808.908 24.2451L820.577 27.1621L818.888 37.1641H811.896L811.775 37.873L805.756 36.8574C805.04 36.6784 804.221 36.5503 803.301 36.4736C802.406 36.3714 801.55 36.3203 800.731 36.3203C797.433 36.3203 794.352 37.2662 791.488 39.1582C788.65 41.0247 786.388 43.7862 784.7 47.4424H784.087L785.812 37.1641H769.973L760.155 96.0732H776.493L781.978 62.7451C782.412 60.3418 783.32 58.2198 784.7 56.3789C786.106 54.538 787.832 53.1057 789.878 52.083C791.923 51.0348 794.135 50.5108 796.513 50.5107C797.689 50.5107 798.929 50.6003 800.233 50.7793C801.562 50.9327 802.585 51.137 803.301 51.3926L805.756 36.8574L811.775 37.873L809.824 49.4365H816.815L813.537 68.8525L799.309 63.7705C799.282 63.7661 799.251 63.7611 799.217 63.7559C799.095 63.7374 798.939 63.7159 798.743 63.6934L798.604 63.6777L798.465 63.6582C797.679 63.5503 797.033 63.5107 796.513 63.5107C796.123 63.5107 795.953 63.5775 795.807 63.6523L795.691 63.7109C795.454 63.8297 795.274 63.9662 795.068 64.2246C794.981 64.3512 794.865 64.5643 794.779 65.0088L787.528 109.073H744.809L749.133 83.127C749.19 83.0443 749.251 82.9632 749.308 82.8799C752.401 78.3544 754.446 73.0874 755.443 67.0791C756.44 60.9685 756.134 55.6119 754.523 51.0098C754.515 50.9857 754.506 50.9615 754.497 50.9375L758.96 24.1641H793.719C795.98 23.6078 798.323 23.3203 800.731 23.3203Z" fill="black"/>
<path d="M731.318 23.3984C739.153 23.3985 746.766 25.0979 753.328 29.4014C759.752 33.5879 764.275 39.528 766.791 46.7158C767.186 47.8437 767.524 48.9843 767.809 50.1357L764.732 68.5957L755.441 67.0801C756.407 61.1603 756.149 55.9484 754.668 51.4443L754.521 51.0107C752.911 46.4085 750.136 42.8283 746.198 40.2715C742.261 37.6893 737.301 36.3985 731.318 36.3984C725.387 36.3984 720.055 37.6641 715.325 40.1953L714.884 40.4326C710.352 42.9211 706.6 46.3581 703.628 50.7422L703.343 51.168C700.434 55.5977 698.51 60.7356 697.568 66.5811C696.571 72.6919 696.865 78.0491 698.45 82.6514C700.061 87.2279 702.835 90.8073 706.772 93.3896C710.71 95.9464 715.683 97.2246 721.691 97.2246C727.598 97.2246 732.903 95.9715 737.607 93.4658C742.018 91.0928 745.721 87.8437 748.716 83.7178L749.306 82.8809C752.399 78.3554 754.444 73.0884 755.441 67.0801L764.728 68.6201L761.511 87.9229C761.042 88.6993 760.552 89.465 760.037 90.2178C755.802 96.4131 750.352 101.371 743.768 104.914L743.743 104.928L743.719 104.94C736.936 108.553 729.494 110.225 721.691 110.225C713.867 110.225 706.255 108.554 699.692 104.293L699.644 104.26C693.246 100.064 688.714 94.1441 686.188 86.9668L686.173 86.9258L686.159 86.8848C685.632 85.3532 685.207 83.7982 684.879 82.2246C687.4 77.9125 689.156 72.737 690.144 66.6963C691.269 59.9463 691.102 54.3338 689.645 49.8594C689.587 49.6781 689.524 49.4998 689.464 49.3223C690.457 47.2929 691.589 45.3314 692.867 43.4463C697.101 37.2016 702.59 32.2292 709.239 28.707C716.037 25.0802 723.495 23.3984 731.318 23.3984ZM729.669 48.8623C732.354 48.8623 734.463 49.63 735.997 51.1641C737.557 52.6981 738.58 54.7943 739.065 57.4531C739.551 60.0866 739.513 63.1043 738.95 66.5049L738.84 67.1475C738.262 70.3416 737.301 73.2213 735.959 75.7861C734.553 78.4963 732.776 80.6443 730.628 82.2295L730.226 82.5127C728.199 83.8832 725.891 84.5683 723.303 84.5684C720.618 84.5684 718.495 83.8142 716.936 82.3057C715.376 80.7717 714.366 78.6879 713.906 76.0547C713.446 73.3956 713.485 70.3779 714.021 67.0029C714.549 63.7432 715.447 60.8093 716.716 58.2012L716.975 57.6836C718.381 54.9479 720.158 52.7999 722.306 51.2402C724.453 49.6552 726.908 48.8623 729.669 48.8623ZM764.732 68.5957L764.728 68.6201L755.441 67.0801L764.732 68.5957Z" fill="black"/>
<path d="M671.352 23.3984C678.034 23.3984 684.443 25.1772 690.051 29.0752C690.059 29.081 690.069 29.087 690.077 29.0928C690.088 29.1002 690.099 29.1077 690.109 29.1152C696.126 33.2907 699.922 39.2782 702.034 45.918C702.592 47.6465 703.011 49.418 703.308 51.2227C700.419 55.64 698.506 60.7597 697.568 66.5811C696.571 72.6919 696.865 78.0491 698.45 82.6514C698.552 82.9418 698.66 83.2284 698.771 83.5107C697.739 85.8908 696.539 88.1719 695.157 90.3369L695.156 90.3359C691.343 96.3229 686.468 101.312 680.402 104.828L680.391 104.835L680.38 104.842C674.476 108.248 668.012 110.033 661.188 110.033C659.185 110.033 657.117 109.887 655.046 109.524L651.466 131.165H608.703L616.188 86.5088C617.996 84.3244 619.413 81.8887 620.436 79.1992L617.446 78.999L618.821 70.7998H622.2L622.929 66.3125C623.747 61.3013 623.759 56.9292 622.967 53.1963C622.768 52.2304 622.524 51.3069 622.236 50.4248L626.638 24.165H663.772C666.275 23.6333 668.819 23.3985 671.352 23.3984ZM671.352 36.3984C668.079 36.3985 665.228 36.961 662.799 38.0859C660.37 39.1853 658.337 40.5657 656.701 42.2275C655.091 43.8637 653.8 45.4745 652.828 47.0596H652.099L653.748 37.165H637.641L624.063 118.165H640.439L645.656 86.6396H646.27C646.73 88.276 647.522 89.9 648.647 91.5107C649.772 93.0958 651.345 94.4127 653.364 95.4609C655.282 96.4437 657.694 96.9659 660.601 97.0273L661.188 97.0332C665.663 97.0332 669.894 95.8822 673.883 93.5811C677.897 91.2543 681.337 87.8408 684.2 83.3408C687.089 78.8153 689.07 73.2671 690.144 66.6963C691.269 59.9463 691.102 54.3338 689.645 49.8594C688.257 45.5002 686.031 42.2091 682.965 39.9854L682.666 39.7734C679.646 37.664 676.142 36.5429 672.155 36.4111L671.352 36.3984ZM663.911 49.3994C666.621 49.3994 668.769 50.1286 670.354 51.5859C671.94 53.0433 672.989 55.0632 673.5 57.6455C674.011 60.2278 673.998 63.2197 673.461 66.6201C672.873 70.046 671.888 73.0756 670.508 75.709C669.127 78.3169 667.401 80.3627 665.33 81.8457L664.938 82.1104C662.962 83.3912 660.728 84.0312 658.235 84.0312C655.602 84.0312 653.48 83.3155 651.869 81.8838C650.258 80.4265 649.184 78.3939 648.647 75.7861C648.168 73.3412 648.161 70.5029 648.625 67.2715L648.724 66.6201C649.286 63.1174 650.258 60.0745 651.639 57.4922C653.019 54.9098 654.745 52.915 656.816 51.5088C658.913 50.1027 661.278 49.3995 663.911 49.3994Z" fill="black"/>
<path d="M600.221 23.3984C605.471 23.3984 610.61 24.2415 615.46 26.1543C615.47 26.1581 615.481 26.1622 615.49 26.166C615.52 26.1777 615.55 26.1884 615.579 26.2002C620.665 28.1899 625.1 31.3051 628.639 35.5342C632.159 39.7157 634.349 44.604 635.523 49.7793L628.491 91.7285C626.957 94.0089 625.18 96.1288 623.164 98.0713L623.119 98.1143C618.944 102.1 614.039 105.082 608.605 107.15L608.562 107.166C602.945 109.282 596.949 110.225 590.748 110.225C582.996 110.225 575.45 108.647 568.907 104.595L568.882 104.579L568.857 104.562C562.337 100.483 557.709 94.5967 555.145 87.3936L555.13 87.3525L555.115 87.3105C552.623 80.154 552.464 72.4524 553.768 64.7246C554.09 62.8148 554.498 60.9409 554.994 59.1064C555.766 58.3213 556.492 57.4898 557.167 56.6094C560.056 52.8765 561.936 48.4023 562.805 43.1865C562.852 42.8937 562.895 42.6029 562.935 42.3145C567.035 36.691 572.169 32.1375 578.289 28.8115C585.048 25.1382 592.451 23.3985 600.221 23.3984ZM600.221 36.3984C594.443 36.3985 589.202 37.6767 584.497 40.2334C579.793 42.7902 575.88 46.3569 572.761 50.9336C569.667 55.5102 567.609 60.8282 566.586 66.8877C565.538 73.1007 565.807 78.4831 567.392 83.0342C569.003 87.5596 571.789 91.0629 575.752 93.543C579.715 95.9975 584.714 97.2246 590.748 97.2246C595.632 97.2246 600.042 96.4829 603.98 95C607.943 93.4915 611.33 91.3954 614.143 88.7109C616.955 86.0007 619.052 82.8299 620.433 79.1992L605.514 78.2021C604.721 79.7106 603.698 80.9763 602.445 81.999C601.193 82.9961 599.761 83.7504 598.151 84.2617C596.565 84.7731 594.864 85.0283 593.049 85.0283C590.262 85.0283 587.961 84.5303 586.146 83.5332C584.33 82.5105 583.052 80.976 582.311 78.9307C581.595 76.8852 581.493 74.3154 582.004 71.2217L582.08 70.7998H622.197L622.926 66.3125C623.744 61.3013 623.757 56.9292 622.964 53.1963C622.245 49.6968 620.941 46.7481 619.054 44.3496L618.669 43.877C616.573 41.3713 613.938 39.5046 610.768 38.2773C607.623 37.0246 604.107 36.3984 600.221 36.3984ZM598.572 48.5938C600.925 48.5938 602.906 49.1187 604.517 50.167C606.127 51.1897 607.279 52.6086 607.969 54.4238C608.659 56.239 608.812 58.3228 608.429 60.6748H583.908C584.356 58.6408 585.229 56.7487 586.529 54.999C587.961 53.0814 589.726 51.5345 591.822 50.3584C593.919 49.1823 596.169 48.5938 598.572 48.5938Z" fill="black"/>
<path d="M538.915 4.52344L538.915 17.5234H507.927L494.887 96.0689H511.493L516.146 68.2256H528.217L538.493 96.0689H556.826L545.203 65.5557C545.462 65.4511 545.718 65.3443 545.972 65.2337C550.574 63.2138 554.307 60.3374 557.171 56.6044C559.879 53.1047 561.7 48.9535 562.634 44.1504L562.809 43.1811C563.652 37.9652 563.282 33.4396 561.696 29.6044C560.186 25.8646 557.595 22.9526 553.925 20.8682L553.566 20.6683C549.73 18.5717 544.847 17.5234 538.915 17.5234L538.915 4.52344C546.269 4.52344 553.468 5.80899 559.769 9.24414C559.774 9.24704 559.781 9.25002 559.786 9.25293C559.791 9.25579 559.797 9.25885 559.802 9.26172C566.111 12.6962 570.952 17.8768 573.71 24.6387C576.435 31.2327 576.767 38.3059 575.643 45.2578L575.637 45.2881L575.632 45.3184C575.492 46.1559 575.33 46.9858 575.149 47.8076C574.309 48.79 573.514 49.8299 572.765 50.9287C569.949 55.0937 567.995 59.8735 566.895 65.2666C565.177 67.3987 563.273 69.3186 561.199 71.0283L575.688 109.069H529.435L524.661 96.1377L522.502 109.069H479.551L489.266 50.5498C490.003 50.5927 490.763 50.6679 491.547 50.7754C492.876 50.9288 493.899 51.133 494.615 51.3887L497.069 36.8535C496.354 36.6746 495.536 36.5464 494.615 36.4697C493.72 36.3675 492.864 36.3164 492.046 36.3164C491.906 36.3164 491.766 36.3198 491.627 36.3232L496.907 4.52344H538.915ZM533.546 31.1001C536.716 31.1001 539.273 31.5732 541.216 32.5192L541.574 32.6973C543.325 33.6111 544.548 34.9068 545.243 36.5845C545.985 38.3487 546.138 40.5476 545.703 43.1811L545.622 43.6611C545.185 46.0326 544.342 48.0327 543.096 49.6626C541.792 51.4013 540.015 52.7053 537.765 53.5746C535.515 54.4439 532.804 54.8786 529.634 54.8786L518.375 54.8789L522.347 31.1001H533.546Z" fill="black"/>
<path d="M492.044 23.3203C493.307 23.3203 494.565 23.396 495.811 23.5293C497.229 23.6524 498.721 23.8703 500.221 24.2451L506.547 25.8262L499.708 67.0166L490.621 63.7705C490.594 63.7661 490.564 63.7611 490.529 63.7559C490.408 63.7374 490.25 63.7159 490.055 63.6934L489.916 63.6777L489.777 63.6582C488.991 63.5503 488.345 63.5108 487.825 63.5107C487.436 63.5107 487.265 63.5775 487.119 63.6523L487.004 63.7109C486.766 63.8297 486.586 63.9659 486.38 64.2246C486.292 64.3513 486.177 64.5646 486.092 65.0088L478.841 109.073H436.121L440.444 83.127C440.502 83.0443 440.562 82.9633 440.619 82.8799C443.713 78.3544 445.759 73.0875 446.756 67.0791C447.753 60.9684 447.446 55.612 445.835 51.0098C445.827 50.9863 445.818 50.9628 445.81 50.9395L450.272 24.1641H485.03C487.292 23.6077 489.635 23.3203 492.044 23.3203ZM492.044 36.3203C488.746 36.3203 485.664 37.2662 482.801 39.1582C479.963 41.0246 477.7 43.7863 476.013 47.4424H475.398L477.125 37.1641H461.285L451.467 96.0732H467.805L473.289 62.7451C473.724 60.3417 474.632 58.2198 476.013 56.3789C477.419 54.5381 479.144 53.1057 481.189 52.083C483.235 51.0347 485.447 50.5107 487.825 50.5107C489.001 50.5108 490.241 50.6003 491.545 50.7793C492.874 50.9327 493.897 51.1369 494.613 51.3926L497.067 36.8574C496.352 36.6785 495.534 36.5503 494.613 36.4736C493.719 36.3714 492.862 36.3203 492.044 36.3203Z" fill="black"/>
<path d="M446.756 67.0801L456.042 68.6201L452.825 87.9229C452.357 88.6993 451.866 89.465 451.352 90.2178C447.116 96.4132 441.666 101.371 435.081 104.914L435.058 104.928L435.033 104.94C428.251 108.553 420.809 110.225 413.006 110.225C405.182 110.225 397.569 108.554 391.007 104.293L390.983 104.276L390.957 104.26C385.209 100.49 380.967 95.3269 378.333 89.1113L378.212 86.7158L389.765 82.6514C391.376 87.2278 394.15 90.8074 398.087 93.3896C402.025 95.9464 406.998 97.2246 413.006 97.2246C418.912 97.2246 424.218 95.9715 428.922 93.4658C433.627 90.9346 437.526 87.4064 440.619 82.8809C443.713 78.3553 445.759 73.0885 446.756 67.0801ZM378.212 86.7158L378.208 86.6309L389.765 82.6514L378.212 86.7158ZM422.632 23.3984C430.466 23.3984 438.081 25.0979 444.643 29.4014C451.066 33.5879 455.59 39.5281 458.106 46.7158C458.5 47.8437 458.838 48.9843 459.123 50.1357L456.042 68.6201L446.756 67.0801C447.722 61.1604 447.464 55.9484 445.983 51.4443L445.835 51.0107C444.224 46.4085 441.45 42.8283 437.513 40.2715C433.575 37.6892 428.615 36.3984 422.632 36.3984C416.7 36.3985 411.37 37.6642 406.64 40.1953L406.198 40.4326C401.666 42.9211 397.914 46.358 394.942 50.7422L394.657 51.168C391.749 55.5978 389.823 60.7355 388.882 66.5811C387.885 72.6919 388.18 78.0491 389.765 82.6514L378.208 86.6309L378.034 83.1875C377.669 83.2561 377.149 83.3554 376.477 83.4854C374.989 77.3695 374.998 70.947 376.052 64.4873C376.911 59.1655 378.447 54.12 380.723 49.4375H385.168L386.726 40.0312C390.54 35.3673 395.166 31.5611 400.554 28.707C407.351 25.0805 414.809 23.3985 422.632 23.3984ZM420.984 48.8623C423.668 48.8624 425.778 49.6301 427.312 51.1641C428.871 52.698 429.893 54.7945 430.379 57.4531C430.865 60.0866 430.827 63.1043 430.265 66.5049L430.154 67.1475C429.575 70.3415 428.615 73.2213 427.273 75.7861C425.866 78.4962 424.089 80.6443 421.942 82.2295L421.54 82.5127C419.513 83.8834 417.205 84.5684 414.616 84.5684C411.932 84.5683 409.81 83.8141 408.25 82.3057C406.691 80.7716 405.68 78.6881 405.22 76.0547C404.76 73.3956 404.798 70.3779 405.335 67.0029C405.898 63.5258 406.882 60.4193 408.288 57.6836C409.695 54.9478 411.472 52.7999 413.619 51.2402C415.767 49.655 418.222 48.8623 420.984 48.8623Z" fill="black"/>
<path d="M393.758 10.0469L391.412 24.1602H402.532L398.934 45.8809C397.476 47.3444 396.145 48.9634 394.942 50.7373C392.598 54.1952 390.868 58.0941 389.748 62.4326H385.052L383.985 68.8398L388.679 67.9609C387.939 73.4997 388.301 78.395 389.766 82.6465C390.167 83.7879 390.641 84.8674 391.188 85.8848L392.144 104.811L382.448 107.773C381.013 108.212 379.361 108.609 377.639 108.976L377.638 108.974C375.173 109.504 372.583 109.768 369.981 109.864L369.982 109.865C369.98 109.865 369.977 109.865 369.975 109.865C369.969 109.865 369.963 109.866 369.958 109.866L369.957 109.865C364.632 110.067 359.2 109.411 354.171 107.223L354.124 107.202L354.078 107.182C348.719 104.8 344.313 100.806 341.67 95.2402C338.959 89.5293 338.866 83.4391 339.82 77.9941L342.393 62.4326H334.277L334.866 58.9443H342.806C343.343 54.3932 342.78 50.4297 341.118 47.0547C340.236 45.2638 339.086 43.6874 337.671 42.3213L340.735 24.1602H348.72L351.054 10.0469H393.758ZM362.081 23.0469L359.748 37.1602H351.726L349.655 49.4326H357.719L352.646 80.1152C351.956 83.95 352.212 87.133 353.413 89.6641C354.615 92.1953 356.597 94.0755 359.358 95.3027C362.12 96.5043 365.495 97.0284 369.483 96.875C371.58 96.7983 373.395 96.5931 374.929 96.2607C376.488 95.9284 377.729 95.6221 378.649 95.3408L378.035 83.1826C377.626 83.2593 377.026 83.375 376.233 83.5283C375.441 83.6562 374.661 83.7197 373.894 83.7197C372.931 83.7197 372.087 83.5925 371.359 83.3379L371.056 83.2217C370.289 82.8893 369.739 82.3133 369.406 81.4951C369.074 80.6514 369.035 79.4751 369.291 77.9668L374.033 49.4326H385.169L387.202 37.1602H376.073L378.419 23.0469H362.081Z" fill="black"/>
<path d="M320.254 23.3984C326.925 23.3984 333.471 24.6069 339.339 27.6885C344.34 30.3152 348.489 34.0562 351.437 38.876L349.655 49.4375H355.446C356.109 53.0716 356.151 56.7868 355.716 60.4727L355.597 61.4814H355.728L353.383 75.6621L352.978 77.415C351.511 83.7479 348.773 89.5383 344.69 94.5664L344.689 94.5654C340.648 99.5745 335.597 103.435 329.743 106.146C323.653 108.965 317.055 110.225 310.206 110.225C302.36 110.225 294.708 108.566 288.137 104.271L288.095 104.244L288.054 104.217C281.688 99.9865 277.223 94.0299 274.774 86.8447L274.764 86.8135L274.754 86.7822C274.395 85.7109 274.086 84.629 273.824 83.5381L280.062 46.1133C280.555 45.2835 281.075 44.4663 281.621 43.6631C285.862 37.3988 291.348 32.3925 297.99 28.8213C304.842 25.1257 312.361 23.3985 320.254 23.3984ZM320.254 36.3984C314.297 36.3985 308.928 37.6892 304.146 40.2715L303.703 40.5146C299.146 43.0527 295.369 46.5381 292.372 50.9717C289.278 55.5228 287.246 60.8156 286.274 66.8496C285.277 72.807 285.546 78.0747 287.08 82.6514C288.64 87.2278 291.363 90.8074 295.249 93.3896C299.161 95.9463 304.147 97.2246 310.206 97.2246C315.447 97.2246 320.139 96.2662 324.281 94.3486C328.423 92.4311 331.862 89.7715 334.598 86.3711C337.359 82.9705 339.264 79.007 340.312 74.4814H324.895C324.23 76.5524 323.284 78.3296 322.057 79.8125C320.829 81.2698 319.398 82.3824 317.762 83.1494C316.151 83.9165 314.399 84.2998 312.507 84.2998C310.134 84.2997 308.143 83.693 306.534 82.4795L306.218 82.2295C304.66 80.9351 303.573 79.0898 302.959 76.6943L302.843 76.208C302.255 73.5746 302.267 70.3785 302.881 66.6201C303.469 62.9127 304.492 59.7544 305.949 57.1465C307.339 54.7016 309.011 52.8077 310.963 51.4639L311.356 51.2021C313.504 49.8215 315.856 49.1309 318.413 49.1309C321.379 49.1309 323.629 50.0392 325.163 51.8545C326.697 53.6698 327.451 56.0345 327.426 58.9492H342.806C343.343 54.3981 342.78 50.4346 341.118 47.0596C339.56 43.8956 337.17 41.3948 333.949 39.5566L333.294 39.1982C329.74 37.3318 325.393 36.3984 320.254 36.3984Z" fill="black"/>
<path d="M276.951 0C282.543 0 288.019 1.99013 292.236 6.37598C292.248 6.38784 292.26 6.40023 292.271 6.41211C292.284 6.42521 292.297 6.43803 292.31 6.45117C296.635 10.965 298.39 16.7814 297.734 22.6816L297.732 22.6973L297.73 22.7139C297.486 24.8688 296.935 26.8805 296.137 28.7383L292.45 50.8555C292.424 50.8934 292.398 50.9307 292.372 50.9688C289.278 55.5198 287.246 60.8127 286.274 66.8467C285.277 72.8041 285.546 78.0717 287.08 82.6484C287.096 82.6948 287.112 82.741 287.128 82.7871L282.748 109.071H240.051L242.218 96.0713H243.083L256.122 17.5254H254.599C255.689 12.6498 258.367 8.5485 262.069 5.46191C266.25 1.95036 271.362 9.13753e-06 276.951 0ZM265.216 37.1621L255.397 96.0713H271.735L281.554 37.1621H265.216ZM276.951 13C274.522 13 272.349 13.8055 270.432 15.416C268.514 17.0012 267.414 18.945 267.133 21.2461C266.852 23.496 267.491 25.4389 269.051 27.0752C270.636 28.686 272.643 29.4922 275.072 29.4922C277.501 29.4921 279.662 28.6859 281.554 27.0752C283.351 25.5411 284.419 23.7375 284.756 21.6641L284.813 21.2461C285.069 18.945 284.43 17.0012 282.896 15.416C281.361 13.8055 279.38 13 276.951 13Z" fill="black"/>
<path d="M271.457 4.52344L269.506 16.2715C268.155 17.6845 267.363 19.342 267.131 21.2441C266.929 22.8618 267.205 24.3196 267.954 25.6201L266.039 37.1602H265.214L255.396 96.0693H256.259L254.101 109.069H217.881C215.101 109.741 212.264 110.028 209.446 110.028C202.62 110.028 196.034 108.241 190.309 104.184L190.261 104.149L190.214 104.115C184.295 99.8405 180.546 93.8399 178.493 87.1494L178.468 87.0654C178.222 86.2452 178.007 85.416 177.818 84.5791C178.953 82.9129 179.889 81.1192 180.621 79.1943L176.965 78.9492C176.741 76.2787 176.754 73.552 176.956 70.7949H182.385L183.113 66.3076C183.931 61.2964 183.945 56.9243 183.152 53.1914C182.881 51.8705 182.524 50.6289 182.086 49.4648C183.123 47.1199 184.324 44.8784 185.705 42.7588C189.558 36.8184 194.461 31.863 200.566 28.4453C206.382 25.164 212.724 23.3936 219.417 23.3936C221.411 23.3936 223.486 23.5379 225.569 23.9072L228.817 4.52344H271.457ZM239.822 17.5234L234.873 47.0547H234.375C233.94 45.4696 233.173 43.8589 232.073 42.2227C230.974 40.5609 229.402 39.1804 227.357 38.0811C225.463 37.0263 223.018 36.4653 220.024 36.3994L219.417 36.3936C215.096 36.3936 210.942 37.5186 206.953 39.7686L206.211 40.1982C202.535 42.4169 199.33 45.6359 196.598 49.8545C193.683 54.3289 191.663 59.9414 190.538 66.6914C189.439 73.2623 189.567 78.8104 190.922 83.3359C192.303 87.8359 194.604 91.2495 197.825 93.5762C200.869 95.7335 204.464 96.8798 208.609 97.0146L209.447 97.0277C212.617 97.0276 215.378 96.5042 217.73 95.4561C220.107 94.4078 222.128 93.0911 223.79 91.5059C225.478 89.8952 226.832 88.271 227.855 86.6348H228.545L226.973 96.0693H243.081L256.12 17.5234H239.822ZM222.332 49.3945C224.991 49.3945 227.127 50.0977 228.737 51.5039C230.374 52.9102 231.473 54.905 232.035 57.4873C232.598 60.0696 232.585 63.1125 231.997 66.6152L231.887 67.2666C231.309 70.498 230.348 73.3363 229.006 75.7812C227.574 78.3892 225.81 80.4215 223.713 81.8789C221.616 83.3107 219.264 84.0263 216.656 84.0264C214.139 84.0264 212.105 83.3864 210.555 82.1055L210.251 81.8408C208.666 80.3579 207.63 78.312 207.145 75.7041C206.659 73.0707 206.697 70.0411 207.26 66.6152C207.822 63.2148 208.768 60.2229 210.098 57.6406C211.453 55.0584 213.153 53.0384 215.198 51.5811C217.269 50.1237 219.648 49.3946 222.332 49.3945Z" fill="black"/>
<path d="M160.409 23.3984C165.659 23.3985 170.798 24.2417 175.648 26.1543C175.657 26.1581 175.668 26.1622 175.678 26.166C175.707 26.1777 175.737 26.1884 175.767 26.2002C180.852 28.1899 185.288 31.3051 188.826 35.5342C192.508 39.9084 194.737 45.0555 195.867 50.4961C195.896 50.6296 195.923 50.7636 195.95 50.8975C193.382 55.192 191.578 60.4582 190.538 66.6963C189.439 73.2671 189.567 78.8153 190.922 83.3408C191.204 84.2594 191.524 85.1329 191.883 85.9609C189.839 90.5166 186.977 94.5774 183.352 98.0713L183.307 98.1143C179.132 102.099 174.226 105.082 168.792 107.15L168.749 107.166C163.132 109.281 157.137 110.225 150.936 110.225C143.183 110.225 135.637 108.647 129.095 104.595L129.07 104.579L129.044 104.562C122.525 100.483 117.896 94.5966 115.332 87.3936L115.318 87.3525L115.303 87.3105C112.81 80.154 112.651 72.4524 113.955 64.7246C114.792 59.7665 116.205 55.0497 118.242 50.6396C118.892 50.5548 119.555 50.5117 120.232 50.5117C121.408 50.5117 122.648 50.6013 123.952 50.7803C125.281 50.9336 126.304 51.138 127.02 51.3936L129.475 36.8584C129.032 36.7476 128.549 36.6585 128.028 36.5869C131.105 33.5275 134.593 30.9224 138.477 28.8115C145.236 25.1382 152.639 23.3984 160.409 23.3984ZM160.409 36.3984C154.631 36.3984 149.389 37.6766 144.685 40.2334C139.98 42.7902 136.069 46.357 132.949 50.9336C129.856 55.5102 127.797 60.8282 126.775 66.8877C125.726 73.1006 125.994 78.4831 127.579 83.0342C129.19 87.5597 131.978 91.0629 135.941 93.543C139.904 95.9974 144.902 97.2246 150.936 97.2246C155.819 97.2246 160.231 96.483 164.168 95C168.131 93.4915 171.519 91.3954 174.331 88.7109C177.144 86.0007 179.241 82.8299 180.621 79.1992L165.701 78.2021C164.909 79.7105 163.887 80.9764 162.634 81.999C161.381 82.9962 159.949 83.7504 158.338 84.2617C156.753 84.7731 155.053 85.0283 153.237 85.0283C150.451 85.0283 148.149 84.5303 146.334 83.5332C144.519 82.5105 143.24 80.9761 142.498 78.9307C141.782 76.8852 141.68 74.3153 142.192 71.2217L142.268 70.7998H182.385L183.113 66.3125C183.932 61.3013 183.945 56.9292 183.153 53.1963C182.433 49.6969 181.13 46.748 179.242 44.3496L178.857 43.877C176.76 41.3713 174.127 39.5046 170.956 38.2773C167.811 37.0245 164.296 36.3985 160.409 36.3984ZM158.76 48.5938C161.112 48.5938 163.093 49.1187 164.704 50.167C166.315 51.1897 167.466 52.6085 168.156 54.4238C168.847 56.2391 169 58.3227 168.616 60.6748H144.097C144.545 58.6409 145.417 56.7487 146.717 54.999C148.149 53.0814 149.913 51.5345 152.01 50.3584C154.107 49.1823 156.357 48.5938 158.76 48.5938Z" fill="black"/>
<path d="M124.45 23.3203C125.714 23.3203 126.972 23.396 128.218 23.5293C129.636 23.6524 131.128 23.8704 132.627 24.2451L144.296 27.1621L141.789 42.002C138.351 44.353 135.405 47.3309 132.949 50.9336C130.143 55.0858 128.19 59.8479 127.088 65.2207L123.027 63.7705C123 63.7661 122.97 63.7611 122.936 63.7559C122.814 63.7374 122.657 63.7159 122.462 63.6934L122.322 63.6777L122.184 63.6582C121.398 63.5503 120.751 63.5107 120.231 63.5107C119.842 63.5108 119.671 63.5775 119.525 63.6523L119.41 63.7109C119.173 63.8297 118.993 63.9662 118.787 64.2246C118.699 64.3512 118.584 64.5643 118.498 65.0088L111.247 109.073H68.5273L76.9316 58.6465C77.099 58.4298 77.2648 58.2114 77.4268 57.9893C80.3415 54.0007 82.2342 49.3859 83.1035 44.1445C83.9472 38.9288 83.5888 34.3264 82.0293 30.3379C81.9434 30.1131 81.8529 29.8911 81.7598 29.6719L82.6787 24.1641H117.438C119.699 23.6078 122.042 23.3203 124.45 23.3203ZM124.45 36.3203C121.152 36.3203 118.071 37.2662 115.207 39.1582C112.369 41.0247 110.106 43.7862 108.419 47.4424H107.806L109.531 37.1641H93.6914L83.875 96.0732L100.212 96.0732L105.696 62.7451C106.131 60.3418 107.038 58.2198 108.419 56.3789C109.825 54.538 111.551 53.1057 113.597 52.083C115.642 51.0348 117.854 50.5117 120.232 50.5117C121.408 50.5117 122.648 50.6013 123.952 50.7803C125.281 50.9336 126.304 51.138 127.02 51.3936L129.475 36.8584C128.759 36.6794 127.94 36.5503 127.02 36.4736C126.125 36.3714 125.268 36.3203 124.45 36.3203Z" fill="black"/>
<path d="M59.3652 4.52344L59.3643 17.5234H28.3757L15.3369 96.0693L31.9425 96.0689L36.1973 70.6035L50.1214 70.603L51.25 70.5908C56.847 70.4605 61.8141 69.3517 66.1527 67.2663C70.7805 65.0419 74.5391 61.9482 77.4283 57.9851C80.343 53.9965 82.2361 49.382 83.1055 44.1406L92.2764 45.6611L89.2695 63.7041C88.8431 64.3598 88.3975 65.006 87.9326 65.6426L87.9336 65.6436C83.72 71.4233 78.2534 75.8743 71.7852 78.9834C65.1109 82.1915 57.783 83.6035 50.1221 83.6035H47.2061L42.9512 109.069H0L17.3564 4.52344H59.3652ZM53.9961 31.1006C57.1919 31.1006 59.736 31.6506 61.6279 32.75C63.5454 33.8239 64.8615 35.3318 65.5774 37.2749C66.2933 39.218 66.4347 41.5072 66 44.1406L65.918 44.6211C65.479 47.0077 64.6239 49.1362 63.3535 51.0059L63.0938 51.3691C61.7679 53.1655 60.0265 54.5918 57.8691 55.6465L57.4375 55.8457C55.2486 56.8121 52.6433 57.2947 49.6229 57.2947L38.4209 57.2949L42.7962 31.1001L53.9961 31.1006ZM59.3652 4.52344C66.8439 4.52347 74.1812 5.94485 80.5547 9.72461C80.5664 9.73148 80.5791 9.73824 80.5908 9.74512C80.6084 9.75556 80.626 9.76589 80.6436 9.77637C86.8587 13.4469 91.5156 18.8005 94.1377 25.5996C94.1498 25.6305 94.1628 25.6614 94.1748 25.6924C95.6155 29.4092 96.349 33.2603 96.5127 37.1602H93.6934L92.2764 45.6611L83.1055 44.1406C83.9229 39.0876 83.6121 34.6102 82.1738 30.709L82.0312 30.334C80.545 26.4451 77.9789 23.3835 74.333 21.1504L73.9775 20.9375C70.406 18.8042 65.9015 17.6705 60.4648 17.5371L59.3643 17.5234L59.3652 4.52344Z" fill="black"/>
</g>
<defs>
<filter id="filter0_d_4674_2474" x="0" y="0" width="882.699" height="151.164" filterUnits="userSpaceOnUse" color-interpolation-filters="sRGB">
<feFlood flood-opacity="0" result="BackgroundImageFix"/>
<feColorMatrix in="SourceAlpha" type="matrix" values="0 0 0 0 0 0 0 0 0 0 0 0 0 0 0 0 0 0 127 0" result="hardAlpha"/>
<feOffset dx="16" dy="16"/>
<feGaussianBlur stdDeviation="2"/>
<feComposite in2="hardAlpha" operator="out"/>
<feColorMatrix type="matrix" values="0 0 0 0 0 0 0 0 0 0 0 0 0 0 0 0 0 0 0.25 0"/>
<feBlend mode="normal" in2="BackgroundImageFix" result="effect1_dropShadow_4674_2474"/>
<feBlend mode="normal" in="SourceGraphic" in2="effect1_dropShadow_4674_2474" result="shape"/>
</filter>
</defs>
</svg>
